<?xml version="1.0" standalone="no"?><!DOCTYPE svg PUBLIC "-//W3C//DTD SVG 1.1//EN" "http://www.w3.org/Graphics/SVG/1.1/DTD/svg11.dtd"><svg t="1642087572628" class="icon" viewBox="0 0 1024 1024" version="1.1" xmlns="http://www.w3.org/2000/svg" p-id="3208" xmlns:xlink="http://www.w3.org/1999/xlink" width="200" height="200"><defs><style type="text/css"></style></defs><path d="M989.866667 938.666667c-10.24 0-17.066667-6.826667-17.066667-17.066667v-153.6h-921.6V921.6c0 10.24-6.826667 17.066667-17.066667 17.066667s-17.066667-6.826667-17.066666-17.066667v-170.666667c0-10.24 6.826667-17.066667 17.066666-17.066666h955.733334c10.24 0 17.066667 6.826667 17.066666 17.066666v170.666667c0 10.24-6.826667 17.066667-17.066666 17.066667z" fill="" p-id="3209"></path><path d="M983.04 904.533333H44.373333c-10.24 0-17.066667-6.826667-17.066666-17.066666s6.826667-17.066667 17.066666-17.066667h938.666667c10.24 0 17.066667 6.826667 17.066667 17.066667s-10.24 17.066667-17.066667 17.066666zM989.866667 768c-6.826667 0-13.653333-3.413333-17.066667-10.24l-170.666667-375.466667c-3.413333-10.24 0-17.066667 6.826667-23.893333 10.24-3.413333 17.066667 0 23.893333 6.826667l136.533334 303.786666V580.266667c0-10.24 6.826667-17.066667 17.066666-17.066667s17.066667 6.826667 17.066667 17.066667v170.666666c0 6.826667-6.826667 13.653333-13.653333 17.066667 3.413333 0 0 0 0 0zM34.133333 768H30.72c-6.826667-3.413333-13.653333-10.24-13.653333-17.066667v-170.666666c0-10.24 6.826667-17.066667 17.066666-17.066667s17.066667 6.826667 17.066667 17.066667v92.16l136.533333-303.786667c3.413333-6.826667 10.24-10.24 17.066667-10.24h68.266667c10.24 0 17.066667 6.826667 17.066666 17.066667s-6.826667 17.066667-17.066666 17.066666H215.04L51.2 757.76c-3.413333 6.826667-10.24 10.24-17.066667 10.24z" fill="" p-id="3210"></path><path d="M819.2 392.533333h-71.68c-10.24 0-17.066667-6.826667-17.066667-17.066666s6.826667-17.066667 17.066667-17.066667h54.613333v-170.666667c0-37.546667-30.72-68.266667-68.266666-68.266666h-443.733334c-37.546667 0-68.266667 30.72-68.266666 68.266666V375.466667c0 10.24-6.826667 17.066667-17.066667 17.066666s-17.066667-6.826667-17.066667-17.066666V187.733333c0-58.026667 44.373333-102.4 102.4-102.4h443.733334c58.026667 0 102.4 44.373333 102.4 102.4V375.466667c0 10.24-6.826667 17.066667-17.066667 17.066666z" fill="" p-id="3211"></path><path d="M436.906667 494.933333H317.44c-17.066667 0-34.133333-6.826667-44.373333-20.48s-17.066667-30.72-17.066667-47.786666L273.066667 307.2c3.413333-30.72 30.72-51.2 58.026666-51.2h102.4c34.133333 0 61.44 27.306667 61.44 61.44v119.466667c0 30.72-27.306667 58.026667-58.026666 58.026666z m-105.813334-204.8c-10.24 0-23.893333 10.24-23.893333 23.893334l-17.066667 119.466666c0 6.826667 0 13.653333 6.826667 20.48s10.24 10.24 20.48 10.24h119.466667c13.653333 0 27.306667-10.24 27.306666-27.306666V317.44c0-13.653333-10.24-27.306667-27.306666-27.306667H331.093333zM709.973333 494.933333h-119.466666c-34.133333 0-61.44-27.306667-61.44-61.44V317.44c0-34.133333 27.306667-61.44 61.44-61.44h102.4c30.72 0 54.613333 23.893333 58.026666 51.2l17.066667 119.466667c3.413333 17.066667-3.413333 34.133333-13.653333 47.786666-13.653333 13.653333-27.306667 20.48-44.373334 20.48z m-119.466666-204.8c-13.653333 0-27.306667 10.24-27.306667 27.306667v119.466667c0 13.653333 10.24 27.306667 27.306667 27.306666h119.466666c6.826667 0 13.653333-3.413333 20.48-10.24s6.826667-13.653333 6.826667-20.48L716.8 314.026667c0-13.653333-13.653333-23.893333-23.893333-23.893334h-102.4z" fill="" p-id="3212"></path><path d="M546.133333 392.533333h-68.266666c-10.24 0-17.066667-6.826667-17.066667-17.066666s6.826667-17.066667 17.066667-17.066667h68.266666c10.24 0 17.066667 6.826667 17.066667 17.066667s-6.826667 17.066667-17.066667 17.066666z" fill="" p-id="3213"></path></svg>