<?xml version="1.0" standalone="no"?>
<!DOCTYPE svg PUBLIC "-//W3C//DTD SVG 20010904//EN"
 "http://www.w3.org/TR/2001/REC-SVG-20010904/DTD/svg10.dtd">
<svg version="1.0" xmlns="http://www.w3.org/2000/svg"
 width="512.000000pt" height="512.000000pt" viewBox="0 0 512.000000 512.000000"
 preserveAspectRatio="xMidYMid meet">
<metadata>
Created by potrace 1.16, written by Peter Selinger 2001-2019
</metadata>
<g transform="translate(0.000000,512.000000) scale(0.100000,-0.100000)"
fill="currentColor" stroke="none">
<path d="M277 4109 c-104 -24 -201 -103 -246 -199 l-26 -55 0 -905 0 -905 23
-47 c38 -75 96 -134 170 -170 l67 -33 454 -3 454 -3 23 22 c33 31 32 82 -1
114 l-24 25 -236 0 -235 0 0 60 0 60 1499 0 c825 0 1507 3 1516 6 25 10 47 62
40 95 -14 63 98 59 -1552 59 l-1503 0 0 60 0 60 1860 0 1860 0 0 -60 0 -60
-234 0 c-221 0 -235 -1 -260 -21 -37 -29 -37 -89 0 -118 25 -20 39 -21 260
-21 l234 0 0 -60 0 -60 -1495 0 c-1089 0 -1501 -3 -1519 -11 -31 -14 -49 -57
-40 -93 15 -60 -107 -56 1770 -54 l1719 3 67 33 c74 36 132 95 170 170 l23 47
0 905 0 905 -26 55 c-35 75 -98 136 -177 173 l-67 32 -1828 3 -1828 2 -24 -24
c-33 -33 -34 -84 -2 -114 l23 -22 1795 0 c1234 0 1806 -3 1832 -11 47 -13 115
-72 134 -116 10 -26 13 -192 13 -885 l0 -853 -23 -40 c-12 -21 -42 -53 -65
-70 -42 -29 -49 -30 -163 -33 l-119 -4 0 240 c0 247 -6 294 -40 312 -25 14
-3955 14 -3980 0 -34 -18 -40 -65 -40 -312 l0 -240 -119 4 c-114 3 -121 4
-163 33 -23 17 -53 49 -65 70 l-23 40 0 853 c0 926 -2 888 56 945 62 62 60 62
415 67 246 4 330 8 342 18 38 32 27 110 -19 131 -30 13 -619 14 -677 0z"/>
<path d="M2483 3650 c-45 -18 -58 -95 -23 -130 20 -20 33 -20 769 -20 l750 0
20 26 c35 45 26 95 -20 119 -24 13 -135 15 -751 14 -398 0 -733 -4 -745 -9z"/>
<path d="M4228 3630 c-25 -26 -29 -36 -24 -63 11 -60 31 -67 192 -67 131 0
146 2 164 20 33 33 30 85 -6 118 -23 20 -34 22 -160 22 l-136 0 -30 -30z"/>
<path d="M1366 1578 c-20 -17 -29 -38 -36 -82 -21 -134 -78 -239 -173 -320
-62 -53 -72 -71 -62 -117 8 -35 59 -65 96 -56 32 8 129 95 173 156 77 105 126
238 126 347 0 57 -17 80 -67 90 -23 4 -36 0 -57 -18z"/>
<path d="M1914 1589 c-40 -20 -44 -50 -44 -289 0 -243 4 -270 47 -289 37 -17
62 -13 88 14 l25 24 0 249 c0 223 -2 252 -17 271 -21 25 -70 35 -99 20z"/>
<path d="M2543 1588 c-40 -20 -44 -51 -41 -306 3 -274 4 -277 79 -277 31 0 46
6 60 24 18 21 19 43 19 271 0 221 -2 250 -17 269 -21 25 -70 35 -100 19z"/>
<path d="M3133 1590 c-40 -16 -43 -39 -43 -295 l0 -246 25 -24 c26 -27 51 -31
88 -14 43 19 47 46 47 289 0 243 -4 270 -47 289 -28 13 -40 13 -70 1z"/>
<path d="M3680 1593 c-38 -14 -50 -36 -50 -91 0 -100 45 -229 119 -336 38 -55
147 -155 178 -162 33 -9 83 15 94 43 18 47 9 64 -69 141 -96 95 -138 172 -158
285 -18 105 -53 142 -114 120z"/>
</g>
</svg>
