<?xml version="1.0" standalone="no"?>
<!DOCTYPE svg PUBLIC "-//W3C//DTD SVG 20010904//EN"
 "http://www.w3.org/TR/2001/REC-SVG-20010904/DTD/svg10.dtd">
<svg version="1.0" xmlns="http://www.w3.org/2000/svg"
 width="512.000000pt" height="512.000000pt" viewBox="0 0 512.000000 512.000000"
 preserveAspectRatio="xMidYMid meet">

<g transform="translate(0.000000,512.000000) scale(0.100000,-0.100000)"
fill="currentColor" stroke="none">
<path d="M62 5105 c-67 -29 -62 169 -62 -2545 0 -2722 -5 -2516 64 -2545 53
-22 943 -22 986 0 48 25 60 52 60 132 l0 73 1450 0 1450 0 0 -73 c0 -80 12
-107 60 -132 43 -22 933 -22 986 0 69 29 64 -177 64 2545 0 2722 5 2516 -64
2545 -53 22 -4944 22 -4994 0z m4838 -2545 l0 -2340 -335 0 -335 0 0 1846 c0
2021 4 1893 -57 1925 -39 21 -3187 21 -3226 0 -61 -32 -57 96 -57 -1925 l0
-1846 -335 0 -335 0 0 2340 0 2340 2340 0 2340 0 0 -2340z m-2450 -445 l0
-1665 -670 0 -670 0 0 1665 0 1665 670 0 670 0 0 -1665z m1560 0 l0 -1665
-670 0 -670 0 0 1665 0 1665 670 0 670 0 0 -1665z"/>
<path d="M1708 4533 c-106 -106 -139 -144 -144 -170 -16 -86 74 -160 149 -122
12 6 57 45 99 87 l77 76 85 -82 c95 -91 130 -105 189 -77 41 19 61 53 60 100
-1 45 -20 69 -161 208 -119 116 -121 117 -168 117 l-47 0 -139 -137z"/>
<path d="M2937 4647 c-33 -26 -47 -71 -36 -112 11 -39 263 -291 302 -300 15
-4 39 -4 54 0 31 7 266 233 289 277 24 46 18 86 -20 124 -64 64 -124 45 -245
-80 l-55 -55 -87 84 c-83 80 -91 85 -131 85 -30 0 -52 -7 -71 -23z"/>
<path d="M4501 2874 c-53 -38 -61 -122 -14 -168 31 -31 67 -40 109 -26 115 38
91 210 -30 210 -23 0 -52 -7 -65 -16z"/>
<path d="M4516 2435 c-55 -29 -75 -83 -52 -139 19 -45 52 -66 102 -66 116 0
146 161 38 206 -42 18 -52 17 -88 -1z"/>
</g>
</svg>
