<?xml version="1.0" standalone="no"?>
<!DOCTYPE svg PUBLIC "-//W3C//DTD SVG 20010904//EN"
 "http://www.w3.org/TR/2001/REC-SVG-20010904/DTD/svg10.dtd">
<svg version="1.0" xmlns="http://www.w3.org/2000/svg"
 width="512.000000pt" height="512.000000pt" viewBox="0 0 512.000000 512.000000"
 preserveAspectRatio="xMidYMid meet">
<metadata>
Created by potrace 1.16, written by Peter Selinger 2001-2019
</metadata>
<g transform="translate(0.000000,512.000000) scale(0.100000,-0.100000)"
fill="currentColor" stroke="none">
<path d="M1335 5102 c-142 -49 -243 -173 -265 -327 -12 -90 -13 -3994 -1
-4082 18 -121 96 -240 194 -295 l37 -22 0 -95 c0 -118 12 -162 56 -211 57 -63
83 -70 246 -70 118 0 150 4 183 19 85 39 115 100 115 231 l0 90 61 0 c89 0
128 26 129 88 0 22 -8 41 -25 57 l-24 25 -288 0 c-316 0 -363 6 -426 54 -20
15 -47 51 -62 79 l-25 51 0 1053 0 1053 356 0 c238 0 369 4 395 11 88 27 148
110 149 207 l0 52 870 0 870 0 0 -1188 0 -1188 -25 -51 c-15 -28 -42 -64 -62
-79 -70 -53 -79 -54 -848 -54 l-712 0 -21 -23 c-22 -23 -29 -68 -16 -102 17
-43 37 -45 544 -45 l480 0 0 -90 c0 -131 30 -192 115 -231 33 -15 65 -19 183
-19 163 0 189 7 246 70 44 49 56 93 56 211 l0 95 38 22 c99 56 176 175 193
300 6 40 8 825 7 1934 l-3 1867 -23 23 c-31 31 -93 31 -124 0 l-23 -23 -3
-629 -3 -630 -1319 0 -1320 0 0 765 c0 844 -3 804 63 874 18 18 50 42 72 52
38 18 91 19 1185 19 1290 0 1186 6 1262 -78 36 -40 51 -77 63 -155 8 -49 39
-77 84 -77 70 1 93 43 79 144 -15 110 -82 214 -176 275 -100 64 -31 61 -1317
60 -1076 0 -1174 -2 -1220 -17z m635 -2064 c0 -17 -7 -40 -17 -50 -15 -17 -40
-18 -365 -18 l-348 0 0 50 0 50 365 0 365 0 0 -32z m-240 -2771 c0 -43 -5 -78
-12 -85 -8 -8 -49 -12 -120 -12 -126 0 -128 1 -128 104 l0 66 130 0 130 0 0
-73z m1920 7 c0 -103 -2 -104 -128 -104 -71 0 -112 4 -120 12 -7 7 -12 42 -12
85 l0 73 130 0 130 0 0 -66z"/>
<path d="M3610 4743 c-8 -3 -25 -15 -37 -26 l-23 -20 0 -597 0 -597 23 -21
c29 -28 86 -29 118 -3 l24 19 3 595 2 595 -22 26 c-24 26 -62 39 -88 29z"/>
<path d="M1486 4454 l-26 -27 0 -363 0 -363 24 -27 c31 -37 84 -38 121 -4 l25
23 0 309 0 308 31 0 c88 0 131 85 73 144 -25 25 -32 26 -124 26 -92 0 -99 -1
-124 -26z"/>
<path d="M3575 2835 l-25 -24 0 -816 0 -816 25 -24 c27 -27 79 -33 106 -12 39
30 39 32 39 852 0 844 0 841 -45 859 -35 13 -76 6 -100 -19z"/>
<path d="M3595 1028 c-35 -21 -44 -42 -44 -103 0 -66 11 -89 53 -105 65 -24
116 22 116 106 0 41 -5 59 -22 78 -27 30 -74 41 -103 24z"/>
</g>
</svg>
