<?xml version="1.0" standalone="no"?>
<!DOCTYPE svg PUBLIC "-//W3C//DTD SVG 20010904//EN"
 "http://www.w3.org/TR/2001/REC-SVG-20010904/DTD/svg10.dtd">
<svg version="1.0" xmlns="http://www.w3.org/2000/svg"
 width="512.000000pt" height="512.000000pt" viewBox="0 0 512.000000 512.000000"
 preserveAspectRatio="xMidYMid meet">

<g transform="translate(0.000000,512.000000) scale(0.100000,-0.100000)"
fill="currentColor" stroke="none">
<path d="M1018 5110 c-10 -6 -31 -31 -48 -55 l-30 -44 -53 23 c-288 126 -633
2 -766 -277 -22 -45 -45 -107 -52 -138 -18 -85 -7 -249 21 -324 28 -73 95
-178 144 -224 20 -19 36 -39 36 -44 0 -4 -52 -85 -115 -179 -63 -94 -115 -179
-115 -189 0 -10 12 -32 28 -48 24 -25 1176 -745 1237 -773 57 -26 68 -11 271
348 l189 335 315 -7 c173 -3 318 -8 323 -11 4 -2 7 -15 7 -28 0 -26 42 -65 71
-65 10 0 30 10 44 23 25 21 29 38 70 297 47 300 47 309 -7 340 -25 13 -31 13
-55 0 -15 -9 -33 -26 -39 -38 -6 -12 -13 -25 -16 -27 -5 -6 -376 70 -384 78
-4 3 26 62 65 130 74 130 83 161 54 195 -27 31 -1124 706 -1153 709 -14 2 -33
-1 -42 -7z m539 -466 c263 -163 482 -300 487 -304 4 -5 -130 -253 -299 -552
-169 -298 -309 -544 -310 -546 -3 -3 -228 136 -912 561 l-153 94 353 522 c193
286 353 521 354 521 1 0 217 -133 480 -296z m-781 271 c80 -24 82 -27 50 -74
-16 -23 -30 -41 -32 -41 -1 0 -30 7 -65 16 -225 58 -446 -142 -409 -371 11
-68 25 -100 66 -156 l35 -48 -27 -41 c-15 -22 -32 -39 -38 -37 -6 2 -32 31
-58 65 -128 169 -116 408 29 563 87 93 190 138 319 139 44 0 103 -7 130 -15z
m-77 -252 c6 -4 -182 -282 -190 -283 -15 0 -39 71 -39 116 0 54 34 121 74 148
44 28 132 40 155 19z m1537 -768 c120 -25 219 -47 221 -48 4 -5 -25 -178 -31
-184 -3 -3 -133 -2 -289 2 l-284 7 75 134 c42 74 79 134 83 134 4 0 105 -20
225 -45z m-1408 -459 l531 -330 -25 -40 c-13 -23 -30 -40 -38 -40 -16 2 -1053
641 -1061 655 -7 10 45 91 55 87 3 -2 245 -151 538 -332z"/>
<path d="M1632 4103 c-31 -28 -152 -253 -152 -283 0 -34 38 -70 74 -70 15 0
37 10 49 23 38 38 147 243 147 276 0 61 -72 93 -118 54z"/>
<path d="M2740 3870 c-59 -59 14 -154 89 -116 46 24 54 67 20 110 -26 33 -79
36 -109 6z"/>
<path d="M3123 3808 c-30 -15 -46 -58 -34 -91 12 -30 39 -47 75 -47 63 0 90
89 40 129 -29 23 -48 25 -81 9z"/>
<path d="M3463 3650 c-26 -11 -43 -40 -43 -74 0 -63 89 -90 129 -40 27 34 26
57 -1 88 -27 29 -55 38 -85 26z"/>
<path d="M2714 3588 c-22 -10 -44 -47 -44 -72 0 -7 9 -25 21 -40 26 -33 79
-36 109 -6 30 30 27 83 -6 109 -29 23 -48 25 -80 9z"/>
<path d="M3720 3390 c-48 -48 -2 -139 63 -126 64 12 88 82 44 124 -30 28 -80
29 -107 2z"/>
<path d="M3046 3309 c-52 -41 -22 -129 45 -129 43 0 73 31 73 75 0 67 -64 96
-118 54z"/>
<path d="M3953 3100 c-45 -18 -57 -81 -23 -118 30 -32 82 -30 109 4 34 43 26
86 -20 109 -32 17 -35 17 -66 5z"/>
<path d="M3296 2949 c-34 -27 -36 -79 -4 -109 38 -35 90 -25 114 22 13 25 13
35 3 59 -21 52 -68 63 -113 28z"/>
<path d="M4076 2738 c-9 -12 -16 -37 -16 -54 0 -66 82 -92 127 -40 28 33 29
56 2 90 -27 35 -90 37 -113 4z"/>
<path d="M3420 2530 c-36 -36 -21 -102 27 -121 35 -13 77 4 92 37 16 35 14 48
-10 78 -26 33 -79 36 -109 6z"/>
<path d="M530 1997 c-50 -26 -90 -90 -90 -142 0 -18 19 -70 41 -116 33 -67 60
-101 128 -169 118 -117 241 -176 390 -187 l74 -6 -6 -127 c-4 -69 -10 -273
-14 -453 l-6 -326 -47 -30 c-25 -17 -67 -52 -93 -80 -32 -34 -61 -54 -96 -66
-56 -18 -164 -93 -181 -125 -10 -19 -19 -20 -296 -20 l-285 0 -24 -25 c-32
-31 -32 -69 0 -100 l24 -25 2511 0 2511 0 24 25 c32 31 32 69 0 100 l-24 25
-280 0 -279 0 -21 34 c-50 81 -162 162 -266 192 -36 10 -77 32 -105 54 -25 21
-55 43 -67 49 -22 11 -23 18 -23 114 0 56 3 173 7 260 l6 157 51 0 c73 0 158
24 256 72 118 57 229 168 288 287 23 46 42 98 42 116 0 52 -40 116 -90 142
-53 28 -79 29 -161 2 -121 -40 -234 -105 -321 -187 l-48 -45 0 44 c0 51 25
276 44 398 8 47 11 92 8 100 -11 34 -36 51 -72 51 -56 0 -70 -22 -88 -147 -8
-59 -17 -110 -19 -112 -2 -2 -33 25 -70 60 -109 105 -215 168 -351 209 -109
33 -181 9 -221 -74 -30 -61 -26 -93 20 -186 103 -205 335 -359 543 -360 l49 0
-6 -132 c-4 -73 -10 -261 -13 -418 l-7 -285 -76 -1 c-43 0 -99 -8 -128 -18
-49 -16 -54 -16 -110 0 -37 12 -92 18 -153 18 -115 0 -204 -24 -300 -82 l-65
-40 -35 28 c-87 69 -218 106 -328 95 l-62 -7 2 234 3 233 77 7 c90 8 196 43
276 90 138 81 282 276 282 383 0 84 -58 150 -141 160 -88 11 -282 -78 -416
-192 l-65 -55 6 48 c3 27 8 83 11 124 4 41 15 133 26 204 10 71 19 140 19 152
0 57 -88 87 -128 44 -18 -19 -23 -44 -48 -210 l-5 -36 -73 71 c-128 123 -360
238 -448 221 -83 -16 -138 -79 -138 -159 0 -118 154 -318 307 -400 81 -43 203
-77 276 -77 l50 0 -7 -47 c-3 -27 -9 -218 -13 -426 -6 -377 -6 -378 -27 -373
-108 26 -256 9 -368 -42 l-67 -30 -68 33 c-113 57 -222 65 -350 29 -48 -13
-59 -13 -110 2 -60 18 -206 24 -255 11 l-28 -7 0 103 c0 57 3 165 6 239 l7
135 76 6 c149 12 279 75 397 192 63 62 90 99 122 164 23 46 42 98 42 116 0 52
-40 116 -90 142 -53 28 -79 29 -161 2 -121 -40 -234 -105 -321 -187 l-48 -45
0 44 c0 51 25 276 44 398 8 47 11 92 8 100 -11 34 -36 51 -72 51 -56 0 -70
-22 -88 -147 -8 -59 -17 -110 -19 -112 -2 -2 -33 25 -70 60 -108 104 -213 167
-347 208 -86 27 -103 26 -156 -2z m263 -210 c37 -21 93 -63 126 -93 60 -55
129 -150 118 -161 -12 -12 -123 18 -195 52 -51 24 -93 54 -136 97 -59 60 -121
161 -110 179 7 12 118 -30 197 -74z m1328 44 c128 -53 265 -165 318 -261 l24
-43 -49 8 c-112 16 -217 69 -295 147 -52 52 -109 141 -109 171 0 21 10 19 111
-22z m1502 -44 c37 -21 93 -63 126 -93 60 -55 129 -150 118 -161 -13 -12 -125
18 -197 54 -90 44 -184 133 -223 212 -14 30 -24 58 -21 62 7 12 118 -30 197
-74z m-1931 -313 c-6 -37 -68 -127 -120 -174 -29 -27 -83 -64 -120 -82 -65
-33 -187 -67 -198 -55 -21 21 133 191 219 242 65 37 200 96 212 91 6 -2 9 -12
7 -22z m1413 -1 c-33 -138 -221 -282 -401 -309 l-47 -7 24 44 c55 100 199 213
343 270 88 35 90 35 81 2z m1417 1 c-6 -37 -68 -127 -120 -174 -29 -27 -83
-64 -120 -82 -65 -33 -187 -67 -198 -55 -21 21 133 191 219 242 65 37 200 96
212 91 6 -2 9 -12 7 -22z m-3041 -1107 l67 -20 61 23 c117 43 238 25 333 -50
48 -39 80 -38 148 6 111 70 245 86 377 44 l71 -23 63 23 c92 35 181 32 264 -9
35 -17 77 -47 93 -65 60 -69 93 -72 159 -14 89 77 228 124 334 111 24 -2 72
-14 107 -26 l62 -21 63 21 c87 30 119 34 179 23 74 -14 128 -43 186 -100 39
-37 59 -50 81 -50 41 0 129 -34 166 -65 l30 -24 -1730 0 c-1166 1 -1719 4
-1695 11 23 6 59 35 106 84 135 141 287 180 475 121z"/>
</g>
</svg>
