<?xml version="1.0" standalone="no"?>
<!DOCTYPE svg PUBLIC "-//W3C//DTD SVG 20010904//EN"
 "http://www.w3.org/TR/2001/REC-SVG-20010904/DTD/svg10.dtd">
<svg version="1.0" xmlns="http://www.w3.org/2000/svg"
 width="512.000000pt" height="512.000000pt" viewBox="0 0 512.000000 512.000000"
 preserveAspectRatio="xMidYMid meet">
<metadata>
Created by potrace 1.16, written by Peter Selinger 2001-2019
</metadata>
<g transform="translate(0.000000,512.000000) scale(0.100000,-0.100000)"
fill="currentColor" stroke="none">
<path d="M20 4220 c-20 -20 -20 -33 -20 -1660 0 -1627 0 -1640 20 -1660 20
-20 33 -20 2540 -20 2507 0 2520 0 2540 20 20 20 20 33 20 1660 0 1627 0 1640
-20 1660 -20 20 -33 20 -2540 20 -2507 0 -2520 0 -2540 -20z m3820 -1660 l0
-1520 -1840 0 -1840 0 0 1520 0 1520 1840 0 1840 0 0 -1520z m1120 0 l0 -1520
-480 0 -480 0 0 1520 0 1520 480 0 480 0 0 -1520z"/>
<path d="M422 3577 l-22 -23 0 -995 0 -996 23 -21 23 -22 1555 0 1556 0 21 23
22 23 0 995 0 996 -23 21 c-23 21 -31 22 -253 22 -228 0 -231 0 -252 -23 -29
-31 -29 -87 -1 -113 19 -17 41 -19 195 -22 l174 -3 0 -880 0 -879 -1440 0
-1440 0 0 880 0 880 1120 2 c1105 3 1120 3 1139 23 31 32 31 85 1 115 -20 20
-33 20 -1198 20 l-1179 0 -21 -23z"/>
<path d="M4277 3588 c-25 -20 -38 -64 -27 -92 31 -82 150 -63 150 24 0 64 -74
104 -123 68z"/>
<path d="M4592 3577 c-41 -43 -21 -118 34 -131 79 -20 136 73 79 129 -32 33
-83 34 -113 2z"/>
<path d="M4277 3348 c-44 -34 -39 -115 9 -137 36 -16 58 -14 88 10 55 43 21
139 -50 139 -17 0 -38 -6 -47 -12z"/>
<path d="M4591 3334 c-38 -48 -20 -115 35 -128 79 -20 136 73 79 129 -34 35
-86 34 -114 -1z"/>
<path d="M4278 3106 c-45 -34 -40 -113 8 -135 36 -16 58 -14 88 10 55 43 21
139 -50 139 -16 0 -37 -6 -46 -14z"/>
<path d="M4595 3095 c-16 -15 -25 -36 -25 -55 0 -36 38 -80 69 -80 50 0 91 41
91 91 0 31 -44 69 -80 69 -19 0 -40 -9 -55 -25z"/>
<path d="M4395 2867 c-63 -21 -101 -44 -141 -85 -47 -48 -70 -94 -83 -165 -27
-145 45 -283 178 -346 46 -21 70 -26 136 -26 98 1 163 26 223 88 70 72 87 117
87 227 0 80 -4 102 -23 140 -34 64 -97 125 -156 151 -62 27 -165 34 -221 16z
m241 -353 c-9 -34 -56 -85 -93 -100 -34 -15 -93 -19 -93 -7 0 4 42 49 93 101
l92 93 3 -32 c2 -17 1 -42 -2 -55z"/>
<path d="M4407 2150 c-63 -16 -112 -47 -160 -100 -113 -125 -107 -322 13 -438
155 -151 412 -108 510 85 21 41 25 62 25 143 0 83 -4 101 -27 146 -31 60 -94
119 -154 145 -51 23 -153 32 -207 19z"/>
</g>
</svg>
