<?xml version="1.0" standalone="no"?>
<!DOCTYPE svg PUBLIC "-//W3C//DTD SVG 20010904//EN"
 "http://www.w3.org/TR/2001/REC-SVG-20010904/DTD/svg10.dtd">
<svg version="1.0" xmlns="http://www.w3.org/2000/svg"
 width="512.000000pt" height="512.000000pt" viewBox="0 0 512.000000 512.000000"
 preserveAspectRatio="xMidYMid meet">

<g transform="translate(0.000000,512.000000) scale(0.100000,-0.100000)"
fill="currentColor" stroke="none">
<path d="M3518 4628 c-49 -13 -116 -72 -139 -122 -12 -26 -19 -65 -19 -103 0
-57 -2 -63 -22 -67 -200 -40 -349 -86 -460 -142 l-47 -24 -436 0 c-422 0 -436
-1 -455 -20 -30 -30 -27 -83 6 -109 26 -20 38 -21 336 -21 l310 0 -34 -27
c-18 -15 -59 -51 -90 -80 l-57 -53 -846 0 c-541 0 -853 -4 -865 -10 -10 -5
-23 -25 -28 -42 -6 -18 -83 -406 -173 -861 -177 -907 -172 -864 -106 -887 19
-6 183 -10 448 -10 l419 0 0 -75 0 -75 -534 0 -535 0 -20 26 c-12 15 -21 33
-21 42 0 8 88 463 195 1011 183 930 197 997 221 1019 l25 22 524 0 c368 0 531
3 549 11 51 23 55 103 7 128 -13 8 -199 11 -563 11 -504 0 -546 -2 -583 -19
-49 -22 -109 -86 -123 -132 -16 -49 -402 -2016 -402 -2047 0 -81 59 -169 135
-203 37 -17 79 -19 581 -19 l542 0 4 -104 c4 -122 17 -146 78 -146 59 0 69 19
72 140 l3 105 160 0 160 0 5 -108 c6 -121 14 -137 75 -137 56 0 70 27 73 146
l4 104 731 -2 732 -3 0 -105 0 -105 -400 -5 c-437 -5 -429 -4 -486 -67 -55
-59 -74 -127 -58 -203 13 -62 58 -124 108 -149 l39 -20 4 -218 c4 -200 6 -221
26 -259 77 -148 274 -175 377 -52 51 61 55 81 55 308 l0 210 550 0 550 0 0
-210 c0 -229 5 -258 58 -313 88 -94 238 -98 324 -10 66 68 68 79 68 400 l0
288 236 393 c129 216 242 408 250 427 22 54 17 116 -31 355 -49 244 -58 264
-115 262 -43 -1 -70 -27 -70 -67 0 -18 9 -77 20 -130 11 -53 20 -99 20 -101 0
-2 -13 -4 -30 -4 -16 0 -50 -7 -76 -16 -25 -8 -47 -14 -48 -12 -1 2 -37 183
-80 403 -43 220 -79 406 -82 413 -3 10 15 12 79 10 l82 -3 23 -120 c15 -82 29
-126 42 -139 22 -23 72 -25 96 -6 30 26 33 54 13 146 -28 134 -33 124 66 124
79 0 87 2 117 29 29 26 33 36 33 78 0 38 -12 70 -57 160 -232 462 -646 780
-1147 884 -51 10 -95 19 -97 19 -2 0 -4 27 -4 60 0 74 -19 123 -68 173 -56 57
-139 78 -224 55z m116 -159 c22 -17 26 -28 26 -70 l0 -49 -75 0 -75 0 0 45 c0
81 65 120 124 74z m13 -322 c81 -121 170 -459 199 -754 l7 -73 -267 0 c-250 0
-266 1 -266 18 0 38 31 251 51 352 42 216 97 375 159 465 42 62 72 60 117 -8z
m-323 -64 c-57 -143 -110 -375 -140 -620 l-18 -143 -183 0 c-150 0 -183 3
-183 14 0 30 83 253 126 339 66 130 128 220 213 310 65 68 179 157 201 157 4
0 -3 -26 -16 -57z m664 -58 c104 -97 183 -207 257 -360 57 -117 125 -297 125
-332 0 -10 -38 -13 -184 -13 l-183 0 -7 78 c-17 190 -80 492 -132 637 -43 118
-43 112 6 84 24 -13 77 -55 118 -94z m-1002 14 c-130 -145 -251 -384 -326
-646 l-21 -73 -210 0 -209 0 34 68 c100 198 300 427 483 550 88 60 284 165
292 157 2 -2 -17 -28 -43 -56z m1355 -41 c123 -73 187 -124 304 -242 114 -114
207 -240 271 -368 l34 -68 -209 0 -210 0 -11 43 c-67 255 -194 513 -334 675
-25 30 -46 55 -46 57 0 8 128 -54 201 -97z m-2119 -370 c-66 -99 -172 -313
-172 -348 0 -35 35 -89 66 -100 15 -6 263 -10 635 -10 l609 0 -2 -482 -3 -483
-731 -3 -731 -2 -6 76 c-12 136 -67 223 -175 276 -115 57 -235 42 -341 -41
l-38 -30 -28 29 c-46 48 -119 75 -205 74 -66 0 -83 -4 -138 -34 -106 -56 -159
-143 -169 -275 l-6 -75 -138 0 c-93 0 -139 4 -139 11 0 6 65 342 145 747 80
405 145 740 145 745 0 4 333 7 739 7 l739 0 -56 -82z m1438 -1278 l0 -820 -75
0 -75 0 0 820 0 820 75 0 75 0 0 -820z m753 798 c3 -13 45 -221 92 -463 47
-242 89 -450 92 -463 l5 -22 -393 2 -394 3 -3 483 -2 482 299 0 299 0 5 -22z
m-3224 -735 c51 -38 71 -80 71 -150 l0 -64 -157 3 -158 3 -3 24 c-12 79 34
166 103 198 39 17 110 11 144 -14z m444 13 c55 -22 94 -77 102 -140 11 -89 17
-86 -160 -86 -180 0 -175 -3 -157 93 21 114 118 174 215 133z m3270 -238 c9
-11 17 -33 17 -49 0 -20 -77 -158 -251 -446 -138 -230 -260 -428 -272 -440
l-20 -23 -884 0 c-558 0 -891 4 -903 10 -40 21 -45 97 -8 128 11 9 226 12 861
14 832 3 847 3 865 23 11 11 124 195 252 408 149 250 240 392 253 397 30 13
69 3 90 -22z m-3163 -213 l0 -75 -165 0 -165 0 0 75 0 75 165 0 165 0 0 -75z
m1620 0 l0 -75 -735 0 -735 0 0 75 0 75 735 0 735 0 0 -75z m1158 67 c-1 -5
-21 -38 -43 -75 l-39 -67 -313 0 -313 0 0 75 0 75 356 0 c196 0 354 -4 352 -8z
m-179 -299 c0 -5 -28 -53 -62 -108 l-62 -100 -200 0 -200 0 -3 94 c-1 52 -1
100 2 108 4 10 59 13 266 13 143 0 260 -3 259 -7z m81 -862 l0 -210 -26 -20
c-35 -28 -69 -26 -99 4 -25 24 -25 25 -25 224 l0 200 68 4 c37 2 70 4 75 5 4
1 7 -92 7 -207z m-1550 -1 c0 -200 0 -201 -25 -225 -30 -30 -64 -32 -99 -4
l-26 20 0 205 0 204 75 0 75 0 0 -200z"/>
<path d="M1225 3471 c-16 -10 -41 -31 -55 -46 -34 -37 -90 -64 -168 -80 -40
-9 -72 -21 -80 -32 -21 -29 -11 -83 20 -106 26 -19 32 -20 95 -8 78 14 161 51
209 93 l34 30 39 -31 c58 -46 145 -82 225 -94 95 -14 216 11 258 53 32 32 35
56 12 88 -27 38 -55 43 -125 21 -108 -34 -214 -10 -297 68 -74 70 -110 79
-167 44z"/>
<path d="M1235 3044 c-16 -8 -47 -33 -69 -55 -42 -41 -126 -79 -175 -79 -16 0
-40 -9 -55 -21 -33 -26 -36 -79 -5 -110 19 -19 29 -21 87 -16 70 7 181 54 236
100 l30 24 48 -38 c124 -98 316 -116 461 -43 27 13 66 37 86 53 l36 28 50 -39
c64 -49 143 -79 226 -85 58 -5 69 -3 88 16 27 27 28 82 1 106 -12 10 -46 22
-80 27 -73 10 -124 34 -189 92 -82 73 -122 71 -205 -8 -123 -116 -292 -114
-420 4 -40 37 -82 60 -109 60 -7 0 -25 -7 -42 -16z"/>
</g>
</svg>
