<?xml version="1.0" standalone="no"?>
<!DOCTYPE svg PUBLIC "-//W3C//DTD SVG 20010904//EN"
 "http://www.w3.org/TR/2001/REC-SVG-20010904/DTD/svg10.dtd">
<svg version="1.0" xmlns="http://www.w3.org/2000/svg"
 width="512.000000pt" height="512.000000pt" viewBox="0 0 512.000000 512.000000"
 preserveAspectRatio="xMidYMid meet">
<metadata>
Created by potrace 1.16, written by Peter Selinger 2001-2019
</metadata>
<g transform="translate(0.000000,512.000000) scale(0.100000,-0.100000)"
fill="currentColor" stroke="none">
<path d="M1680 4960 l0 -80 80 0 80 0 0 -245 c0 -213 -2 -245 -15 -245 -29 0
-116 -51 -156 -91 -79 -79 -88 -113 -125 -478 -18 -179 -34 -338 -34 -353 l0
-28 165 0 165 0 0 -320 0 -320 -800 0 -800 0 0 800 0 800 720 0 720 0 0 80 0
80 -747 0 c-729 0 -749 -1 -781 -20 -18 -11 -41 -34 -52 -52 -19 -32 -20 -52
-20 -888 0 -836 1 -856 20 -888 11 -18 34 -41 52 -52 32 -19 52 -20 888 -20
836 0 856 1 888 20 18 11 41 34 52 52 19 31 20 51 20 381 l0 347 81 0 80 0 -7
-80 -7 -80 413 0 413 0 -7 80 -7 80 80 0 81 0 0 -347 c0 -330 1 -350 20 -381
11 -18 34 -41 52 -52 32 -19 52 -20 888 -20 836 0 856 1 888 20 18 11 41 34
52 52 19 32 20 52 20 888 0 836 -1 856 -20 888 -11 18 -34 41 -52 52 -32 19
-52 20 -780 20 l-748 0 0 -80 0 -80 720 0 720 0 0 -800 0 -800 -800 0 -800 0
0 320 0 320 165 0 165 0 0 28 c0 15 -16 174 -34 353 -37 365 -46 399 -125 478
-40 40 -127 91 -156 91 -13 0 -15 32 -15 245 l0 245 80 0 80 0 0 80 0 80 -880
0 -880 0 0 -80z m800 -405 c0 -285 -2 -325 -15 -325 -29 0 -116 -51 -155 -91
l-38 -40 -16 53 c-18 64 -65 137 -109 171 -41 31 -112 67 -132 67 -13 0 -15
31 -15 245 l0 245 240 0 240 0 0 -325z m640 80 c0 -214 -2 -245 -15 -245 -20
0 -91 -36 -132 -67 -44 -34 -91 -107 -109 -170 l-15 -53 -44 43 c-24 24 -68
55 -99 68 l-56 24 0 323 0 322 235 0 235 0 0 -245z m-1121 -420 c39 -20 78
-69 91 -113 6 -20 21 -142 33 -269 l23 -233 -226 0 -226 0 23 233 c12 127 27
248 33 268 12 45 43 85 84 110 38 23 125 25 165 4z m1280 0 c39 -20 78 -69 91
-113 6 -20 21 -142 33 -269 l23 -233 -226 0 -226 0 23 233 c12 127 27 248 33
268 12 45 43 85 84 110 38 23 125 25 165 4z m-640 -160 c39 -20 78 -69 91
-113 6 -20 21 -142 33 -269 l23 -233 -226 0 -226 0 23 233 c12 127 27 248 33
268 12 45 43 85 84 110 38 23 125 25 165 4z"/>
<path d="M400 3600 l0 -640 640 0 640 0 0 160 0 160 -80 0 -80 0 0 -80 0 -80
-480 0 -480 0 0 480 0 480 480 0 480 0 0 80 0 80 -560 0 -560 0 0 -640z"/>
<path d="M3600 4160 l0 -80 480 0 480 0 0 -480 0 -480 -480 0 -480 0 0 80 0
80 -80 0 -80 0 0 -160 0 -160 640 0 640 0 0 640 0 640 -560 0 -560 0 0 -80z"/>
<path d="M231 1969 c-99 -50 -150 -136 -151 -254 0 -64 14 -112 170 -579 114
-344 180 -524 201 -557 39 -61 97 -112 169 -147 53 -26 63 -27 238 -30 l182
-4 0 -79 0 -79 -160 0 -160 0 0 -80 0 -80 400 0 400 0 0 80 0 80 -160 0 -160
0 0 80 0 80 233 0 c263 0 283 5 348 77 50 55 62 99 57 198 -3 64 -10 95 -33
141 -37 76 -114 152 -190 190 l-60 29 -305 3 -306 3 -118 357 c-154 464 -152
458 -200 510 -63 69 -121 92 -237 92 -87 0 -101 -3 -158 -31z m251 -160 c32
-23 30 -17 199 -526 l133 -402 336 -3 c296 -3 340 -5 375 -21 84 -38 144 -123
145 -204 0 -51 -23 -79 -72 -88 -18 -3 -217 -5 -443 -3 -391 3 -412 4 -455 24
-98 46 -100 50 -284 600 -96 289 -166 515 -166 536 0 97 143 150 232 87z"/>
<path d="M4585 1976 c-65 -30 -127 -98 -152 -167 -11 -30 -74 -215 -139 -411
l-118 -357 -306 -3 -305 -3 -60 -29 c-76 -38 -153 -114 -190 -190 -23 -46 -30
-77 -33 -141 -5 -99 7 -143 57 -198 65 -72 85 -77 349 -77 l232 0 0 -80 0 -80
-160 0 -160 0 0 -80 0 -80 400 0 400 0 0 80 0 80 -160 0 -160 0 0 79 0 79 183
4 c174 3 184 4 237 30 72 36 130 86 169 147 21 33 87 213 201 557 155 466 170
515 170 579 0 119 -59 212 -165 261 -72 34 -218 34 -290 0z m227 -157 c32 -17
58 -61 58 -98 0 -20 -74 -258 -166 -535 -184 -550 -186 -554 -284 -600 -43
-20 -64 -21 -455 -24 -225 -2 -425 0 -443 3 -48 9 -72 37 -72 85 0 80 53 159
135 203 38 21 54 22 380 25 l341 4 148 446 c159 477 167 494 234 505 33 5 101
-2 124 -14z"/>
<path d="M1680 1600 l0 -80 85 0 c79 0 85 -1 90 -22 22 -92 275 -1240 275
-1248 0 -6 -28 -10 -65 -10 l-65 0 0 -80 0 -80 560 0 560 0 0 80 0 80 -65 0
c-37 0 -65 4 -65 10 0 8 253 1156 275 1248 5 21 11 22 90 22 l85 0 0 80 0 80
-880 0 -880 0 0 -80z m1410 -90 c0 -8 -253 -1156 -275 -1247 l-5 -23 -250 0
-250 0 -5 23 c-22 91 -275 1239 -275 1247 0 7 179 10 530 10 351 0 530 -3 530
-10z"/>
</g>
</svg>
