<?xml version="1.0" standalone="no"?>
<!DOCTYPE svg PUBLIC "-//W3C//DTD SVG 20010904//EN"
 "http://www.w3.org/TR/2001/REC-SVG-20010904/DTD/svg10.dtd">
<svg version="1.0" xmlns="http://www.w3.org/2000/svg"
 width="512.000000pt" height="512.000000pt" viewBox="0 0 512.000000 512.000000"
 preserveAspectRatio="xMidYMid meet">
<metadata>
Created by potrace 1.16, written by Peter Selinger 2001-2019
</metadata>
<g transform="translate(0.000000,512.000000) scale(0.100000,-0.100000)"
fill="currentColor" stroke="none">
<path d="M950 5109 c-44 -18 -89 -59 -117 -107 -23 -39 -27 -58 -27 -117 0
-46 6 -81 17 -102 12 -22 17 -56 17 -105 0 -185 64 -563 140 -821 79 -271 182
-531 316 -794 l82 -161 -21 -19 c-12 -11 -64 -50 -115 -87 -110 -82 -155 -131
-172 -192 -15 -52 -8 -129 15 -173 8 -17 146 -205 305 -417 l290 -387 0 -573
0 -573 -437 -3 c-421 -3 -440 -4 -496 -25 -147 -55 -247 -185 -263 -343 -5
-47 -3 -59 16 -83 l22 -27 1405 2 1406 3 20 28 c20 25 20 32 9 99 -31 180
-163 312 -339 338 -37 5 -247 10 -466 10 l-397 0 2 631 3 632 27 20 27 20 113
-109 c413 -399 940 -736 1410 -899 55 -19 113 -46 129 -59 51 -43 92 -51 269
-51 179 0 204 6 268 60 18 15 43 46 55 69 l22 41 3 1559 2 1560 46 43 c69 67
99 139 98 238 0 97 -32 172 -96 230 -67 61 -119 80 -223 80 -75 0 -97 -4 -134
-23 -80 -43 -455 -331 -474 -365 -13 -23 -17 -47 -15 -88 4 -55 8 -62 117
-208 63 -84 124 -160 138 -171 32 -25 95 -34 138 -20 20 7 81 45 136 86 54 41
101 74 104 74 3 0 5 -664 5 -1475 l0 -1476 -25 -24 c-41 -42 -50 -33 -50 48 0
51 -6 82 -19 106 -23 42 -2975 3992 -3020 4040 -46 49 -99 71 -176 70 -36 0
-76 -5 -90 -10z m152 -176 c14 -16 573 -761 1244 -1658 670 -896 1339 -1791
1486 -1988 178 -238 268 -366 268 -382 0 -66 -88 -102 -135 -54 -12 13 -573
760 -1245 1659 -672 899 -1234 1647 -1248 1663 -65 69 -175 -2 -131 -86 7 -11
480 -647 1052 -1411 1417 -1894 1272 -1697 1234 -1684 -68 24 -359 178 -493
262 -430 269 -845 650 -1191 1093 -89 115 -311 441 -362 533 -110 199 -148
272 -200 381 -190 404 -305 787 -366 1219 l-6 44 67 -89 c38 -50 75 -95 83
-102 19 -15 66 -17 91 -3 25 13 41 65 30 95 -5 14 -78 116 -162 227 -126 169
-152 209 -152 237 0 69 87 96 136 44z m3308 -573 c35 -25 69 -89 70 -131 0
-63 -38 -104 -239 -254 -107 -80 -197 -145 -201 -145 -5 0 -30 32 -163 211
l-28 38 180 135 c240 180 235 178 297 173 32 -2 63 -12 84 -27z m-2809 -1816
c104 -157 252 -352 366 -483 54 -63 106 -124 116 -137 l18 -23 -114 -85 c-109
-82 -134 -94 -172 -80 -22 9 -587 762 -593 790 -7 37 15 61 130 148 l112 84
32 -53 c18 -29 65 -102 105 -161z m399 -1494 l0 -570 -80 0 -80 0 0 545 0 545
33 0 c27 0 52 10 125 49 1 0 2 -255 2 -569z m1055 -753 c58 -26 135 -107 135
-142 0 -3 -569 -5 -1265 -5 -950 0 -1265 3 -1265 12 0 13 46 76 70 96 28 23
75 46 110 53 19 4 517 6 1105 5 1007 -1 1072 -2 1110 -19z"/>
</g>
</svg>
