<?xml version="1.0" standalone="no"?><!DOCTYPE svg PUBLIC "-//W3C//DTD SVG 1.1//EN" "http://www.w3.org/Graphics/SVG/1.1/DTD/svg11.dtd"><svg t="1644262344048" class="icon" viewBox="0 0 1024 1024" version="1.1" xmlns="http://www.w3.org/2000/svg" p-id="15070" xmlns:xlink="http://www.w3.org/1999/xlink" width="200" fill="currentColor" height="200"><defs><style type="text/css"></style></defs><path d="M511.943935 460.079168A135.913487 135.913487 0 1 0 376.134916 324.061212a136.059743 136.059743 0 0 0 135.809019 136.017956z m0-209.145889a73.232402 73.232402 0 1 1-73.127934 73.127933 73.127933 73.127933 0 0 1 73.127934-73.127933zM480.603392 532.789227v83.57478a31.340543 31.340543 0 0 0 62.681085 0v-83.57478a31.340543 31.340543 0 0 0-62.681085 0z m31.340543-386.742298A31.340543 31.340543 0 0 0 543.284477 114.915323v-83.57478a31.340543 31.340543 0 0 0-62.681085 0v83.57478a31.340543 31.340543 0 0 0 31.340543 31.131606zM219.432202 355.401755h83.574781a31.340543 31.340543 0 1 0 0-62.472149h-83.574781a31.340543 31.340543 0 1 0 0 62.472149zM689.540343 324.061212a31.340543 31.340543 0 0 0 31.340543 31.340543h83.574781a31.340543 31.340543 0 1 0 0-62.472149h-83.574781A31.340543 31.340543 0 0 0 689.540343 324.061212zM318.092231 173.208733a30.8182 30.8182 0 0 0 44.315527 0 31.54948 31.54948 0 0 0 0-44.503571l-59.08737-59.755968a31.173393 31.173393 0 0 0-44.315527 0 31.800204 31.800204 0 0 0 0 44.712508z m343.38788 301.078147a31.800204 31.800204 0 0 0 0 44.712508l59.08737 59.547031a31.340543 31.340543 0 0 0 44.315527 0 31.800204 31.800204 0 0 0 0-44.712508l-59.08737-59.547031a31.173393 31.173393 0 0 0-44.315527 0z m22.16821-270.782289a30.839094 30.839094 0 0 0 22.147317-9.402163l59.08737-59.547031a31.800204 31.800204 0 0 0 0-44.712508 31.173393 31.173393 0 0 0-44.315527 0l-59.08737 59.755968a31.54948 31.54948 0 0 0 0 44.503571 30.880881 30.880881 0 0 0 22.16821 9.402163z m-365.639665 270.782289L258.921286 533.833911a31.800204 31.800204 0 0 0 0 44.712508 31.340543 31.340543 0 0 0 44.315528 0l59.087369-59.547031a31.800204 31.800204 0 0 0 0-44.712508 31.173393 31.173393 0 0 0-44.231952 0z m-203.128504 256.992451c15.941889 0 22.042848 7.103856 37.796694 35.728218 15.189716 27.370741 38.151887 68.949194 94.523077 68.949195s79.396042-41.578453 94.543971-68.949195c15.753846-28.624362 21.854805-35.728219 37.796694-35.728218s22.042848 7.103856 37.796695 35.728218c15.189716 27.370741 38.151887 68.949194 94.523077 68.949195s79.396042-41.578453 94.523077-68.949195c15.753846-28.624362 21.854805-35.728219 37.796694-35.728218s22.042848 7.103856 37.796695 35.728218c15.189716 27.370741 38.172781 68.949194 94.54397 68.949195s79.396042-41.578453 94.523077-68.949195c15.753846-28.624362 21.854805-35.728219 37.796695-35.728218a31.340543 31.340543 0 0 0 0-62.681086c-54.992206 0-77.640971 40.951643-92.621751 67.90451s-21.833911 36.563967-39.698021 36.563966-24.717241-9.402163-39.69802-36.563966-37.608651-67.904509-92.621751-67.90451-77.640971 40.951643-92.621751 67.90451-21.833911 36.563967-39.698021 36.563966-24.696348-9.402163-39.69802-36.563966-37.608651-67.904509-92.621751-67.90451-77.640971 40.951643-92.621751 67.90451-21.854805 36.563967-39.69802 36.563966-24.696348-9.402163-39.698021-36.563966-37.608651-67.904509-92.621751-67.90451a31.340543 31.340543 0 0 0 0.041787 62.681086z m793.960416 125.571108c-54.992206 0-77.640971 40.742706-92.621751 67.904509S794.384906 961.318915 776.520796 961.318915s-24.717241-9.402163-39.69802-36.563967S699.214124 856.850439 644.201025 856.850439s-77.640971 40.742706-92.621751 67.904509-21.833911 36.563967-39.698021 36.563967-24.696348-9.402163-39.69802-36.563967-37.608651-67.904509-92.621751-67.904509-77.640971 40.742706-92.621751 67.904509S265.084926 961.318915 247.241711 961.318915s-24.696348-9.402163-39.698021-36.563967S169.935038 856.850439 114.921939 856.850439a31.340543 31.340543 0 0 0 0 62.681085c15.941889 0 22.042848 7.103856 37.796695 35.728219C167.90835 982.630484 190.870521 1024 247.241711 1024s79.396042-41.369516 94.54397-68.740257c15.753846-28.624362 21.854805-35.728219 37.796695-35.728219s22.042848 7.103856 37.796694 35.728219C432.568787 982.630484 455.530958 1024 511.902147 1024s79.396042-41.369516 94.523077-68.740257c15.753846-28.624362 21.854805-35.728219 37.796695-35.728219s22.042848 7.103856 37.796694 35.728219c15.189716 27.370741 38.172781 68.740257 94.543971 68.740257s79.396042-41.369516 94.523077-68.740257c15.753846-28.624362 21.854805-35.728219 37.796694-35.728219a31.340543 31.340543 0 0 0 0.041788-62.681085z" p-id="15071"></path></svg>