<?xml version="1.0" standalone="no"?>
<!DOCTYPE svg PUBLIC "-//W3C//DTD SVG 20010904//EN"
 "http://www.w3.org/TR/2001/REC-SVG-20010904/DTD/svg10.dtd">
<svg version="1.0" xmlns="http://www.w3.org/2000/svg"
 width="512.000000pt" height="512.000000pt" viewBox="0 0 512.000000 512.000000"
 preserveAspectRatio="xMidYMid meet">
<metadata>
Created by potrace 1.16, written by Peter Selinger 2001-2019
</metadata>
<g transform="translate(0.000000,512.000000) scale(0.100000,-0.100000)"
fill="currentColor" stroke="none">
<path d="M570 5099 c-20 -11 -47 -37 -60 -56 l-25 -37 -3 -528 -3 -528 25 -25
c33 -33 79 -33 111 0 l25 24 0 499 c0 374 3 501 12 510 16 16 2139 18 2169 2
19 -11 19 -37 19 -1395 l0 -1385 -668 0 c-770 0 -729 4 -823 -89 -88 -88 -89
-96 -89 -477 0 -299 2 -327 20 -377 25 -66 88 -132 160 -166 l55 -26 673 -3
673 -3 -3 -122 -3 -122 -1095 0 -1095 0 -5 1438 -5 1439 -24 19 c-33 27 -77
24 -107 -6 l-24 -24 2 -1774 3 -1773 25 -37 c13 -20 41 -45 61 -56 36 -21 49
-21 812 -21 l776 0 20 26 c27 34 27 64 0 98 l-20 26 -748 0 c-568 0 -750 3
-759 12 -9 9 -12 76 -12 240 l0 228 1100 0 1100 0 0 -230 c0 -216 -1 -230 -19
-240 -12 -6 -96 -10 -205 -10 -173 0 -187 -1 -206 -20 -27 -27 -27 -83 0 -110
19 -19 33 -20 240 -20 242 0 255 3 303 60 15 17 31 47 37 68 6 23 10 204 10
474 l0 437 698 3 c644 3 701 5 744 21 66 26 132 88 165 155 l28 57 0 340 c0
331 -1 341 -22 385 -34 68 -75 112 -134 145 l-54 30 -712 3 -713 3 0 1387 c0
923 -4 1399 -10 1424 -6 21 -22 51 -37 68 -53 64 28 60 -1215 60 -1123 0
-1133 -1 -1168 -21z m3830 -3098 c21 -11 44 -36 58 -62 23 -43 23 -47 20 -339
-3 -291 -3 -295 -26 -328 -13 -18 -38 -40 -55 -50 -30 -16 -123 -17 -1454 -17
l-1422 0 -28 21 c-15 11 -38 36 -50 54 -23 32 -23 38 -23 334 0 283 1 303 20
334 11 18 34 41 52 52 33 20 54 20 1453 20 1364 0 1422 -1 1455 -19z"/>
<path d="M1787 1856 c-97 -36 -157 -117 -165 -225 -6 -86 22 -155 84 -210 50
-44 100 -61 180 -61 72 0 129 26 179 82 49 54 65 95 65 170 -1 103 -49 186
-135 230 -51 27 -156 34 -208 14z m154 -175 c21 -22 29 -39 29 -66 0 -51 -44
-95 -95 -95 -47 0 -95 45 -95 87 1 89 100 135 161 74z"/>
<path d="M1013 4655 c-18 -8 -42 -29 -53 -47 -20 -33 -20 -48 -20 -1053 0
-796 3 -1025 13 -1045 7 -13 28 -35 46 -47 l34 -23 706 0 c683 0 707 1 738 20
67 40 63 -27 63 1097 0 1003 0 1018 -20 1051 -39 64 -18 62 -782 62 -572 -1
-699 -3 -725 -15z m1367 -1100 l0 -955 -640 0 -640 0 0 955 0 955 640 0 640 0
0 -955z"/>
<path d="M1417 4293 c-15 -2 -43 -20 -62 -38 -42 -43 -48 -77 -43 -268 3 -128
5 -149 24 -174 45 -61 58 -63 402 -63 347 0 366 3 402 62 18 30 20 50 20 211
0 284 19 272 -405 273 -170 1 -323 0 -338 -3z m583 -268 l0 -115 -265 0 -265
0 0 115 0 115 265 0 265 0 0 -115z"/>
<path d="M1335 3550 c-26 -29 -25 -85 3 -113 17 -16 34 -22 67 -22 57 0 89 29
89 79 0 53 -27 76 -89 76 -40 0 -56 -5 -70 -20z"/>
<path d="M1670 3550 c-24 -24 -26 -76 -5 -107 29 -41 132 -36 155 7 17 32 11
75 -13 98 -31 30 -108 31 -137 2z"/>
<path d="M2001 3544 c-28 -35 -26 -67 3 -101 20 -23 32 -28 69 -28 59 0 87 24
87 77 0 55 -27 78 -89 78 -42 0 -53 -4 -70 -26z"/>
<path d="M1339 3251 c-34 -27 -32 -86 5 -117 40 -35 89 -32 128 6 25 26 29 36
24 63 -3 18 -16 40 -27 50 -29 23 -100 23 -130 -2z"/>
<path d="M1672 3247 c-27 -29 -28 -77 -3 -108 16 -20 29 -24 71 -24 42 0 55 4
71 24 25 30 24 72 -2 105 -28 36 -105 38 -137 3z"/>
<path d="M2005 3245 c-76 -75 44 -181 129 -114 33 26 37 88 6 119 -30 30 -103
28 -135 -5z"/>
<path d="M1349 2960 c-28 -17 -43 -66 -30 -99 28 -67 143 -68 171 -1 14 34 4
76 -23 95 -24 17 -93 19 -118 5z"/>
<path d="M1672 2947 c-30 -32 -29 -81 3 -112 53 -54 155 -18 155 55 0 47 -38
80 -93 80 -33 0 -49 -6 -65 -23z"/>
<path d="M2003 2944 c-21 -21 -24 -32 -20 -62 8 -47 26 -63 78 -69 62 -7 99
23 99 78 0 54 -27 79 -85 79 -36 0 -52 -6 -72 -26z"/>
</g>
</svg>
