<?xml version="1.0" standalone="no"?>
<!DOCTYPE svg PUBLIC "-//W3C//DTD SVG 20010904//EN"
 "http://www.w3.org/TR/2001/REC-SVG-20010904/DTD/svg10.dtd">
<svg version="1.0" xmlns="http://www.w3.org/2000/svg"
 width="512.000000pt" height="512.000000pt" viewBox="0 0 512.000000 512.000000"
 preserveAspectRatio="xMidYMid meet">
<metadata>
Created by potrace 1.16, written by Peter Selinger 2001-2019
</metadata>
<g transform="translate(0.000000,512.000000) scale(0.100000,-0.100000)"
fill="currentColor" stroke="none">
<path d="M2148 4986 c-25 -7 -57 -20 -70 -29 -12 -9 -223 -157 -467 -329 -422
-297 -445 -316 -475 -368 l-31 -55 -3 -627 -3 -626 -37 -7 c-21 -3 -54 -16
-75 -28 -31 -18 -759 -527 -891 -622 -25 -19 -52 -51 -68 -84 l-28 -55 0 -918
c0 -996 -3 -947 54 -1021 14 -19 50 -47 78 -63 l53 -29 965 0 965 0 52 27 52
28 52 -28 53 -27 956 0 c783 0 962 2 995 14 32 11 121 94 423 395 249 248 389
395 402 422 19 39 20 65 20 921 l0 881 -28 53 c-30 59 -95 111 -160 129 -23 6
-203 10 -459 10 -233 0 -423 2 -423 4 0 3 10 22 23 43 l22 38 0 890 0 890 -22
41 c-12 22 -39 56 -59 74 -79 69 -18 65 -964 67 -664 1 -865 -1 -902 -11z
m652 -170 c0 -2 -119 -97 -265 -210 l-264 -206 -328 2 -327 3 284 200 c156
110 291 203 300 207 16 7 600 11 600 4z m950 -20 c-14 -13 -126 -113 -250
-221 -198 -173 -228 -195 -250 -189 -14 4 -171 10 -349 13 l-324 6 264 207
264 206 335 1 335 1 -25 -24z m170 -908 l0 -802 -247 -248 -248 -249 -6 808
c-3 445 -8 818 -10 829 -3 17 44 64 246 242 138 121 253 221 258 221 4 1 7
-360 7 -801z m-713 308 l28 -24 0 -887 0 -887 -28 -24 -28 -24 -912 0 c-714 0
-917 3 -937 13 -14 7 -30 28 -37 47 -9 26 -12 252 -12 878 -1 896 -1 894 46
921 12 7 301 10 935 11 l917 0 28 -24z m-2094 -1833 c7 -10 -57 -13 -305 -13
-298 0 -311 1 -288 17 14 10 149 104 300 211 l275 193 5 -198 c3 -109 9 -204
13 -210z m3436 186 c-213 -186 -255 -219 -273 -213 -12 5 -203 10 -426 11
l-404 4 209 209 210 210 468 0 468 0 -252 -221z m141 -1764 l-250 -250 0 800
c0 440 -4 814 -9 830 -8 30 -4 33 248 254 l256 224 3 -804 2 -804 -250 -250z
m-2586 1354 l26 -31 -2 -879 -3 -878 -23 -23 -23 -23 -907 -3 c-499 -1 -917 0
-930 3 -12 3 -31 14 -42 25 -20 20 -20 37 -20 905 l0 886 25 24 24 25 925 0
924 0 26 -31z m2131 6 l25 -24 0 -880 0 -880 -24 -28 -24 -28 -927 0 -927 0
-24 28 -24 28 0 880 0 880 25 24 24 25 926 0 926 0 24 -25z"/>
<path d="M1529 3007 c-18 -12 -44 -38 -56 -56 -21 -31 -23 -45 -23 -173 0
-160 13 -199 77 -239 36 -23 48 -24 239 -27 218 -4 264 3 313 44 50 42 63 94
59 236 -3 115 -5 128 -30 165 -45 68 -65 73 -321 73 -216 0 -225 -1 -258 -23z
m431 -237 l0 -80 -165 0 -165 0 0 80 0 80 165 0 165 0 0 -80z"/>
<path d="M2670 3012 c-13 -10 -23 -33 -27 -58 -4 -33 -1 -45 20 -70 l25 -29
143 -4 c172 -4 213 5 236 53 19 40 12 77 -19 106 -20 18 -35 20 -189 20 -144
0 -170 -2 -189 -18z"/>
<path d="M2682 2683 c-18 -7 -42 -57 -42 -87 0 -14 11 -38 24 -53 l24 -28 152
-3 c170 -4 202 3 226 50 18 36 12 73 -18 106 -21 21 -28 22 -187 21 -91 0
-172 -3 -179 -6z"/>
<path d="M457 975 c-22 -7 -50 -24 -64 -37 -47 -44 -53 -68 -53 -216 0 -128 2
-142 23 -173 54 -81 106 -93 370 -87 171 3 175 4 216 31 66 44 81 87 81 232 0
164 -25 218 -117 251 -54 19 -403 19 -456 -1z m393 -250 l0 -85 -165 0 -165 0
0 85 0 85 165 0 165 0 0 -85z"/>
<path d="M1581 972 c-56 -28 -66 -97 -21 -142 18 -18 34 -20 190 -20 156 0
172 2 190 20 46 46 32 122 -26 146 -52 22 -289 19 -333 -4z"/>
<path d="M1563 625 c-50 -35 -37 -126 22 -150 47 -20 282 -21 329 -1 58 24 72
100 26 146 -18 18 -34 20 -188 20 -134 0 -172 -3 -189 -15z"/>
<path d="M2587 975 c-22 -7 -49 -23 -62 -35 -46 -43 -55 -79 -55 -217 0 -114
3 -132 23 -167 47 -84 88 -96 322 -96 225 0 265 11 319 84 18 24 21 45 24 159
2 77 -1 147 -7 169 -14 44 -67 93 -118 107 -57 16 -399 13 -446 -4z m393 -250
l0 -85 -165 0 -165 0 0 85 0 85 165 0 165 0 0 -85z"/>
<path d="M3714 976 c-54 -24 -65 -95 -21 -143 20 -22 27 -23 189 -23 166 0
169 0 193 25 33 32 33 84 1 122 l-24 28 -154 2 c-114 2 -161 -1 -184 -11z"/>
<path d="M3691 616 c-33 -35 -31 -90 3 -125 26 -26 27 -26 192 -26 l166 0 24
28 c32 38 32 90 -1 122 -24 25 -27 25 -193 25 -165 0 -169 0 -191 -24z"/>
</g>
</svg>
