<?xml version="1.0" standalone="no"?>
<!DOCTYPE svg PUBLIC "-//W3C//DTD SVG 20010904//EN"
 "http://www.w3.org/TR/2001/REC-SVG-20010904/DTD/svg10.dtd">
<svg version="1.0" xmlns="http://www.w3.org/2000/svg"
 width="512.000000pt" height="512.000000pt" viewBox="0 0 512.000000 512.000000"
 preserveAspectRatio="xMidYMid meet">
<metadata>
Created by potrace 1.16, written by Peter Selinger 2001-2019
</metadata>
<g transform="translate(0.000000,512.000000) scale(0.100000,-0.100000)"
fill="currentColor" stroke="none">
<path d="M348 4701 c-158 -51 -280 -173 -328 -329 -20 -63 -20 -96 -20 -1352
0 -1252 1 -1290 20 -1351 48 -157 172 -281 328 -329 62 -19 94 -20 923 -20
l859 0 0 -290 0 -290 -219 0 -218 0 -27 -26 c-37 -38 -37 -110 0 -148 l27 -26
867 0 867 0 27 26 c37 38 37 110 0 148 l-27 26 -223 0 -224 0 0 290 0 290 249
0 248 0 179 -312 c171 -299 183 -316 269 -403 74 -75 105 -98 175 -132 113
-55 193 -73 320 -73 127 0 207 18 320 73 121 59 248 186 307 307 55 112 73
193 73 319 0 127 -20 216 -70 316 l-39 78 35 57 c19 32 44 86 55 120 18 60 19
105 19 1350 0 1256 0 1289 -20 1352 -48 156 -172 280 -329 328 -62 20 -104 20
-2215 19 -2053 0 -2154 -1 -2208 -18z m4304 -191 c32 -5 75 -17 95 -27 49 -23
113 -87 138 -138 20 -39 20 -65 20 -1327 0 -910 -3 -1290 -11 -1298 -8 -8 -39
39 -112 166 l-102 177 0 1092 0 1092 -26 27 -27 26 -832 0 -832 0 -27 -26
c-37 -38 -37 -110 0 -148 l27 -26 753 0 754 0 0 -837 0 -838 -80 140 c-85 149
-121 189 -184 206 -78 21 -102 10 -557 -252 -239 -138 -454 -264 -480 -280
-87 -55 -118 -166 -72 -258 l20 -41 -1238 0 -1239 0 0 1080 0 1080 759 0 758
0 27 26 c37 38 37 110 0 148 l-27 26 -832 0 -832 0 -27 -26 -26 -27 0 -1227 0
-1227 26 -27 27 -26 1371 0 1371 0 62 -108 62 -107 -1412 -3 c-852 -1 -1437 1
-1474 7 -79 12 -128 36 -178 86 -50 50 -74 99 -86 178 -6 38 -9 535 -7 1272 3
1143 4 1213 21 1257 37 96 130 170 235 188 68 11 4124 12 4194 0z m-150 -2565
c190 -330 354 -616 363 -635 46 -90 59 -240 29 -341 -64 -216 -252 -359 -473
-359 -92 0 -159 17 -240 60 -116 62 -142 100 -531 775 -197 341 -357 621 -356
622 12 14 853 490 857 485 3 -4 161 -277 351 -607z m-1732 -915 l0 -290 -215
0 -215 0 0 290 0 290 215 0 215 0 0 -290z"/>
<path d="M2486 4274 c-21 -21 -26 -36 -26 -74 0 -38 5 -53 26 -74 21 -21 36
-26 74 -26 38 0 53 5 74 26 21 21 26 36 26 74 0 38 -5 53 -26 74 -21 21 -36
26 -74 26 -38 0 -53 -5 -74 -26z"/>
<path d="M3450 3564 c-76 -9 -188 -38 -257 -65 -233 -92 -435 -292 -528 -521
-18 -46 -37 -100 -40 -121 -14 -73 32 -127 107 -127 49 0 83 34 107 110 64
196 215 364 405 450 124 57 272 79 391 60 39 -6 87 -14 107 -17 102 -16 167
89 103 165 -20 24 -41 34 -94 46 -71 16 -240 27 -301 20z"/>
<path d="M3390 3078 c-128 -45 -223 -126 -281 -240 -52 -103 -51 -175 4 -208
71 -44 138 -11 172 84 21 57 81 122 140 151 33 16 61 20 154 20 l113 1 29 32
c32 36 37 77 15 121 -22 42 -60 54 -176 58 -89 3 -115 0 -170 -19z"/>
<path d="M4000 2243 c-44 -23 -62 -57 -56 -108 7 -55 43 -85 102 -85 34 0 51
6 69 24 85 85 -9 223 -115 169z"/>
<path d="M3660 2047 c-43 -15 -75 -71 -65 -116 17 -81 118 -110 176 -52 40 40
41 106 3 145 -15 14 -32 26 -40 26 -7 0 -18 2 -26 4 -7 3 -29 0 -48 -7z"/>
<path d="M4174 1876 c-71 -71 -24 -176 77 -176 46 0 99 56 99 105 0 29 -8 45
-34 71 -26 26 -42 34 -71 34 -29 0 -45 -8 -71 -34z"/>
<path d="M3850 1697 c-14 -7 -33 -29 -43 -50 -16 -31 -17 -42 -7 -72 18 -53
55 -78 110 -72 58 7 90 42 90 98 0 51 -13 75 -50 94 -35 18 -67 19 -100 2z"/>
<path d="M4363 1400 c-97 -20 -168 -74 -212 -162 -27 -52 -31 -72 -31 -137 0
-127 54 -217 162 -270 52 -27 72 -31 138 -31 66 0 86 4 138 31 34 16 73 45 88
62 121 143 94 367 -55 461 -67 42 -157 60 -228 46z m92 -214 c93 -39 66 -176
-35 -176 -98 0 -127 136 -37 175 40 18 32 17 72 1z"/>
</g>
</svg>
