<?xml version="1.0" standalone="no"?>
<!DOCTYPE svg PUBLIC "-//W3C//DTD SVG 20010904//EN"
 "http://www.w3.org/TR/2001/REC-SVG-20010904/DTD/svg10.dtd">
<svg version="1.0" xmlns="http://www.w3.org/2000/svg"
 width="512.000000pt" height="512.000000pt" viewBox="0 0 512.000000 512.000000"
 preserveAspectRatio="xMidYMid meet">
<metadata>
Created by potrace 1.16, written by Peter Selinger 2001-2019
</metadata>
<g transform="translate(0.000000,512.000000) scale(0.100000,-0.100000)"
fill="currentColor" stroke="none">
<path d="M1472 4927 c-21 -22 -22 -33 -22 -191 0 -164 0 -167 25 -191 32 -33
84 -33 122 -1 l28 24 0 165 c0 161 -1 166 -24 191 -33 35 -98 36 -129 3z"/>
<path d="M689 4601 c-20 -20 -29 -39 -29 -62 0 -28 16 -49 117 -151 109 -110
120 -118 155 -118 54 0 88 35 88 90 0 38 -6 48 -97 142 -135 138 -177 156
-234 99z"/>
<path d="M2168 4512 c-109 -109 -118 -121 -118 -155 0 -53 35 -87 90 -87 38 0
48 6 142 98 105 102 128 134 128 177 0 39 -50 85 -91 85 -29 0 -48 -15 -151
-118z"/>
<path d="M1364 4421 c-307 -83 -514 -351 -514 -666 0 -266 146 -501 384 -616
111 -54 204 -73 335 -67 285 13 521 188 619 460 23 66 26 87 27 218 0 133 -2
152 -28 226 -70 203 -227 360 -432 430 -109 37 -284 44 -391 15z m290 -176
c96 -25 167 -66 236 -135 202 -202 202 -510 1 -710 -100 -99 -218 -150 -351
-150 -326 0 -576 314 -495 625 70 268 349 438 609 370z"/>
<path d="M362 3817 c-32 -34 -30 -96 4 -128 25 -23 30 -24 189 -24 159 0 164
1 189 24 33 31 35 87 5 125 l-20 26 -173 0 c-167 0 -173 -1 -194 -23z"/>
<path d="M2325 3815 c-33 -32 -33 -84 -1 -122 l24 -28 166 0 c165 0 166 0 192
26 34 35 36 90 3 125 -22 24 -26 24 -191 24 -166 0 -169 0 -193 -25z"/>
<path d="M4602 3277 c-67 -72 -110 -158 -126 -257 l-6 -35 -117 0 c-103 0
-125 -3 -171 -24 -94 -42 -119 -106 -63 -162 35 -35 71 -37 132 -9 80 36 177
24 253 -31 53 -38 107 -39 143 -3 23 23 25 30 18 77 -5 29 -8 81 -9 117 0 77
30 151 88 215 28 31 36 48 36 78 0 52 -35 87 -88 87 -34 0 -45 -7 -90 -53z"/>
<path d="M3864 3224 c-152 -102 -287 -333 -309 -530 -12 -113 -4 -108 -88 -69
-163 75 -350 85 -544 29 -108 -31 -145 -104 -84 -165 35 -34 55 -36 141 -8
241 76 501 -11 615 -206 40 -68 99 -80 153 -32 28 26 29 71 1 157 -28 86 -30
238 -4 330 33 119 91 217 180 305 45 44 84 90 88 103 9 35 -12 81 -44 97 -40
21 -61 19 -105 -11z"/>
<path d="M778 3122 c-103 -103 -118 -122 -118 -151 0 -41 46 -91 85 -91 43 0
75 23 178 128 91 94 97 104 97 142 0 55 -34 90 -87 90 -34 0 -46 -9 -155 -118z"/>
<path d="M2076 3214 c-18 -19 -26 -37 -26 -62 0 -33 11 -48 118 -154 91 -91
124 -118 144 -118 79 0 120 68 84 138 -8 15 -59 71 -114 125 -93 89 -104 97
-140 97 -29 0 -46 -7 -66 -26z"/>
<path d="M1475 2965 c-25 -24 -25 -27 -25 -193 0 -163 1 -169 23 -190 34 -32
96 -30 128 4 23 25 24 30 24 191 l0 165 -28 24 c-38 32 -90 32 -122 -1z"/>
<path d="M26 1859 c-20 -16 -26 -29 -26 -59 0 -21 3 -46 6 -55 10 -24 58 -45
106 -45 71 -1 125 -18 253 -81 147 -72 245 -94 375 -86 123 8 182 25 297 84
143 73 195 87 314 81 96 -5 101 -6 236 -71 76 -36 158 -72 183 -78 25 -7 101
-13 170 -13 148 0 196 12 344 86 123 62 179 78 277 78 93 0 156 -18 279 -80
141 -72 193 -84 340 -84 69 0 145 6 170 13 25 6 107 42 182 78 130 62 143 66
226 71 117 6 176 -8 307 -73 131 -66 190 -83 310 -91 140 -9 235 12 380 85
125 63 180 80 253 81 48 0 96 21 106 45 3 9 6 34 6 55 0 56 -34 80 -114 80
-102 0 -188 -25 -320 -90 -214 -107 -327 -107 -540 -1 -158 79 -226 95 -381
88 -137 -6 -146 -8 -317 -89 -220 -104 -329 -104 -539 1 -155 78 -233 95 -388
88 -132 -6 -174 -18 -329 -96 -191 -96 -305 -94 -520 7 -170 81 -180 83 -313
89 -156 7 -235 -10 -387 -88 -209 -106 -326 -106 -539 1 -131 65 -218 90 -319
90 -47 0 -67 -5 -88 -21z"/>
<path d="M26 1177 c-20 -20 -26 -36 -26 -67 0 -55 34 -90 88 -90 79 0 150 -21
271 -81 142 -69 217 -89 347 -89 120 0 214 25 350 93 211 105 324 105 539 -3
136 -69 217 -90 345 -90 126 0 209 22 345 89 126 62 192 81 278 81 82 -1 133
-16 267 -80 142 -68 225 -90 350 -90 127 0 208 22 345 91 212 106 321 106 543
1 180 -85 187 -87 347 -87 162 0 185 6 355 89 113 55 185 76 262 76 54 0 88
35 88 90 0 31 -6 47 -26 67 -25 25 -29 26 -112 20 -112 -8 -173 -27 -303 -93
-127 -64 -185 -78 -301 -72 -83 5 -96 9 -226 71 -163 78 -188 86 -312 93 -142
9 -236 -12 -385 -86 -135 -67 -179 -79 -281 -80 -87 0 -152 19 -274 80 -124
62 -184 79 -300 87 -136 8 -236 -14 -371 -82 -132 -67 -193 -85 -284 -85 -96
0 -163 19 -291 84 -138 70 -235 91 -374 83 -117 -8 -176 -25 -305 -90 -121
-61 -178 -77 -270 -77 -98 1 -145 14 -265 74 -129 66 -190 85 -302 93 -83 6
-87 5 -112 -20z"/>
<path d="M45 509 c-33 -19 -45 -41 -45 -84 0 -61 27 -81 118 -89 88 -9 118
-19 253 -85 135 -66 197 -81 334 -81 141 0 199 15 350 90 211 105 322 104 537
-1 146 -72 211 -89 348 -89 138 0 205 17 353 90 212 104 322 104 533 0 152
-75 210 -90 346 -90 145 0 190 11 349 86 229 109 331 110 544 4 151 -75 209
-90 350 -90 141 0 199 15 353 91 108 53 134 62 216 72 111 14 136 30 136 88 0
52 -8 67 -42 85 -24 12 -46 14 -102 9 -108 -11 -165 -29 -301 -97 -124 -61
-125 -61 -228 -66 -125 -5 -176 7 -315 78 -130 66 -201 84 -337 83 -144 -1
-183 -11 -349 -91 -139 -66 -141 -66 -238 -70 -123 -5 -163 5 -313 78 -145 70
-198 84 -335 84 -136 0 -189 -13 -337 -85 -153 -73 -189 -82 -311 -77 -97 4
-100 4 -238 70 -163 78 -215 91 -349 92 -134 1 -209 -18 -331 -80 -145 -75
-195 -87 -321 -82 -103 5 -104 5 -228 66 -69 34 -149 68 -178 76 -79 21 -198
29 -222 15z"/>
</g>
</svg>
