<?xml version="1.0" standalone="no"?>
<!DOCTYPE svg PUBLIC "-//W3C//DTD SVG 20010904//EN"
 "http://www.w3.org/TR/2001/REC-SVG-20010904/DTD/svg10.dtd">
<svg version="1.0" xmlns="http://www.w3.org/2000/svg"
 width="512.000000pt" height="512.000000pt" viewBox="0 0 512.000000 512.000000"
 preserveAspectRatio="xMidYMid meet">

<g transform="translate(0.000000,512.000000) scale(0.100000,-0.100000)"
fill="currentColor" stroke="none">
<path d="M2100 4889 c-239 -37 -448 -74 -464 -81 -44 -18 -104 -75 -128 -122
-32 -63 -26 -119 36 -341 l56 -200 0 -231 0 -231 -80 -5 c-99 -6 -159 -39
-204 -112 -26 -41 -30 -60 -34 -137 -8 -165 15 -202 213 -349 l130 -97 18 -64
c25 -87 96 -231 151 -307 l46 -62 0 -123 0 -122 -402 -134 c-222 -73 -440
-151 -485 -172 -104 -49 -193 -135 -245 -235 -68 -130 -68 -119 -68 -901 l0
-703 1920 0 1920 0 0 698 c0 663 -1 703 -20 776 -11 43 -32 101 -47 129 -39
71 -130 165 -200 207 -39 23 -207 84 -496 180 l-437 145 0 123 0 123 44 62
c57 81 121 208 149 298 l22 72 120 90 c158 118 173 133 201 192 19 41 24 66
23 135 0 47 -6 102 -13 123 -36 100 -122 157 -238 157 l-68 0 0 238 0 237 55
198 c60 216 66 277 36 342 -23 50 -74 99 -124 120 -33 14 -901 156 -937 154
-8 -1 -211 -32 -450 -70z m892 -154 c376 -57 435 -68 455 -87 13 -12 23 -33
23 -47 0 -14 -21 -101 -47 -193 l-47 -168 -816 0 -817 0 -52 181 c-50 172 -52
181 -36 205 9 14 22 27 30 30 12 5 831 140 863 143 7 1 207 -28 444 -64z m368
-735 l0 -80 -800 0 -800 0 0 80 0 80 800 0 800 0 0 -80z m-135 -297 c-74 -68
-152 -122 -242 -167 -257 -128 -579 -128 -843 2 -80 39 -203 128 -259 186
l-35 36 720 0 719 -1 -60 -56z m-1277 -241 c419 -268 961 -232 1340 88 l72 61
0 -238 c-1 -154 -5 -265 -14 -313 -33 -186 -112 -336 -251 -476 -108 -109
-220 -184 -329 -221 -72 -25 -95 -28 -206 -28 -181 0 -266 30 -430 155 -193
147 -316 343 -355 565 -10 62 -15 157 -15 322 l0 234 68 -57 c37 -32 91 -73
120 -92z m-348 -103 l0 -160 -62 47 c-95 71 -98 76 -98 156 0 60 3 72 25 93
20 21 34 25 80 25 l55 0 0 -161z m2055 136 c22 -21 25 -33 25 -93 0 -80 -3
-85 -97 -156 l-63 -47 0 160 0 161 55 0 c46 0 60 -4 80 -25z m-529 -1432 c-5
-13 -465 -247 -472 -240 -2 2 -7 83 -10 180 l-7 177 23 0 c90 0 273 76 390
163 l75 55 3 -161 c1 -89 0 -167 -2 -174z m-1007 244 c86 -59 211 -112 303
-128 l68 -12 0 -184 0 -183 -240 120 -240 120 0 171 c0 167 1 171 19 158 10
-8 51 -36 90 -62z m-4 -495 c151 -75 275 -139 275 -142 0 -3 -34 -27 -75 -54
l-75 -48 0 -624 0 -624 -320 0 -320 0 0 360 0 360 -80 0 -80 0 0 -360 0 -360
-320 0 -320 0 0 613 c0 650 1 661 49 755 29 56 97 124 153 153 23 12 221 81
438 154 l395 132 3 -89 3 -88 274 -138z m1994 34 c48 -25 115 -90 150 -144 61
-97 61 -95 61 -769 l0 -613 -320 0 -320 0 0 360 0 360 -80 0 -80 0 0 -360 0
-360 -560 0 -560 0 0 579 0 580 95 66 c63 44 214 125 440 237 l345 170 0 88 0
88 398 -132 c218 -73 412 -141 431 -150z"/>
<path d="M2880 1280 l0 -80 320 0 320 0 0 80 0 80 -320 0 -320 0 0 -80z"/>
<path d="M2560 1200 l0 -80 80 0 80 0 0 80 0 80 -80 0 -80 0 0 -80z"/>
<path d="M2560 880 l0 -80 80 0 80 0 0 80 0 80 -80 0 -80 0 0 -80z"/>
<path d="M2560 560 l0 -80 80 0 80 0 0 80 0 80 -80 0 -80 0 0 -80z"/>
</g>
</svg>
