<?xml version="1.0" standalone="no"?>
<!DOCTYPE svg PUBLIC "-//W3C//DTD SVG 20010904//EN"
 "http://www.w3.org/TR/2001/REC-SVG-20010904/DTD/svg10.dtd">
<svg version="1.0" xmlns="http://www.w3.org/2000/svg"
 width="512.000000pt" height="512.000000pt" viewBox="0 0 512.000000 512.000000"
 preserveAspectRatio="xMidYMid meet">
<metadata>
Created by potrace 1.16, written by Peter Selinger 2001-2019
</metadata>
<g transform="translate(0.000000,512.000000) scale(0.100000,-0.100000)"
fill="currentColor" stroke="none">
<path d="M420 4940 c-19 -19 -20 -33 -20 -270 0 -204 3 -258 16 -288 31 -76
120 -141 192 -142 l32 0 0 -1760 0 -1760 -220 0 c-207 0 -221 -1 -240 -20 -19
-19 -20 -33 -20 -260 0 -227 1 -241 20 -260 20 -20 33 -20 2380 -20 2347 0
2360 0 2380 20 19 19 20 33 20 260 0 227 -1 241 -20 260 -19 19 -33 20 -240
20 l-220 0 0 1760 0 1760 30 0 c71 0 156 61 191 135 17 36 19 68 19 293 0 239
-1 253 -20 272 -20 20 -33 20 -2140 20 -2107 0 -2120 0 -2140 -20z m4140 -295
c0 -180 -9 -216 -60 -234 -24 -8 -543 -11 -1942 -11 -2098 0 -1964 -4 -1987
60 -6 19 -11 98 -11 186 l0 154 2000 0 2000 0 0 -155z m-240 -2165 l0 -1760
-1760 0 -1760 0 0 1760 0 1760 1760 0 1760 0 0 -1760z m480 -2040 l0 -120
-2240 0 -2240 0 0 120 0 120 2240 0 2240 0 0 -120z"/>
<path d="M900 4140 c-20 -20 -20 -33 -20 -1660 0 -1627 0 -1640 20 -1660 20
-20 33 -20 1660 -20 1627 0 1640 0 1660 20 20 20 20 33 20 1660 0 1627 0 1640
-20 1660 -20 20 -33 20 -1660 20 -1627 0 -1640 0 -1660 -20z m1580 -820 l0
-680 -720 0 -720 0 0 680 0 680 720 0 720 0 0 -680z m1600 0 l0 -680 -720 0
-720 0 0 680 0 680 720 0 720 0 0 -680z m-1600 -1600 l0 -760 -720 0 -720 0 0
760 0 760 720 0 720 0 0 -760z m1600 0 l0 -760 -720 0 -720 0 0 760 0 760 720
0 720 0 0 -760z"/>
<path d="M1375 3660 l-160 -160 63 -62 62 -63 162 162 163 163 -60 60 c-33 33
-62 60 -65 60 -3 0 -77 -72 -165 -160z"/>
<path d="M1575 3460 l-360 -360 63 -62 62 -63 362 362 363 363 -60 60 c-33 33
-62 60 -65 60 -3 0 -167 -162 -365 -360z"/>
</g>
</svg>
