<?xml version="1.0" standalone="no"?>
<!DOCTYPE svg PUBLIC "-//W3C//DTD SVG 20010904//EN"
 "http://www.w3.org/TR/2001/REC-SVG-20010904/DTD/svg10.dtd">
<svg version="1.0" xmlns="http://www.w3.org/2000/svg"
 width="512.000000pt" height="512.000000pt" viewBox="0 0 512.000000 512.000000"
 preserveAspectRatio="xMidYMid meet">
<metadata>
Created by potrace 1.16, written by Peter Selinger 2001-2019
</metadata>
<g transform="translate(0.000000,512.000000) scale(0.100000,-0.100000)"
fill="currentColor" stroke="none">
<path d="M360 4974 c-79 -34 -119 -94 -127 -193 l-6 -67 -59 -11 c-70 -14
-120 -48 -148 -103 -18 -36 -20 -59 -20 -289 0 -152 4 -261 11 -278 24 -64
109 -122 180 -123 l36 0 5 -67 c8 -108 52 -175 134 -205 l34 -12 0 -1526 0
-1525 -52 -25 c-79 -38 -111 -95 -116 -208 -5 -108 10 -158 57 -189 l34 -23
2237 0 2237 0 34 23 c47 31 62 81 57 189 -5 113 -37 170 -116 208 l-52 25 0
672 0 672 -26 20 c-35 28 -67 26 -101 -3 l-28 -24 -3 -671 -2 -671 -175 0
-174 0 -3 977 -3 978 -28 89 c-107 342 -365 588 -712 678 -71 18 -118 21 -415
25 -332 5 -335 5 -362 -17 -35 -27 -39 -89 -8 -120 19 -19 33 -20 308 -20 375
0 457 -13 622 -96 212 -105 387 -337 429 -568 7 -40 11 -362 11 -993 l0 -933
-70 0 -69 0 -4 943 c-3 1051 2 975 -76 1132 -74 150 -211 269 -380 329 l-86
31 -805 0 -805 0 -86 -31 c-169 -60 -306 -179 -380 -329 -78 -157 -73 -81 -76
-1132 l-4 -943 -69 0 -70 0 0 933 c0 631 4 953 11 993 27 145 115 308 227 420
72 73 147 124 245 169 139 63 168 67 540 74 320 6 339 7 353 25 8 11 14 37 14
57 0 29 -6 42 -27 59 -28 22 -31 22 -363 17 -297 -4 -344 -7 -415 -25 -219
-57 -398 -170 -531 -337 -78 -96 -143 -220 -181 -341 l-28 -89 -3 -977 -3
-978 -174 0 -175 0 0 1530 0 1530 2000 0 2000 0 0 -699 c0 -720 2 -750 40
-771 30 -16 75 -11 98 10 l22 21 0 717 0 718 34 12 c82 30 126 97 134 205 l5
67 36 0 c71 1 156 59 180 123 7 17 11 126 11 278 0 230 -2 253 -20 289 -28 55
-78 89 -148 103 l-59 11 -6 67 c-6 75 -21 111 -64 151 -65 62 108 58 -2265 58
-1910 -1 -2167 -3 -2198 -16z m4354 -166 c9 -12 16 -39 16 -60 l0 -38 -2170 0
-2170 0 0 38 c0 21 7 48 16 60 l15 22 2139 0 2139 0 15 -22z m232 -272 c18
-13 19 -28 19 -224 0 -162 -3 -213 -14 -225 -12 -16 -192 -17 -2391 -17 -2199
0 -2379 1 -2391 17 -11 12 -14 63 -14 225 0 196 1 211 19 224 30 21 4742 21
4772 0z m-216 -669 c0 -24 -6 -52 -14 -63 -14 -19 -48 -19 -2156 -19 -2108 0
-2142 0 -2156 19 -8 11 -14 39 -14 63 l0 43 2170 0 2170 0 0 -43z m-1381
-1032 c173 -41 315 -172 373 -344 l23 -66 3 -927 3 -928 -89 0 -90 0 14 38
c18 51 17 139 -2 195 -24 69 -107 154 -171 173 -2 0 4 36 13 80 21 107 21 306
0 417 -30 156 -101 324 -199 465 -58 84 -92 107 -149 99 -72 -10 -86 -36 -108
-196 -6 -46 -23 -116 -38 -154 -22 -62 -27 -68 -33 -46 -4 13 -15 50 -25 82
-35 116 -128 248 -264 371 -113 103 -132 154 -104 272 9 40 14 84 10 98 -11
45 -47 77 -94 83 -38 5 -49 1 -98 -32 -92 -64 -189 -176 -240 -279 -91 -185
-104 -373 -49 -700 25 -146 26 -159 11 -174 -26 -26 -65 2 -106 78 -44 82 -90
109 -151 91 -49 -15 -67 -42 -91 -139 -24 -97 -26 -292 -4 -372 10 -40 11 -56
3 -59 -30 -11 -107 -97 -127 -142 -24 -56 -29 -164 -10 -213 5 -15 10 -29 10
-32 0 -2 -45 -4 -100 -4 l-101 0 3 927 3 928 23 66 c57 170 199 302 368 343
90 22 1491 22 1583 1z m-980 -709 c16 -32 62 -86 133 -155 166 -160 231 -273
244 -422 8 -86 34 -129 88 -147 84 -27 153 23 222 163 19 39 42 103 52 142 9
40 21 73 25 73 14 0 95 -181 117 -263 38 -137 41 -328 10 -470 l-13 -57 -217
0 -217 0 -7 61 c-17 148 -98 343 -192 462 -67 86 -121 104 -202 67 -35 -16
-47 -29 -66 -72 -51 -114 -96 -327 -96 -449 0 -68 0 -69 -27 -69 -39 -1 -97
-23 -143 -55 l-38 -26 -41 29 c-22 16 -60 35 -85 41 -36 9 -46 16 -55 43 -18
49 -31 167 -24 215 l6 42 40 -34 c68 -59 157 -70 240 -30 89 42 105 130 67
371 -53 342 -31 500 92 663 l42 55 11 -64 c6 -36 21 -87 34 -114z m211 -870
c31 -70 56 -150 65 -217 l7 -47 -40 -7 c-23 -3 -66 -22 -97 -41 -54 -32 -58
-33 -81 -18 -22 15 -24 22 -24 103 1 98 18 206 51 316 l22 75 35 -52 c19 -28
47 -79 62 -112z m-689 -441 c62 -33 87 -117 52 -176 -23 -39 -92 -72 -130 -63
-66 16 -103 64 -103 131 0 90 100 149 181 108z m418 -3 c37 -20 71 -73 71
-110 0 -51 -45 -106 -98 -122 -68 -19 -144 31 -158 105 -12 66 56 144 126 145
14 0 41 -8 59 -18z m442 -18 c39 -37 54 -85 40 -126 -16 -46 -49 -77 -93 -89
-50 -13 -102 10 -135 60 -80 119 84 255 188 155z m620 21 c16 -9 39 -30 49
-48 41 -66 16 -142 -55 -177 -37 -18 -62 -20 -239 -20 -185 0 -198 1 -191 18
23 59 28 121 13 181 l-15 61 204 0 c165 0 210 -3 234 -15z m1349 -424 c5 -11
10 -38 10 -60 l0 -41 -2170 0 -2170 0 0 41 c0 22 5 49 10 60 11 19 45 19 2160
19 2115 0 2149 0 2160 -19z"/>
</g>
</svg>
