<?xml version="1.0" standalone="no"?>
<!DOCTYPE svg PUBLIC "-//W3C//DTD SVG 20010904//EN"
 "http://www.w3.org/TR/2001/REC-SVG-20010904/DTD/svg10.dtd">
<svg version="1.0" xmlns="http://www.w3.org/2000/svg"
 width="512.000000pt" height="512.000000pt" viewBox="0 0 512.000000 512.000000"
 preserveAspectRatio="xMidYMid meet">

<g transform="translate(0.000000,512.000000) scale(0.100000,-0.100000)"
fill="currentColor" stroke="none">
<path d="M1318 4581 l-33 -29 0 -647 0 -647 33 -29 32 -29 1210 0 1210 0 32
29 33 29 0 647 0 647 -33 29 -32 29 -234 0 c-221 0 -235 -1 -260 -21 -19 -15
-26 -30 -26 -54 0 -24 7 -39 26 -54 25 -20 40 -21 215 -21 l189 0 0 -555 0
-555 -1120 0 -1120 0 0 555 0 555 774 0 c426 0 782 3 791 6 8 4 23 20 31 36
13 25 13 35 3 59 -6 17 -20 34 -30 39 -11 6 -332 10 -838 10 l-821 0 -32 -29z"/>
<path d="M1980 4234 c-133 -48 -213 -160 -213 -299 0 -123 62 -223 176 -282
71 -38 186 -39 265 -4 66 30 144 113 166 177 20 61 20 157 0 218 -22 65 -100
148 -166 176 -69 30 -168 36 -228 14z m188 -161 c47 -35 72 -81 72 -135 0
-148 -161 -221 -269 -122 -89 79 -66 219 44 270 40 19 119 12 153 -13z"/>
<path d="M2925 4241 c-29 -13 -49 -38 -187 -236 -148 -213 -148 -213 -148
-262 1 -47 18 -78 56 -104 27 -18 49 -19 322 -19 236 0 298 3 321 14 50 26 77
89 62 143 -10 33 -267 406 -305 442 -26 25 -89 36 -121 22z m155 -321 l101
-145 -105 -3 c-59 -1 -153 -1 -211 0 l-105 3 103 147 c56 81 105 146 109 145
4 -1 53 -67 108 -147z"/>
<path d="M4231 3727 c-52 -26 -58 -48 -121 -414 -33 -194 -58 -364 -54 -377 3
-13 19 -37 35 -52 30 -29 32 -29 165 -32 l134 -4 0 -813 0 -813 -103 -4 c-95
-3 -107 -5 -140 -31 -49 -38 -65 -72 -73 -156 l-7 -71 -278 0 -279 0 0 55 0
55 105 0 c148 0 207 29 258 125 19 35 21 57 21 170 0 113 -2 135 -21 170 -49
93 -112 125 -242 125 l-89 0 -4 263 c-3 258 -3 263 -27 296 -46 64 -5 61 -953
61 -802 0 -865 -1 -897 -18 -19 -9 -44 -30 -55 -45 -20 -27 -21 -44 -24 -293
l-4 -264 -91 0 c-111 0 -157 -18 -210 -80 -44 -52 -52 -84 -52 -215 0 -131 8
-163 52 -215 56 -65 98 -80 226 -80 l107 0 0 -55 0 -55 -314 0 -313 0 53 313
c30 171 51 324 48 338 -3 14 -17 38 -33 53 l-27 26 43 87 c84 173 123 365 123
613 0 179 -17 301 -61 445 -114 369 -357 551 -591 442 -62 -29 -146 -100 -159
-135 -18 -47 24 -102 76 -102 8 0 35 19 62 42 65 56 125 82 175 75 133 -18
259 -199 320 -456 29 -124 36 -421 14 -551 -30 -170 -74 -293 -141 -395 l-37
-55 -173 0 -173 0 -37 55 c-67 102 -111 225 -141 395 -23 132 -15 427 15 554
26 111 26 131 1 156 -25 25 -81 26 -103 3 -41 -47 -77 -265 -77 -473 0 -244
38 -435 121 -609 l40 -84 -30 -31 c-16 -17 -32 -42 -35 -56 -4 -14 18 -166 48
-337 l53 -313 -81 0 c-112 0 -152 -13 -207 -69 -65 -64 -83 -135 -58 -226 14
-51 93 -130 146 -144 26 -8 584 -11 1786 -11 l1748 0 24 25 c14 13 25 36 25
50 0 14 -11 37 -25 50 l-24 25 -1746 0 -1746 0 -24 25 c-32 31 -32 69 0 100
l24 25 2361 0 2361 0 24 -25 c32 -31 32 -69 0 -100 l-24 -25 -459 0 c-450 0
-460 0 -486 -21 -19 -15 -26 -30 -26 -54 0 -24 7 -39 26 -54 26 -21 36 -21
487 -21 333 0 471 3 501 12 81 24 156 126 156 213 0 115 -108 225 -221 225
-25 0 -26 3 -33 71 -8 84 -24 118 -73 156 -33 26 -45 28 -140 31 l-103 4 0
813 0 813 134 4 c133 3 135 3 165 32 16 15 32 39 35 52 10 39 -111 724 -133
754 -34 46 -52 50 -281 50 -151 0 -222 -4 -239 -13z m403 -164 c6 -29 96 -553
96 -559 0 -2 -117 -4 -260 -4 -143 0 -260 2 -260 4 0 6 90 530 96 559 l6 27
158 0 158 0 6 -27z m-1254 -1668 l0 -235 -820 0 -820 0 0 235 0 235 820 0 820
0 0 -235z m-2450 -349 c0 -6 -90 -530 -96 -558 l-6 -28 -158 0 -158 0 -6 28
c-6 28 -96 552 -96 558 0 2 117 4 260 4 143 0 260 -2 260 -4z m2788 -52 c21
-14 22 -23 22 -129 0 -106 -1 -115 -22 -129 -20 -14 -146 -16 -1158 -16 -1012
0 -1138 2 -1158 16 -21 14 -22 23 -22 129 0 106 1 115 22 129 20 14 146 16
1158 16 1012 0 1138 -2 1158 -16z m-1808 -479 l0 -55 -75 0 -75 0 0 55 0 55
75 0 75 0 0 -55z m1150 0 l0 -55 -500 0 -500 0 0 55 0 55 500 0 500 0 0 -55z
m300 0 l0 -55 -75 0 -75 0 0 55 0 55 75 0 75 0 0 -55z m1350 0 l0 -55 -240 0
-240 0 0 55 0 55 240 0 240 0 0 -55z"/>
</g>
</svg>
