<?xml version="1.0" standalone="no"?>
<!DOCTYPE svg PUBLIC "-//W3C//DTD SVG 20010904//EN"
 "http://www.w3.org/TR/2001/REC-SVG-20010904/DTD/svg10.dtd">
<svg version="1.0" xmlns="http://www.w3.org/2000/svg"
 width="512.000000pt" height="512.000000pt" viewBox="0 0 512.000000 512.000000"
 preserveAspectRatio="xMidYMid meet">
<metadata>
Created by potrace 1.16, written by Peter Selinger 2001-2019
</metadata>
<g transform="translate(0.000000,512.000000) scale(0.100000,-0.100000)"
fill="currentColor" stroke="none">
<path d="M1660 5107 c-31 -16 -104 -141 -131 -227 -50 -156 -33 -309 57 -505
106 -229 118 -264 118 -346 1 -71 -3 -82 -47 -172 -64 -131 -61 -184 13 -222
60 -31 112 -10 160 65 91 142 121 313 81 470 -12 46 -53 152 -91 235 -119 258
-124 324 -36 496 56 109 58 139 12 185 -27 27 -42 34 -72 34 -22 0 -50 -6 -64
-13z"/>
<path d="M2498 5101 c-37 -30 -114 -187 -133 -276 -35 -155 -10 -278 101 -518
111 -238 116 -300 38 -456 -61 -124 -57 -178 16 -216 60 -31 112 -10 160 65
91 142 121 313 81 470 -12 46 -53 152 -91 235 -119 258 -124 324 -36 496 56
109 58 139 12 185 -29 29 -41 34 -79 34 -29 0 -53 -7 -69 -19z"/>
<path d="M3348 5100 c-33 -26 -114 -188 -134 -270 -21 -84 -14 -219 16 -315
12 -38 51 -132 86 -208 111 -238 116 -300 38 -456 -54 -109 -57 -150 -15 -191
52 -52 113 -52 163 2 40 43 96 164 113 245 33 155 13 262 -95 496 -89 195
-107 266 -92 349 6 33 32 101 58 152 40 79 46 98 40 129 -14 76 -118 115 -178
67z"/>
<path d="M630 3404 c-99 -21 -182 -67 -258 -142 -76 -76 -125 -159 -147 -253
-22 -96 -22 -2082 0 -2178 22 -93 71 -176 147 -252 125 -126 231 -159 510
-159 l176 0 4 -181 3 -181 33 -29 c46 -41 111 -41 153 0 l29 29 0 181 0 181
1280 0 1280 0 0 -181 0 -181 29 -29 c42 -41 107 -41 153 0 l33 29 3 181 4 181
176 0 c279 0 385 33 510 159 76 76 125 159 147 252 22 96 22 2082 0 2178 -22
94 -71 177 -147 253 -78 77 -159 121 -263 143 -102 21 -3755 21 -3855 -1z
m3860 -235 c103 -49 158 -113 185 -216 22 -86 22 -1980 0 -2066 -27 -103 -82
-167 -185 -216 l-55 -26 -1875 0 -1875 0 -55 26 c-103 49 -158 113 -185 216
-22 86 -22 1980 0 2066 33 128 132 218 260 237 27 4 878 7 1890 6 l1840 -1 55
-26z"/>
<path d="M884 2956 l-34 -34 0 -1002 0 -1002 34 -34 c28 -28 42 -34 76 -34 34
0 48 6 76 34 l34 34 0 1002 0 1002 -34 34 c-28 28 -42 34 -76 34 -34 0 -48 -6
-76 -34z"/>
<path d="M1524 2956 l-34 -34 0 -1002 0 -1002 34 -34 c28 -28 42 -34 76 -34
34 0 48 6 76 34 l34 34 0 1002 0 1002 -34 34 c-28 28 -42 34 -76 34 -34 0 -48
-6 -76 -34z"/>
<path d="M2164 2956 l-34 -34 0 -1002 0 -1002 34 -34 c28 -28 42 -34 76 -34
34 0 48 6 76 34 l34 34 0 1002 0 1002 -34 34 c-28 28 -42 34 -76 34 -34 0 -48
-6 -76 -34z"/>
<path d="M2804 2956 l-34 -34 0 -1002 0 -1002 34 -34 c28 -28 42 -34 76 -34
34 0 48 6 76 34 l34 34 0 1002 0 1002 -34 34 c-28 28 -42 34 -76 34 -34 0 -48
-6 -76 -34z"/>
<path d="M3444 2956 l-34 -34 0 -1002 0 -1002 34 -34 c28 -28 42 -34 76 -34
34 0 48 6 76 34 l34 34 0 1002 0 1002 -34 34 c-28 28 -42 34 -76 34 -34 0 -48
-6 -76 -34z"/>
<path d="M4084 2956 l-34 -34 0 -1002 0 -1002 34 -34 c28 -28 42 -34 76 -34
34 0 48 6 76 34 l34 34 0 1002 0 1002 -34 34 c-28 28 -42 34 -76 34 -34 0 -48
-6 -76 -34z"/>
</g>
</svg>
