<?xml version="1.0" standalone="no"?>
<!DOCTYPE svg PUBLIC "-//W3C//DTD SVG 20010904//EN"
 "http://www.w3.org/TR/2001/REC-SVG-20010904/DTD/svg10.dtd">
<svg version="1.0" xmlns="http://www.w3.org/2000/svg"
 width="512.000000pt" height="512.000000pt" viewBox="0 0 512.000000 512.000000"
 preserveAspectRatio="xMidYMid meet">
<metadata>
Created by potrace 1.16, written by Peter Selinger 2001-2019
</metadata>
<g transform="translate(0.000000,512.000000) scale(0.100000,-0.100000)"
fill="currentColor" stroke="none">
<path d="M2085 5104 c-452 -61 -882 -250 -1233 -541 -454 -378 -758 -936 -837
-1536 -20 -155 -20 -459 0 -614 35 -268 110 -515 230 -758 237 -481 607 -852
1090 -1091 337 -167 675 -244 1065 -244 273 0 518 37 734 110 47 16 88 25 90
21 3 -4 23 -81 46 -172 23 -90 48 -179 57 -196 28 -59 105 -91 176 -72 35 9
74 43 250 217 l207 207 208 -207 c114 -113 217 -211 229 -217 31 -16 109 -14
141 3 32 18 555 542 571 573 14 28 14 108 0 136 -6 12 -104 115 -217 229
l-207 208 207 207 c174 176 208 215 217 250 19 71 -13 148 -72 176 -17 8 -106
34 -197 57 -91 23 -168 44 -172 46 -4 3 6 43 22 90 73 216 110 461 110 734 0
393 -75 722 -245 1065 -237 481 -609 853 -1090 1090 -243 120 -490 195 -758
230 -146 19 -481 18 -622 -1z m165 -754 l0 -430 -315 0 c-173 0 -315 4 -315 8
0 19 83 218 130 313 99 196 208 345 320 434 71 57 148 105 168 105 9 0 12 -93
12 -430z m393 389 c142 -84 289 -264 404 -493 50 -99 133 -298 133 -318 0 -4
-142 -8 -315 -8 l-315 0 0 430 c0 326 3 430 12 430 6 0 43 -18 81 -41z m-1058
-153 c-98 -152 -200 -374 -269 -583 l-28 -83 -299 0 c-256 0 -299 2 -292 14
27 48 148 188 245 282 158 154 331 280 518 374 52 26 166 77 177 80 2 0 -22
-38 -52 -84z m1747 8 c193 -97 366 -221 526 -378 97 -94 218 -234 245 -282 7
-12 -36 -14 -292 -14 l-299 0 -28 83 c-68 207 -165 417 -267 579 l-55 87 49
-19 c27 -11 81 -36 121 -56z m-2122 -986 c0 -7 -7 -49 -15 -93 -25 -129 -54
-370 -61 -512 l-7 -133 -408 0 c-321 0 -409 3 -409 13 0 6 7 59 15 117 27 189
84 388 164 573 l20 47 351 0 c273 0 350 -3 350 -12z m1040 -363 l0 -375 -405
0 -405 0 0 48 c0 126 45 486 80 650 l12 52 359 0 359 0 0 -375z m1030 323 c35
-167 80 -528 80 -650 l0 -48 -405 0 -405 0 0 375 0 375 359 0 359 0 12 -52z
m1063 -73 c58 -143 110 -338 131 -493 9 -62 16 -117 16 -122 0 -6 -153 -10
-409 -10 l-408 0 -7 128 c-9 158 -30 342 -56 489 -11 62 -20 117 -20 123 0 7
109 9 353 8 l352 -3 48 -120z m-3209 -1057 c7 -143 36 -384 61 -513 8 -44 15
-86 15 -93 0 -10 -74 -12 -352 -10 l-352 3 -49 120 c-58 142 -110 337 -131
493 -9 62 -16 117 -16 122 0 6 153 10 409 10 l408 0 7 -132z m1116 -243 l0
-375 -359 0 -359 0 -12 53 c-35 163 -80 523 -80 650 l0 47 405 0 405 0 0 -375z
m1106 264 c-3 -60 -9 -136 -12 -167 l-6 -57 -193 49 c-224 56 -247 56 -306 -3
-57 -57 -58 -84 -10 -276 22 -91 41 -169 41 -175 0 -6 -58 -10 -160 -10 l-160
0 0 375 0 375 407 0 406 0 -7 -111z m1128 49 c-12 -115 -55 -318 -90 -427
l-35 -108 -287 74 c-158 40 -318 81 -357 91 -63 17 -70 21 -68 43 1 13 7 106
14 207 l13 182 409 0 408 0 -7 -62z m-152 -849 l328 -84 -169 -170 c-142 -142
-170 -176 -176 -207 -16 -87 -10 -96 221 -328 l214 -215 -142 -143 -143 -142
-215 214 c-232 231 -241 237 -327 221 -32 -6 -66 -34 -208 -176 l-170 -168
-88 342 c-48 188 -134 525 -191 748 l-103 407 421 -108 c231 -59 568 -145 748
-191z m-3016 -221 c69 -210 171 -432 269 -584 l54 -83 -49 19 c-214 84 -456
247 -648 434 -97 94 -218 234 -245 282 -7 12 36 14 292 14 l299 0 28 -82z
m934 -348 c0 -326 -3 -430 -12 -430 -6 0 -43 18 -81 41 -142 84 -289 264 -404
493 -50 99 -133 298 -133 318 0 4 142 8 315 8 l315 0 0 -430z m747 260 l43
-165 -21 -45 c-31 -65 -118 -196 -178 -266 -76 -89 -239 -214 -279 -214 -9 0
-12 110 -12 430 l0 430 202 -2 201 -3 44 -165z"/>
</g>
</svg>
