<?xml version="1.0" standalone="no"?>
<!DOCTYPE svg PUBLIC "-//W3C//DTD SVG 20010904//EN"
 "http://www.w3.org/TR/2001/REC-SVG-20010904/DTD/svg10.dtd">
<svg version="1.0" xmlns="http://www.w3.org/2000/svg"
 width="512.000000pt" height="512.000000pt" viewBox="0 0 512.000000 512.000000"
 preserveAspectRatio="xMidYMid meet">
<metadata>
Created by potrace 1.16, written by Peter Selinger 2001-2019
</metadata>
<g transform="translate(0.000000,512.000000) scale(0.100000,-0.100000)"
fill="currentColor" stroke="none">
<path d="M531 5094 c-20 -26 -21 -37 -21 -425 l0 -399 -62 0 -62 0 -193 -193
-193 -193 0 -170 c0 -170 0 -171 26 -195 l26 -24 890 0 890 0 24 28 c23 27 24
33 24 195 l0 166 -193 193 -193 193 -62 0 -62 0 0 400 0 401 -25 24 -24 25
-385 0 -385 0 -20 -26z m659 -489 l0 -335 -250 0 -250 0 0 335 0 335 250 0
250 0 0 -335z m367 -657 l143 -143 0 -67 0 -68 -760 0 -760 0 0 67 0 68 142
142 143 143 475 0 475 0 142 -142z"/>
<path d="M2210 4308 l0 -813 -65 -34 c-72 -37 -121 -88 -156 -160 -18 -37 -24
-68 -27 -157 l-4 -110 32 -27 32 -27 285 0 285 0 30 30 30 31 -4 102 c-3 84
-8 112 -30 159 -34 73 -102 139 -173 169 l-55 23 0 813 0 813 -90 0 -90 0 0
-812z m190 -1018 c30 -21 69 -88 70 -117 0 -10 -40 -13 -166 -13 l-166 0 6 32
c8 42 51 97 90 114 45 21 125 13 166 -16z"/>
<path d="M2810 4648 l0 -473 -48 -19 c-61 -26 -137 -97 -170 -161 -23 -43 -27
-65 -30 -165 -4 -114 -4 -115 23 -140 l27 -25 266 -3 c297 -4 333 1 357 48 34
66 10 235 -47 323 -33 52 -123 122 -169 132 l-29 7 0 474 0 474 -90 0 -90 0 0
-472z m177 -670 c35 -21 67 -67 77 -110 l6 -28 -165 0 c-164 0 -165 0 -165 23
0 27 35 87 63 107 56 40 125 43 184 8z"/>
<path d="M3435 4075 l-25 -24 0 -1001 0 -1000 -935 0 -935 0 0 145 c0 142 -1
147 -25 170 -23 24 -28 25 -175 25 l-150 0 0 -90 0 -90 85 0 85 0 0 -80 0 -80
-165 0 -165 0 0 170 0 170 -90 0 -90 0 0 -170 0 -170 -165 0 -165 0 0 80 0 80
85 0 85 0 0 90 0 90 -154 0 -155 0 -20 -26 c-19 -24 -21 -40 -21 -170 l0 -144
-144 0 c-130 0 -146 -2 -170 -21 l-26 -20 0 -983 0 -983 23 -21 23 -22 2515 0
2516 0 21 23 22 23 0 2003 0 2002 -25 24 -24 25 -806 0 -806 0 -24 -25z m1505
-660 l0 -505 -675 0 -675 0 0 505 0 505 675 0 675 0 0 -505z m0 -1960 l0
-1275 -675 0 -675 0 0 1275 0 1275 675 0 675 0 0 -1275z m-3240 250 l0 -165
-760 0 -760 0 0 165 0 165 760 0 760 0 0 -165z m1710 0 l0 -165 -765 0 -765 0
0 165 0 165 765 0 765 0 0 -165z m-1710 -935 l0 -590 -760 0 -760 0 0 590 0
590 760 0 760 0 0 -590z m860 0 l0 -590 -340 0 -340 0 0 590 0 590 340 0 340
0 0 -590z m850 0 l0 -590 -335 0 -335 0 0 590 0 590 335 0 335 0 0 -590z"/>
<path d="M3750 3415 l0 -175 90 0 90 0 0 175 0 175 -90 0 -90 0 0 -175z"/>
<path d="M3750 2215 l0 -175 90 0 90 0 0 175 0 175 -90 0 -90 0 0 -175z"/>
<path d="M400 1793 c-37 -13 -60 -47 -60 -85 0 -106 144 -122 175 -20 18 61
-54 127 -115 105z"/>
<path d="M740 1793 c-62 -24 -81 -103 -35 -148 27 -28 88 -34 116 -12 43 33
48 106 11 141 -20 18 -69 28 -92 19z"/>
<path d="M1074 1790 c-89 -37 -62 -170 34 -170 53 0 82 25 89 76 4 33 1 45
-18 67 -26 30 -72 42 -105 27z"/>
<path d="M1413 1790 c-56 -23 -69 -114 -22 -152 32 -27 94 -23 124 7 67 66
-14 182 -102 145z"/>
<path d="M2470 1710 l0 -90 175 0 175 0 0 90 0 90 -175 0 -175 0 0 -90z"/>
<path d="M383 1190 c-12 -5 -26 -18 -32 -29 -7 -13 -11 -149 -11 -396 l0 -376
25 -24 24 -25 551 0 551 0 24 25 25 24 0 376 0 377 -29 29 -29 29 -539 -1
c-296 0 -548 -4 -560 -9z m977 -420 l0 -250 -420 0 -420 0 0 250 0 250 420 0
420 0 0 -250z"/>
<path d="M2210 765 l0 -175 90 0 90 0 0 175 0 175 -90 0 -90 0 0 -175z"/>
<path d="M2900 765 l0 -175 90 0 90 0 0 175 0 175 -90 0 -90 0 0 -175z"/>
</g>
</svg>
