<?xml version="1.0" standalone="no"?>
<!DOCTYPE svg PUBLIC "-//W3C//DTD SVG 20010904//EN"
 "http://www.w3.org/TR/2001/REC-SVG-20010904/DTD/svg10.dtd">
<svg version="1.0" xmlns="http://www.w3.org/2000/svg"
 width="512.000000pt" height="512.000000pt" viewBox="0 0 512.000000 512.000000"
 preserveAspectRatio="xMidYMid meet">

<g transform="translate(0.000000,512.000000) scale(0.100000,-0.100000)"
fill="currentColor" stroke="none">
<path d="M1334 4767 c-28 -25 -29 -27 -29 -125 0 -116 13 -142 72 -142 60 0
73 25 73 143 0 113 -7 128 -61 142 -20 5 -33 0 -55 -18z"/>
<path d="M810 4548 c-35 -38 -26 -70 37 -139 32 -34 71 -68 88 -74 33 -15 70
-5 91 23 27 35 16 62 -58 138 -60 62 -77 74 -104 74 -21 0 -41 -8 -54 -22z"/>
<path d="M1794 4508 c-67 -64 -81 -90 -70 -134 7 -27 57 -55 86 -47 9 3 48 35
85 73 54 55 68 75 68 99 0 42 -28 71 -70 71 -29 0 -46 -11 -99 -62z"/>
<path d="M1255 4416 c-173 -57 -291 -193 -317 -364 -42 -267 169 -512 441
-512 70 0 150 19 211 50 85 44 190 165 190 220 0 44 -26 70 -70 70 -36 0 -43
-5 -79 -54 -67 -91 -148 -135 -247 -136 -88 0 -148 24 -210 84 -229 225 5 594
311 490 46 -16 99 -61 166 -142 46 -56 129 -32 129 36 0 67 -109 184 -217 235
-58 27 -79 31 -167 33 -65 2 -115 -1 -141 -10z"/>
<path d="M602 4037 c-31 -33 -29 -80 4 -106 23 -18 41 -21 119 -21 112 0 139
14 139 75 0 61 -26 75 -143 75 -89 0 -99 -2 -119 -23z"/>
<path d="M1916 4039 c-19 -15 -26 -30 -26 -54 0 -24 7 -39 26 -54 23 -18 41
-21 121 -21 86 0 96 2 118 25 32 31 32 69 0 100 -22 23 -32 25 -118 25 -80 0
-98 -3 -121 -21z"/>
<path d="M925 3631 c-16 -10 -54 -43 -82 -74 -60 -64 -68 -99 -30 -135 44 -41
76 -30 155 52 88 90 93 128 25 164 -29 16 -33 15 -68 -7z"/>
<path d="M1763 3640 c-27 -11 -43 -40 -43 -76 0 -21 17 -45 68 -96 59 -58 74
-68 104 -68 52 0 86 47 68 95 -11 28 -72 98 -109 124 -35 25 -62 31 -88 21z"/>
<path d="M2363 3560 c-23 -12 -50 -33 -60 -48 -10 -14 -99 -186 -198 -382
-163 -322 -182 -355 -206 -358 -21 -2 -31 4 -47 30 -54 86 -186 104 -261 35
-13 -12 -153 -283 -313 -601 l-289 -579 -18 29 c-32 52 -59 69 -110 69 -28 0
-58 -7 -74 -18 -20 -13 -103 -169 -337 -637 l-310 -620 -49 0 c-42 0 -53 -4
-70 -26 -34 -43 -26 -86 20 -109 24 -13 279 -15 1923 -15 1387 0 1902 3 1920
11 51 23 55 103 7 128 -13 7 -166 11 -449 11 -419 0 -430 0 -456 21 -14 11
-26 29 -26 40 0 29 36 59 70 59 56 0 89 26 120 95 35 78 72 105 144 105 45 0
52 -3 107 -57 l58 -58 93 -5 c78 -5 102 -2 153 16 35 12 75 20 95 17 56 -6 96
25 115 90 25 86 65 140 126 171 106 53 217 26 294 -71 60 -75 66 -78 182 -78
118 0 136 -9 191 -91 44 -66 82 -85 147 -78 42 5 55 2 77 -15 32 -25 45 -79
28 -111 -25 -47 -55 -50 -433 -50 l-354 0 -21 -23 c-27 -29 -28 -67 -3 -98
l19 -24 362 -3 c305 -2 371 0 416 13 125 36 195 158 164 286 -10 42 -24 64
-64 104 -52 53 -105 75 -175 75 l-31 0 -596 1193 c-328 655 -607 1207 -621
1225 -47 62 -145 90 -220 61 -58 -21 -88 -68 -233 -359 -80 -159 -147 -290
-150 -290 -3 0 -105 199 -227 443 -195 388 -226 445 -258 466 -50 34 -118 38
-172 11z m329 -605 c130 -259 237 -479 237 -490 0 -11 -221 -461 -492 -1000
l-492 -980 -185 0 -185 0 -253 502 -252 503 310 620 c171 341 315 620 322 620
6 0 32 -22 58 -49 73 -76 161 -86 250 -27 36 23 57 60 221 388 100 200 186
369 192 376 5 7 15 11 21 10 6 -2 118 -215 248 -473z m979 -147 l171 -341
-139 -139 -139 -139 -88 76 c-125 107 -159 122 -233 103 -36 -9 -57 -25 -117
-90 l-72 -80 -30 25 -29 26 213 428 c118 235 220 438 228 451 9 13 24 22 39
22 23 0 40 -31 196 -342z m577 -1154 c183 -366 332 -668 330 -669 -2 -2 -25
-5 -53 -6 -49 -4 -51 -3 -103 52 -35 37 -74 66 -115 85 -55 26 -73 29 -162 29
-90 0 -106 -3 -160 -29 -78 -38 -156 -118 -186 -190 -18 -44 -29 -58 -48 -61
-15 -3 -47 -12 -72 -20 -26 -8 -72 -15 -102 -15 -50 0 -58 3 -77 30 -11 16
-50 43 -85 61 -60 29 -71 31 -142 27 -47 -3 -92 -12 -112 -22 -51 -27 -116
-91 -135 -134 -14 -32 -25 -40 -62 -50 -94 -25 -164 -131 -149 -222 l7 -40
-351 0 c-227 0 -351 4 -351 10 0 5 181 372 402 814 l402 804 40 -27 c30 -20
52 -26 90 -26 67 1 103 24 166 102 28 35 56 63 63 63 7 0 56 -36 107 -80 108
-92 144 -107 217 -89 42 11 62 28 172 141 68 70 127 128 130 128 3 0 156 -300
339 -666z m-3283 -284 l100 -200 -55 -55 -55 -54 -69 59 c-92 79 -136 93 -209
64 -13 -5 10 51 80 190 54 108 100 196 103 196 3 0 50 -90 105 -200z m-146
-390 c110 -92 168 -93 261 -4 l56 53 137 -275 137 -274 -550 0 -550 0 110 220
110 220 38 0 c46 0 90 26 133 79 18 23 36 41 39 41 4 0 40 -27 79 -60z"/>
<path d="M1349 3466 c-39 -19 -50 -53 -47 -148 3 -101 22 -131 79 -131 55 0
69 29 69 140 0 52 -4 103 -10 113 -14 27 -62 41 -91 26z"/>
</g>
</svg>
