<?xml version="1.0" standalone="no"?>
<!DOCTYPE svg PUBLIC "-//W3C//DTD SVG 20010904//EN"
 "http://www.w3.org/TR/2001/REC-SVG-20010904/DTD/svg10.dtd">
<svg version="1.0" xmlns="http://www.w3.org/2000/svg"
 width="512.000000pt" height="512.000000pt" viewBox="0 0 512.000000 512.000000"
 preserveAspectRatio="xMidYMid meet">
<metadata>
Created by potrace 1.16, written by Peter Selinger 2001-2019
</metadata>
<g transform="translate(0.000000,512.000000) scale(0.100000,-0.100000)"
fill="currentColor" stroke="none">
<path d="M180 4940 c-20 -20 -20 -33 -20 -2380 0 -2347 0 -2360 20 -2380 20
-20 33 -20 2380 -20 2347 0 2360 0 2380 20 20 20 20 33 20 2380 0 2347 0 2360
-20 2380 -20 20 -33 20 -2380 20 -2347 0 -2360 0 -2380 -20z m4620 -540 l0
-400 -2240 0 -2240 0 0 400 0 400 2240 0 2240 0 0 -400z m0 -2320 l0 -1760
-2240 0 -2240 0 0 1760 0 1760 2240 0 2240 0 0 -1760z"/>
<path d="M695 4621 c-87 -40 -135 -120 -135 -223 1 -142 97 -238 240 -238 144
0 240 96 240 240 0 104 -53 187 -142 224 -52 22 -153 20 -203 -3z m155 -171
c11 -11 20 -33 20 -50 0 -17 -9 -39 -20 -50 -43 -43 -120 -11 -120 50 0 38 32
70 70 70 17 0 39 -9 50 -20z"/>
<path d="M1335 4621 c-87 -40 -135 -120 -135 -223 1 -142 97 -238 240 -238
144 0 240 96 240 240 0 104 -53 187 -142 224 -52 22 -153 20 -203 -3z m155
-171 c11 -11 20 -33 20 -50 0 -17 -9 -39 -20 -50 -11 -11 -33 -20 -50 -20 -17
0 -39 9 -50 20 -11 11 -20 33 -20 50 0 17 9 39 20 50 11 11 33 20 50 20 17 0
39 -9 50 -20z"/>
<path d="M1860 4620 c-19 -19 -20 -33 -20 -220 0 -187 1 -201 20 -220 20 -20
33 -20 700 -20 667 0 680 0 700 20 19 19 20 33 20 220 0 187 -1 201 -20 220
-20 20 -33 20 -700 20 -667 0 -680 0 -700 -20z m1260 -220 l0 -80 -560 0 -560
0 0 80 0 80 560 0 560 0 0 -80z"/>
<path d="M3575 4621 c-87 -40 -135 -120 -135 -223 1 -142 97 -238 240 -238
144 0 240 96 240 240 0 104 -53 187 -142 224 -52 22 -153 20 -203 -3z m155
-171 c11 -11 20 -33 20 -50 0 -17 -9 -39 -20 -50 -11 -11 -33 -20 -50 -20 -17
0 -39 9 -50 20 -11 11 -20 33 -20 50 0 17 9 39 20 50 11 11 33 20 50 20 17 0
39 -9 50 -20z"/>
<path d="M4215 4621 c-87 -40 -135 -120 -135 -223 1 -142 97 -238 240 -238
144 0 240 96 240 240 0 104 -53 187 -142 224 -52 22 -153 20 -203 -3z m155
-171 c11 -11 20 -33 20 -50 0 -17 -9 -39 -20 -50 -11 -11 -33 -20 -50 -20 -17
0 -39 9 -50 20 -11 11 -20 33 -20 50 0 17 9 39 20 50 11 11 33 20 50 20 17 0
39 -9 50 -20z"/>
<path d="M580 3660 c-13 -13 -20 -33 -20 -60 0 -27 7 -47 20 -60 20 -20 33
-20 1980 -20 1947 0 1960 0 1980 20 13 13 20 33 20 60 0 27 -7 47 -20 60 -20
20 -33 20 -1980 20 -1947 0 -1960 0 -1980 -20z"/>
<path d="M820 3020 c-20 -20 -20 -33 -20 -1100 0 -1067 0 -1080 20 -1100 20
-20 33 -20 1740 -20 1707 0 1720 0 1740 20 20 20 20 33 20 1100 0 1067 0 1080
-20 1100 -20 20 -33 20 -1740 20 -1707 0 -1720 0 -1740 -20z m3340 -1100 l0
-960 -1600 0 -1600 0 0 960 0 960 1600 0 1600 0 0 -960z"/>
<path d="M1140 1260 c-13 -13 -20 -33 -20 -60 0 -27 7 -47 20 -60 20 -20 33
-20 1420 -20 1387 0 1400 0 1420 20 13 13 20 33 20 60 0 27 -7 47 -20 60 -20
20 -33 20 -1420 20 -1387 0 -1400 0 -1420 -20z"/>
</g>
</svg>
