<?xml version="1.0" standalone="no"?>
<!DOCTYPE svg PUBLIC "-//W3C//DTD SVG 20010904//EN"
 "http://www.w3.org/TR/2001/REC-SVG-20010904/DTD/svg10.dtd">
<svg version="1.0" xmlns="http://www.w3.org/2000/svg"
 width="512.000000pt" height="512.000000pt" viewBox="0 0 512.000000 512.000000"
 preserveAspectRatio="xMidYMid meet">

<g transform="translate(0.000000,512.000000) scale(0.100000,-0.100000)"
fill="currentColor" stroke="none">
<path d="M1305 4626 c-904 -362 -1239 -500 -1263 -522 -66 -58 -48 -166 33
-200 29 -12 211 -14 1220 -14 l1185 0 -2 -932 -3 -933 -254 -3 -253 -2 6 24
c15 60 25 73 57 80 72 14 102 85 60 137 l-19 24 -374 3 c-205 2 -383 0 -396
-3 -88 -22 -77 -144 14 -161 36 -7 45 -19 60 -79 l6 -25 -91 0 c-84 0 -94 -2
-116 -25 -33 -32 -33 -78 0 -110 21 -22 33 -25 90 -25 l65 0 0 -115 c0 -128 8
-155 60 -198 17 -15 47 -31 68 -37 23 -6 222 -10 530 -10 l492 0 0 -449 0
-448 -48 -30 c-100 -62 -132 -134 -132 -294 l0 -109 -89 0 c-136 0 -171 -19
-171 -94 0 -25 7 -40 26 -55 26 -21 36 -21 494 -21 458 0 468 0 494 21 19 15
26 30 26 55 0 75 -35 94 -171 94 l-89 0 0 109 c0 160 -32 232 -132 294 l-48
30 0 448 0 449 493 0 c307 0 506 4 529 10 21 6 51 22 68 37 52 43 60 70 60
198 l0 115 65 0 c57 0 69 3 90 25 33 32 33 78 0 110 -22 23 -32 25 -116 25
l-91 0 6 25 c15 60 24 72 60 79 91 17 102 139 14 161 -13 3 -191 5 -396 3
l-374 -3 -19 -24 c-42 -52 -12 -123 60 -137 32 -7 42 -20 57 -80 l6 -24 -253
2 -254 3 -3 933 -2 932 1185 0 c1305 0 1234 -3 1275 62 30 46 22 110 -16 149
-22 21 -332 149 -1259 520 -676 271 -1243 494 -1260 495 -21 2 -407 -148
-1260 -490z m1685 -141 l425 -425 -855 0 -855 0 425 425 c234 234 427 425 430
425 3 0 196 -191 430 -425z m1221 -423 l-556 -2 -375 375 -375 375 931 -373
932 -372 -557 -3z m-2376 368 l-370 -370 -560 0 -560 1 920 369 c506 203 924
369 930 370 5 0 -157 -166 -360 -370z m-19 -2335 c-20 -78 -13 -75 -141 -75
-128 0 -121 -3 -141 75 l-6 25 147 0 147 0 -6 -25z m1770 0 c-20 -78 -13 -75
-141 -75 -128 0 -121 -3 -141 75 l-6 25 147 0 147 0 -6 -25z m44 -330 l0 -95
-1070 0 -1070 0 0 95 0 95 1070 0 1070 0 0 -95z m-1006 -1351 c25 -26 26 -31
26 -135 l0 -109 -90 0 -90 0 0 109 c0 104 1 109 26 135 19 19 37 26 64 26 27
0 45 -7 64 -26z"/>
<path d="M25 2705 c-14 -13 -25 -31 -25 -40 0 -9 40 -340 90 -735 l90 -719 0
-581 0 -581 25 -24 c32 -33 78 -33 110 0 25 24 25 25 25 220 l0 195 360 0 360
0 0 -191 0 -191 29 -29 c18 -17 40 -29 56 -29 16 0 38 12 56 29 l29 29 0 376
0 376 38 19 c153 79 180 300 50 417 -78 70 -65 69 -550 72 -333 2 -438 6 -438
15 0 7 -38 313 -84 682 -84 666 -84 670 -111 692 -35 30 -79 30 -110 -2z
m1186 -1584 c27 -33 33 -67 19 -102 -25 -58 -29 -59 -480 -59 l-410 0 0 95 0
96 426 -3 426 -3 19 -24z m-151 -416 l0 -95 -360 0 -360 0 0 88 c0 49 3 92 7
95 3 4 165 7 360 7 l353 0 0 -95z"/>
<path d="M4985 2707 c-27 -22 -27 -26 -111 -692 -46 -369 -84 -675 -84 -682 0
-9 -105 -13 -437 -15 -486 -3 -473 -2 -551 -72 -130 -117 -103 -338 51 -417
l37 -19 0 -376 0 -376 29 -29 c38 -38 74 -38 112 0 l29 29 0 191 0 191 360 0
360 0 0 -195 c0 -195 0 -196 25 -220 32 -33 78 -33 110 0 l25 24 0 581 0 581
90 719 c50 395 90 725 90 733 0 8 -11 26 -25 41 -30 33 -74 34 -110 3z m-205
-1652 l0 -95 -411 0 c-365 0 -414 2 -439 17 -28 16 -50 51 -50 79 0 27 30 75
53 84 12 5 208 9 435 9 l412 1 0 -95z m-2 -352 l3 -93 -361 0 -360 0 0 95 0
95 358 -2 357 -3 3 -92z"/>
</g>
</svg>
