<?xml version="1.0" standalone="no"?>
<!DOCTYPE svg PUBLIC "-//W3C//DTD SVG 20010904//EN"
 "http://www.w3.org/TR/2001/REC-SVG-20010904/DTD/svg10.dtd">
<svg version="1.0" xmlns="http://www.w3.org/2000/svg"
 width="512.000000pt" height="512.000000pt" viewBox="0 0 512.000000 512.000000"
 preserveAspectRatio="xMidYMid meet">
<metadata>
Created by potrace 1.16, written by Peter Selinger 2001-2019
</metadata>
<g transform="translate(0.000000,512.000000) scale(0.100000,-0.100000)"
fill="currentColor" stroke="none">
<path d="M849 5101 l-24 -19 -3 -1552 -2 -1553 -41 6 c-98 13 -232 -30 -309
-99 -80 -72 -140 -189 -140 -273 0 -30 -8 -44 -48 -83 -41 -40 -86 -118 -106
-180 -4 -14 -16 -18 -49 -18 -56 0 -105 -17 -117 -40 -6 -11 -10 -107 -10
-218 0 -241 1 -243 99 -250 l61 -4 0 -153 c0 -174 18 -265 72 -368 45 -85 156
-194 238 -234 139 -68 -45 -63 2395 -63 l2212 0 21 23 22 23 0 2515 0 2516
-23 21 -23 22 -2101 0 c-2053 0 -2101 0 -2124 -19z m4101 -561 l0 -410 -1975
0 -1975 0 0 410 0 410 1975 0 1975 0 0 -410z m0 -2475 l0 -1895 -1316 0 -1315
0 34 43 c47 57 94 154 112 229 8 36 15 112 15 176 0 122 1 123 57 101 126 -48
455 -74 636 -49 471 62 901 340 1141 738 158 262 228 514 228 822 0 262 -48
473 -158 692 -84 168 -154 267 -283 402 -220 227 -495 379 -807 446 -127 28
-387 38 -517 20 -351 -46 -662 -198 -908 -441 -227 -226 -370 -492 -440 -819
-31 -144 -32 -458 -2 -592 18 -85 18 -99 -2 -79 -6 5 -34 16 -64 25 -74 22
-192 20 -260 -3 -49 -17 -57 -18 -78 -4 l-23 15 0 1034 0 1034 1975 0 1975 0
0 -1895z m-1849 1555 c579 -59 1054 -453 1215 -1010 187 -643 -125 -1338 -734
-1635 -278 -135 -599 -176 -890 -113 -39 8 -51 15 -47 26 3 7 5 42 5 76 l0 63
63 -15 c102 -23 348 -27 461 -8 433 74 789 359 951 761 211 524 42 1126 -412
1462 -232 172 -493 251 -787 240 -249 -10 -439 -69 -638 -201 -363 -238 -575
-656 -555 -1090 9 -199 47 -340 149 -553 2 -3 -4 -11 -14 -16 -13 -9 -27 -1
-72 40 -31 28 -71 57 -90 63 -32 10 -37 17 -60 88 -89 274 -92 572 -9 837 52
168 119 296 226 438 217 287 548 485 897 536 147 22 211 24 341 11z m-6 -331
c410 -50 755 -329 888 -720 35 -100 57 -232 57 -335 l0 -84 -39 0 c-56 0 -86
14 -145 67 -28 25 -75 57 -105 71 -46 21 -63 24 -135 20 -94 -5 -117 -15 -205
-92 -91 -79 -126 -79 -214 0 -29 26 -76 58 -106 72 -46 21 -63 24 -135 20 -95
-5 -122 -17 -206 -93 -88 -78 -125 -78 -213 1 -29 26 -76 58 -106 72 -46 21
-63 24 -135 20 -95 -5 -122 -18 -206 -92 -58 -52 -90 -66 -150 -66 -25 0 -28
4 -32 38 -7 60 9 217 32 305 111 428 467 739 910 796 95 12 144 12 245 0z
m-742 -1161 c12 -6 47 -33 77 -60 30 -27 79 -57 110 -69 105 -40 239 -10 315
71 84 88 134 90 228 6 81 -73 149 -100 237 -93 75 5 148 38 195 87 83 87 134
89 223 10 78 -70 124 -92 205 -98 37 -3 67 -6 67 -7 0 -2 -12 -38 -26 -81
-120 -363 -437 -639 -819 -715 -87 -17 -300 -17 -380 0 -127 27 -130 29 -143
78 -10 36 -18 47 -47 59 -19 8 -55 14 -80 14 -29 0 -45 4 -45 13 0 6 -13 40
-30 75 -57 120 -183 214 -309 230 l-55 7 -38 65 c-37 63 -98 217 -98 246 0 10
13 14 48 14 75 0 137 26 200 85 85 77 116 89 165 63z m-1532 -333 c47 -16 87
-48 130 -103 38 -49 85 -53 145 -13 68 45 117 56 183 42 65 -13 120 -48 156
-100 31 -46 61 -61 121 -61 24 0 60 -6 78 -14 37 -15 80 -67 90 -107 9 -41 38
-69 77 -75 31 -5 41 -1 84 36 102 88 207 103 303 43 42 -26 92 -83 92 -104 0
-5 -432 -9 -960 -9 -713 0 -960 3 -960 11 0 7 31 42 69 78 l68 66 5 75 c7 116
53 186 148 229 54 25 111 26 171 6z m1649 -720 l0 -75 -1150 0 -1150 0 0 75 0
75 1150 0 1150 0 0 -75z m-163 -412 c-6 -179 -16 -223 -72 -308 -47 -69 -115
-126 -192 -157 l-58 -23 -628 -3 c-407 -2 -649 1 -685 8 -126 23 -240 111
-296 229 -30 65 -31 69 -34 239 l-3 172 987 0 987 0 -6 -157z"/>
<path d="M1312 4779 c-18 -6 -55 -31 -82 -57 -169 -164 -40 -450 194 -430 135
12 230 117 229 254 -1 142 -106 244 -248 243 -33 0 -75 -5 -93 -10z m121 -171
c74 -39 53 -138 -29 -138 -68 0 -98 77 -49 125 27 28 46 31 78 13z"/>
<path d="M1985 4782 c-121 -43 -190 -161 -167 -283 51 -273 433 -278 492 -7
22 103 -23 208 -112 265 -35 22 -57 27 -118 29 -41 2 -84 0 -95 -4z m114 -177
c47 -24 55 -74 19 -112 -28 -30 -74 -30 -105 -1 -37 35 -26 99 20 118 31 12
34 12 66 -5z"/>
<path d="M2646 4783 c-75 -21 -149 -104 -166 -188 -40 -193 144 -356 329 -290
61 21 104 58 136 117 48 89 36 218 -28 287 -50 53 -98 74 -177 77 -41 2 -84 0
-94 -3z m137 -195 c58 -69 -43 -159 -110 -96 -25 24 -30 65 -10 90 33 42 87
45 120 6z"/>
<path d="M3630 4705 l0 -85 85 0 85 0 0 85 0 85 -85 0 -85 0 0 -85z"/>
<path d="M3960 4705 l0 -85 85 0 85 0 0 85 0 85 -85 0 -85 0 0 -85z"/>
<path d="M4290 4705 l0 -85 85 0 85 0 0 85 0 85 -85 0 -85 0 0 -85z"/>
<path d="M4620 4705 l0 -85 85 0 85 0 0 85 0 85 -85 0 -85 0 0 -85z"/>
<path d="M3630 4375 l0 -85 85 0 85 0 0 85 0 85 -85 0 -85 0 0 -85z"/>
<path d="M3960 4375 l0 -85 85 0 85 0 0 85 0 85 -85 0 -85 0 0 -85z"/>
<path d="M4290 4375 l0 -85 85 0 85 0 0 85 0 85 -85 0 -85 0 0 -85z"/>
<path d="M4620 4375 l0 -85 85 0 85 0 0 85 0 85 -85 0 -85 0 0 -85z"/>
</g>
</svg>
