<svg xmlns="http://www.w3.org/2000/svg" xmlns:xlink="http://www.w3.org/1999/xlink" width="500" zoomAndPan="magnify" viewBox="0 0 375 374.999991" height="500" preserveAspectRatio="xMidYMid meet" version="1.0"><defs><clipPath id="id1"><path d="M 37.5 48 L 158 48 L 158 326 L 37.5 326 Z M 37.5 48 " clip-rule="nonzero"/></clipPath></defs><g clip-path="url(#id1)"><path fill="rgb(11.369324%, 16.079712%, 26.269531%)" d="M 157.117188 55.605469 L 51.859375 325.011719 L 40.523438 318.226562 C 39.058594 317.367188 38.199219 315.578125 38.152344 313.046875 L 37.664062 117.722656 C 37.664062 112.636719 41.242188 106.433594 45.703125 103.855469 L 140.019531 49.355469 C 142.25 48.101562 144.269531 47.960938 145.734375 48.84375 Z M 157.117188 55.605469 " fill-opacity="1" fill-rule="nonzero"/></g><path fill="rgb(29.798889%, 36.079407%, 45.878601%)" d="M 151.375 56.183594 C 155.832031 53.613281 159.429688 55.664062 159.445312 60.78125 L 159.941406 256.105469 C 159.957031 261.222656 156.382812 267.417969 151.929688 269.988281 L 57.601562 324.449219 C 53.144531 327.019531 49.546875 324.96875 49.53125 319.851562 L 49.035156 124.527344 C 49.019531 119.410156 52.59375 113.214844 57.046875 110.644531 Z M 151.375 56.183594 " fill-opacity="1" fill-rule="nonzero"/><path fill="rgb(100%, 100%, 100%)" d="M 154.4375 256.113281 C 154.4375 259.300781 151.96875 263.636719 149.167969 265.226562 L 61.121094 316.058594 C 58.429688 317.648438 55.027344 315.671875 55.027344 312.546875 L 54.535156 124.53125 C 54.535156 121.347656 57.003906 117.011719 59.804688 115.417969 L 92.90625 96.316406 C 94.644531 95.3125 96.976562 95.675781 98.070312 97.359375 C 99.3125 99.269531 101.730469 99.65625 104.488281 98.074219 C 108.042969 96.007812 110.96875 91.414062 111.640625 87.210938 C 111.824219 86.0625 112.472656 85.050781 113.476562 84.46875 L 147.851562 64.535156 C 150.539062 62.996094 153.945312 64.972656 154 68.101562 Z M 154.4375 256.113281 " fill-opacity="1" fill-rule="nonzero"/><path fill="rgb(11.369324%, 16.079712%, 26.269531%)" d="M 103.863281 88.1875 C 101.984375 89.273438 100.472656 91.910156 100.480469 94.046875 C 100.488281 96.207031 102.007812 97.074219 103.886719 95.988281 C 105.765625 94.902344 107.277344 92.289062 107.269531 90.128906 C 107.261719 87.992188 105.742188 87.101562 103.863281 88.1875 Z M 103.863281 88.1875 " fill-opacity="1" fill-rule="nonzero"/><path fill="rgb(61.959839%, 66.268921%, 78.819275%)" d="M 45.957031 127.296875 L 45.933594 139.886719 C 45.933594 140.605469 45.65625 141.140625 45.214844 141.398438 L 43.519531 142.394531 L 40.21875 124.066406 L 41.941406 123.066406 C 42.359375 122.8125 42.960938 122.859375 43.613281 123.230469 C 44.914062 123.996094 45.957031 125.808594 45.957031 127.296875 Z M 45.957031 127.296875 " fill-opacity="1" fill-rule="nonzero"/><path fill="rgb(100%, 100%, 100%)" d="M 41.902344 124.234375 C 43.191406 124.976562 44.242188 126.796875 44.238281 128.277344 L 44.203125 140.867188 C 44.199219 142.363281 43.140625 142.96875 41.851562 142.222656 C 40.550781 141.472656 39.496094 139.648438 39.503906 138.152344 L 39.539062 125.5625 C 39.542969 124.082031 40.601562 123.480469 41.902344 124.234375 Z M 41.902344 124.234375 " fill-opacity="1" fill-rule="nonzero"/><path fill="rgb(61.959839%, 66.268921%, 78.819275%)" d="M 45.867188 152.035156 L 45.867188 159.585938 C 45.84375 160.351562 45.609375 160.839844 45.167969 161.097656 L 43.472656 162.09375 L 40.175781 148.808594 L 41.871094 147.808594 C 42.3125 147.550781 42.890625 147.574219 43.542969 147.972656 C 44.84375 148.714844 45.914062 150.550781 45.867188 152.035156 Z M 45.867188 152.035156 " fill-opacity="1" fill-rule="nonzero"/><path fill="rgb(100%, 100%, 100%)" d="M 41.839844 148.964844 C 43.125 149.710938 44.179688 151.53125 44.175781 153.027344 L 44.152344 160.589844 C 44.148438 162.070312 43.089844 162.671875 41.800781 161.929688 C 40.5 161.175781 39.445312 159.355469 39.449219 157.875 L 39.472656 150.3125 C 39.476562 148.816406 40.535156 148.214844 41.839844 148.964844 Z M 41.839844 148.964844 " fill-opacity="1" fill-rule="nonzero"/><path fill="rgb(11.369324%, 16.079712%, 26.269531%)" d="M 45.699219 103.863281 L 140.015625 49.367188 " fill-opacity="1" fill-rule="nonzero"/><path fill="rgb(87.059021%, 87.449646%, 98.429871%)" d="M 131.039062 123.808594 C 131.113281 132.3125 128.039062 141.820312 123.035156 150.183594 C 118.675781 157.6875 112.8125 164.265625 106.238281 168.554688 C 105.664062 168.910156 105.164062 169.269531 104.59375 169.554688 C 103.949219 169.914062 103.304688 170.269531 102.734375 170.554688 C 96.15625 173.84375 90.226562 173.988281 85.863281 171.554688 C 81.003906 168.839844 77.929688 162.90625 77.929688 154.472656 C 77.859375 137.601562 89.726562 117.015625 104.378906 108.582031 C 119.03125 100.074219 130.96875 106.9375 131.039062 123.808594 Z M 131.039062 123.808594 " fill-opacity="1" fill-rule="nonzero"/><path fill="rgb(96.078491%, 78.819275%, 77.648926%)" d="M 96.625 136.863281 C 96.929688 136.683594 97.238281 136.75 97.488281 137 L 97.546875 140.378906 C 97.546875 140.445312 97.550781 140.507812 97.554688 140.574219 C 97.4375 140.765625 97.304688 140.917969 97.15625 141.027344 C 97.125 141.046875 97.097656 141.066406 97.066406 141.082031 C 96.464844 141.429688 95.859375 140.902344 95.683594 139.828125 C 95.527344 138.738281 95.851562 137.511719 96.425781 137.007812 C 96.457031 136.984375 96.484375 136.957031 96.511719 136.9375 C 96.550781 136.910156 96.585938 136.882812 96.625 136.863281 Z M 96.625 136.863281 " fill-opacity="1" fill-rule="nonzero"/><path fill="rgb(95.689392%, 83.918762%, 83.139038%)" d="M 104.53125 124.804688 C 108.644531 122.429688 111.347656 124.085938 111.355469 127.164062 C 111.359375 128.074219 111.339844 128.019531 111.328125 128.59375 C 111.296875 129.933594 111.195312 131.285156 110.980469 132.625 C 110.980469 132.65625 110.980469 132.6875 110.980469 132.71875 C 111.015625 135.523438 109.703125 138.726562 107.722656 141.148438 C 106.152344 143.074219 103.589844 145.085938 101.125 144.980469 C 99.101562 144.890625 97.683594 143.296875 97.554688 140.574219 C 97.550781 140.507812 97.546875 140.445312 97.546875 140.378906 L 97.488281 137 L 97.453125 134.949219 C 97.554688 134.257812 97.761719 133.441406 98.046875 132.433594 C 98.867188 129.625 101.671875 126.453125 104.53125 124.804688 Z M 104.53125 124.804688 " fill-opacity="1" fill-rule="nonzero"/><path fill="rgb(29.798889%, 36.079407%, 45.878601%)" d="M 99.285156 116.109375 C 99.34375 117.460938 100.421875 117.984375 101.601562 117.875 C 102.804688 117.722656 104.140625 117.011719 105.398438 116.4375 C 106.683594 115.875 108.097656 115.242188 109.042969 115.6875 C 110.222656 116.273438 110.175781 117.296875 110.074219 118.320312 C 110.292969 118.082031 110.507812 117.90625 110.714844 117.789062 C 111.9375 117.082031 112.339844 118.191406 112.515625 119.589844 C 112.890625 122.082031 112.800781 124.941406 112.257812 127.972656 C 111.914062 127.925781 111.582031 128.25 111.375 128.527344 C 111.386719 128.058594 111.382812 127.597656 111.355469 127.164062 C 111.347656 124.128906 108.707031 122.390625 104.539062 124.796875 C 100.953125 126.871094 98.125 130.425781 97.453125 134.949219 L 97.488281 137 C 97.191406 136.703125 96.824219 136.660156 96.425781 137.007812 C 96.085938 136.027344 95.753906 135.050781 95.5625 133.960938 C 95.1875 131.886719 95.519531 129.070312 97.0625 126.675781 C 96.058594 123.96875 97.015625 119.589844 99.285156 116.109375 Z M 99.285156 116.109375 " fill-opacity="1" fill-rule="nonzero"/><path fill="rgb(96.078491%, 78.819275%, 77.648926%)" d="M 111.847656 128.074219 C 111.886719 128.050781 111.925781 128.03125 111.960938 128.015625 C 112.066406 127.972656 112.164062 127.960938 112.257812 127.972656 C 112.714844 128.039062 112.992188 128.804688 112.886719 129.894531 C 112.738281 131.160156 112.1875 132.355469 111.566406 132.710938 C 111.539062 132.730469 111.507812 132.746094 111.476562 132.757812 C 111.289062 132.839844 111.121094 132.820312 110.980469 132.71875 C 110.980469 132.6875 110.980469 132.65625 110.980469 132.625 C 111.195312 131.285156 111.296875 129.933594 111.328125 128.59375 C 111.34375 128.570312 111.359375 128.550781 111.375 128.527344 C 111.523438 128.324219 111.683594 128.167969 111.847656 128.074219 Z M 111.847656 128.074219 " fill-opacity="1" fill-rule="nonzero"/><path fill="rgb(96.078491%, 78.819275%, 77.648926%)" d="M 107.722656 141.148438 L 107.726562 141.402344 C 107.445312 144.097656 106.21875 146.671875 104.441406 149.175781 C 102.65625 148.730469 101.421875 147.574219 101.125 145.214844 L 101.125 144.980469 C 101.785156 145.007812 102.511719 144.878906 103.277344 144.574219 L 103.300781 144.589844 L 103.640625 144.421875 L 104.324219 144.0625 L 104.53125 143.941406 L 105.214844 143.515625 L 105.527344 143.304688 L 105.578125 143.246094 C 106.351562 142.660156 107.074219 141.945312 107.722656 141.148438 Z M 107.722656 141.148438 " fill-opacity="1" fill-rule="nonzero"/><path fill="rgb(87.449646%, 19.60907%, 37.649536%)" d="M 123.039062 141.257812 L 123.039062 150.175781 C 118.671875 157.679688 112.816406 164.253906 106.242188 168.554688 C 105.660156 168.902344 105.171875 169.273438 104.59375 169.550781 C 98.792969 172.867188 91.742188 174.828125 85.867188 171.550781 L 85.867188 162.769531 C 85.867188 159.609375 88.007812 155.890625 90.722656 154.335938 L 97.414062 150.480469 L 97.414062 150.457031 L 101.132812 145.207031 C 101.433594 147.574219 102.664062 148.738281 104.453125 149.179688 C 106.21875 146.667969 107.449219 144.089844 107.730469 141.398438 L 111.445312 142.347656 L 111.445312 142.324219 L 118.183594 138.46875 C 120.808594 136.960938 123.039062 138.167969 123.039062 141.257812 Z M 123.039062 141.257812 " fill-opacity="1" fill-rule="nonzero"/><path fill="rgb(87.449646%, 19.60907%, 37.649536%)" d="M 118.175781 138.460938 L 111.457031 142.320312 C 111.167969 145.609375 109.167969 149.46875 106.738281 152.257812 L 106.453125 151.828125 L 105.378906 154.542969 L 106.238281 168.554688 C 112.8125 164.265625 118.675781 157.6875 123.035156 150.183594 L 123.035156 141.25 C 123.035156 138.175781 120.820312 136.960938 118.175781 138.460938 Z M 118.816406 150.328125 C 118.816406 150.683594 118.746094 151.042969 118.53125 151.398438 L 116.671875 154.113281 C 116.53125 154.402344 116.316406 154.617188 116.101562 154.757812 C 115.886719 154.828125 115.671875 154.902344 115.53125 154.828125 L 113.671875 154.1875 C 113.457031 154.113281 113.3125 153.902344 113.3125 153.542969 L 113.3125 148.753906 L 118.816406 145.609375 Z M 118.816406 150.328125 " fill-opacity="1" fill-rule="nonzero"/><path fill="rgb(87.449646%, 19.60907%, 37.649536%)" d="M 103.519531 155.617188 L 102.734375 170.554688 C 96.15625 173.84375 90.226562 173.988281 85.863281 171.554688 L 85.863281 162.765625 C 85.863281 159.621094 88.007812 155.902344 90.726562 154.328125 L 97.445312 150.46875 C 97.660156 153.402344 99.730469 154.902344 102.234375 154.828125 L 102.519531 154.113281 Z M 103.519531 155.617188 " fill-opacity="1" fill-rule="nonzero"/><path fill="rgb(87.059021%, 87.449646%, 98.429871%)" d="M 106.238281 168.554688 C 105.664062 168.910156 105.164062 169.269531 104.59375 169.554688 C 103.949219 169.914062 103.304688 170.269531 102.734375 170.554688 L 103.527344 155.445312 L 105.386719 154.355469 Z M 106.238281 168.554688 " fill-opacity="1" fill-rule="nonzero"/><path fill="rgb(95.289612%, 94.509888%, 98.81897%)" d="M 104.441406 149.175781 L 106.273438 151.652344 L 106.417969 151.863281 L 105.402344 154.527344 L 103.515625 155.617188 L 102.488281 154.128906 L 102.632812 153.757812 Z M 104.441406 149.175781 " fill-opacity="1" fill-rule="nonzero"/><path fill="rgb(79.998779%, 6.269836%, 29.019165%)" d="M 107.726562 141.402344 L 111.453125 142.355469 C 111.199219 145.574219 109.191406 149.449219 106.707031 152.238281 C 106.527344 151.996094 104.265625 148.933594 104.441406 149.175781 C 106.21875 146.671875 107.445312 144.097656 107.726562 141.402344 Z M 107.726562 141.402344 " fill-opacity="1" fill-rule="nonzero"/><path fill="rgb(79.998779%, 6.269836%, 29.019165%)" d="M 101.125 145.214844 C 101.421875 147.574219 102.65625 148.730469 104.441406 149.175781 C 104.324219 149.472656 102.074219 155.164062 102.203125 154.839844 C 99.738281 154.90625 97.6875 153.375 97.417969 150.457031 Z M 101.125 145.214844 " fill-opacity="1" fill-rule="nonzero"/><path fill="rgb(79.998779%, 6.269836%, 29.019165%)" d="M 118.832031 145.601562 L 118.84375 150.355469 C 118.84375 150.683594 118.714844 151.0625 118.507812 151.390625 L 116.679688 154.136719 C 116.507812 154.398438 116.300781 154.601562 116.089844 154.722656 C 115.878906 154.84375 115.671875 154.882812 115.5 154.816406 L 113.664062 154.1875 C 113.453125 154.097656 113.320312 153.875 113.320312 153.542969 L 113.304688 148.789062 Z M 118.832031 145.601562 " fill-opacity="1" fill-rule="nonzero"/><path fill="rgb(89.019775%, 90.589905%, 94.119263%)" d="M 141.863281 162.246094 L 141.914062 180.730469 L 67.109375 223.917969 L 67.058594 205.4375 Z M 141.863281 162.246094 " fill-opacity="1" fill-rule="nonzero"/><path fill="rgb(29.798889%, 36.079407%, 45.878601%)" d="M 82.933594 207.839844 C 82.933594 208.027344 82.886719 208.261719 82.792969 208.527344 C 82.542969 209.105469 82.226562 209.480469 81.820312 209.714844 C 81.664062 209.808594 81.492188 209.871094 81.351562 209.871094 C 81.320312 209.871094 81.210938 209.871094 78.972656 209.058594 C 79.425781 212.09375 79.425781 212.207031 79.425781 212.253906 C 79.425781 212.582031 79.316406 212.941406 79.097656 213.285156 C 78.878906 213.644531 78.644531 213.910156 78.347656 214.082031 C 78.066406 214.238281 77.8125 214.269531 77.59375 214.160156 C 77.375 214.050781 77.265625 213.832031 77.265625 213.503906 C 77.265625 213.457031 77.265625 213.332031 77.703125 209.792969 C 75.464844 213.191406 75.371094 213.285156 75.324219 213.347656 C 75.183594 213.519531 75.027344 213.628906 74.855469 213.738281 C 74.464844 213.957031 74.136719 213.957031 73.902344 213.675781 C 73.808594 213.535156 73.746094 213.347656 73.746094 213.097656 C 73.746094 212.644531 73.933594 212.175781 74.261719 211.796875 L 77.078125 208.917969 L 74.277344 209.261719 C 73.902344 209.246094 73.746094 208.980469 73.730469 208.527344 C 73.730469 208.292969 73.792969 208.027344 73.871094 207.792969 C 74.121094 207.226562 74.417969 206.851562 74.808594 206.617188 C 74.980469 206.523438 75.152344 206.476562 75.324219 206.492188 C 75.355469 206.507812 75.433594 206.492188 77.703125 207.304688 C 77.234375 204.269531 77.234375 204.160156 77.234375 204.113281 C 77.234375 203.800781 77.34375 203.441406 77.5625 203.078125 C 77.78125 202.71875 78.050781 202.4375 78.332031 202.28125 C 78.597656 202.125 78.863281 202.09375 79.066406 202.203125 C 79.285156 202.3125 79.394531 202.53125 79.394531 202.875 C 79.394531 202.90625 79.394531 203.015625 78.972656 206.570312 C 81.195312 203.171875 81.304688 203.0625 81.335938 203.015625 C 81.445312 202.859375 81.617188 202.6875 81.835938 202.5625 C 82.210938 202.34375 82.527344 202.375 82.777344 202.640625 C 82.871094 202.8125 82.917969 203 82.917969 203.171875 C 82.917969 203.644531 82.761719 204.113281 82.429688 204.550781 L 79.582031 207.460938 L 82.398438 207.085938 C 82.761719 207.117188 82.933594 207.367188 82.933594 207.839844 Z M 82.933594 207.839844 " fill-opacity="1" fill-rule="nonzero"/><path fill="rgb(29.798889%, 36.079407%, 45.878601%)" d="M 96.019531 200.277344 C 96.019531 200.464844 95.972656 200.714844 95.878906 200.980469 C 95.625 201.546875 95.3125 201.921875 94.90625 202.171875 C 94.734375 202.25 94.578125 202.3125 94.4375 202.328125 C 94.390625 202.3125 94.3125 202.3125 92.042969 201.515625 C 92.449219 204.160156 92.511719 204.613281 92.511719 204.691406 C 92.511719 205.035156 92.402344 205.378906 92.183594 205.742188 C 91.964844 206.085938 91.714844 206.367188 91.433594 206.523438 C 91.132812 206.695312 90.882812 206.710938 90.679688 206.601562 C 90.460938 206.507812 90.351562 206.273438 90.351562 205.945312 C 90.351562 205.898438 90.351562 205.789062 90.789062 202.234375 C 88.535156 205.648438 88.457031 205.742188 88.410156 205.789062 C 88.269531 205.960938 88.097656 206.085938 87.941406 206.179688 C 87.535156 206.414062 87.222656 206.414062 86.972656 206.132812 C 86.875 205.992188 86.828125 205.804688 86.828125 205.554688 C 86.828125 205.082031 87.003906 204.644531 87.332031 204.253906 L 90.148438 201.359375 L 87.347656 201.71875 C 86.988281 201.6875 86.8125 201.4375 86.8125 200.980469 C 86.8125 200.714844 86.859375 200.480469 86.957031 200.246094 C 87.191406 199.683594 87.503906 199.292969 87.894531 199.074219 C 88.066406 198.964844 88.238281 198.933594 88.394531 198.949219 C 88.425781 198.949219 88.519531 198.949219 90.773438 199.746094 C 90.320312 196.726562 90.320312 196.613281 90.320312 196.566406 C 90.320312 196.222656 90.429688 195.878906 90.648438 195.519531 C 90.851562 195.175781 91.117188 194.894531 91.402344 194.738281 C 91.667969 194.597656 91.933594 194.550781 92.152344 194.660156 C 92.371094 194.753906 92.480469 194.988281 92.480469 195.316406 C 92.480469 195.394531 92.433594 195.894531 92.042969 199.027344 C 94.28125 195.613281 94.375 195.519531 94.40625 195.472656 C 94.515625 195.316406 94.703125 195.144531 94.921875 195.003906 C 95.296875 194.785156 95.609375 194.816406 95.847656 195.097656 C 95.957031 195.269531 96.003906 195.441406 96.003906 195.628906 C 96.003906 196.097656 95.832031 196.550781 95.5 197.007812 L 92.667969 199.902344 L 95.484375 199.542969 C 95.832031 199.574219 96.019531 199.824219 96.019531 200.277344 Z M 96.019531 200.277344 " fill-opacity="1" fill-rule="nonzero"/><path fill="rgb(29.798889%, 36.079407%, 45.878601%)" d="M 134.726562 174.339844 L 131.910156 177.253906 L 134.710938 176.894531 C 135.070312 176.910156 135.242188 177.160156 135.242188 177.628906 C 135.242188 177.816406 135.195312 178.050781 135.117188 178.332031 C 134.867188 178.898438 134.539062 179.273438 134.148438 179.507812 C 133.976562 179.601562 133.820312 179.664062 133.679688 179.664062 C 133.632812 179.664062 133.539062 179.664062 131.28125 178.851562 C 131.691406 181.511719 131.738281 181.964844 131.738281 182.042969 C 131.738281 182.371094 131.628906 182.730469 131.425781 183.074219 C 131.203125 183.4375 130.953125 183.703125 130.65625 183.875 C 130.390625 184.03125 130.125 184.0625 129.90625 183.953125 C 129.6875 183.84375 129.578125 183.625 129.578125 183.296875 C 129.578125 183.246094 129.578125 183.136719 130.015625 179.585938 C 127.777344 182.980469 127.683594 183.089844 127.652344 183.136719 C 127.511719 183.3125 127.355469 183.4375 127.183594 183.53125 C 126.773438 183.765625 126.445312 183.75 126.210938 183.46875 C 126.117188 183.34375 126.070312 183.152344 126.070312 182.886719 C 126.070312 182.417969 126.226562 181.996094 126.570312 181.605469 L 129.390625 178.707031 L 126.570312 179.070312 C 126.226562 179.039062 126.054688 178.785156 126.054688 178.316406 C 126.054688 178.066406 126.101562 177.816406 126.195312 177.582031 C 126.429688 177.019531 126.742188 176.628906 127.136719 176.40625 C 127.292969 176.3125 127.464844 176.28125 127.636719 176.296875 C 127.667969 176.296875 127.761719 176.296875 130.015625 177.097656 C 129.5625 174.074219 129.5625 173.949219 129.5625 173.902344 C 129.546875 173.574219 129.65625 173.230469 129.875 172.871094 C 130.09375 172.511719 130.359375 172.246094 130.640625 172.085938 C 130.90625 171.929688 131.171875 171.898438 131.394531 171.992188 C 131.597656 172.101562 131.707031 172.339844 131.707031 172.667969 C 131.707031 172.746094 131.660156 173.246094 131.28125 176.359375 C 133.519531 172.964844 133.601562 172.871094 133.664062 172.808594 C 133.757812 172.652344 133.929688 172.480469 134.148438 172.355469 C 134.539062 172.132812 134.851562 172.164062 135.085938 172.449219 C 135.179688 172.621094 135.242188 172.792969 135.242188 172.980469 C 135.242188 173.449219 135.070312 173.902344 134.726562 174.339844 Z M 134.726562 174.339844 " fill-opacity="1" fill-rule="nonzero"/><path fill="rgb(29.798889%, 36.079407%, 45.878601%)" d="M 109.085938 192.734375 C 109.085938 192.921875 109.039062 193.15625 108.945312 193.4375 C 108.710938 194 108.382812 194.375 107.976562 194.613281 C 107.804688 194.707031 107.664062 194.769531 107.507812 194.769531 C 107.476562 194.753906 107.382812 194.769531 105.128906 193.953125 C 105.519531 196.613281 105.582031 197.070312 105.582031 197.148438 C 105.582031 197.476562 105.472656 197.835938 105.253906 198.179688 C 105.050781 198.539062 104.785156 198.804688 104.515625 198.980469 C 104.21875 199.136719 103.96875 199.167969 103.75 199.058594 C 103.546875 198.949219 103.421875 198.726562 103.421875 198.382812 C 103.421875 198.351562 103.421875 198.226562 103.859375 194.691406 C 101.621094 198.085938 101.527344 198.179688 101.480469 198.242188 C 101.339844 198.414062 101.183594 198.539062 101.011719 198.632812 C 100.621094 198.871094 100.292969 198.855469 100.054688 198.570312 C 99.945312 198.445312 99.898438 198.257812 99.898438 197.992188 C 99.898438 197.523438 100.085938 197.085938 100.417969 196.695312 L 103.234375 193.8125 L 100.417969 194.171875 C 100.054688 194.140625 99.882812 193.890625 99.882812 193.421875 C 99.882812 193.171875 99.929688 192.9375 100.039062 192.6875 C 100.277344 192.121094 100.589844 191.730469 100.964844 191.511719 C 101.136719 191.417969 101.308594 191.386719 101.480469 191.402344 C 101.527344 191.402344 101.683594 191.417969 103.859375 192.203125 C 103.40625 189.164062 103.40625 189.054688 103.40625 189.007812 C 103.40625 188.679688 103.515625 188.320312 103.71875 187.976562 C 103.9375 187.613281 104.203125 187.347656 104.46875 187.191406 C 104.738281 187.035156 105.019531 187.003906 105.222656 187.097656 C 105.441406 187.207031 105.566406 187.425781 105.566406 187.757812 C 105.566406 187.851562 105.503906 188.351562 105.113281 191.464844 C 107.367188 188.070312 107.445312 187.976562 107.492188 187.914062 C 107.601562 187.757812 107.773438 187.582031 107.992188 187.457031 C 108.382812 187.238281 108.695312 187.269531 108.914062 187.550781 C 109.023438 187.710938 109.070312 187.898438 109.070312 188.085938 C 109.070312 188.554688 108.898438 189.007812 108.570312 189.445312 L 105.753906 192.359375 L 108.570312 191.980469 C 108.914062 192.011719 109.085938 192.28125 109.085938 192.734375 Z M 109.085938 192.734375 " fill-opacity="1" fill-rule="nonzero"/><path fill="rgb(29.798889%, 36.079407%, 45.878601%)" d="M 122.171875 185.171875 C 122.171875 185.375 122.125 185.613281 122.03125 185.878906 C 121.796875 186.441406 121.46875 186.832031 121.0625 187.050781 C 120.890625 187.160156 120.734375 187.207031 120.59375 187.207031 C 120.546875 187.207031 120.46875 187.207031 118.214844 186.410156 C 118.667969 189.445312 118.667969 189.539062 118.667969 189.585938 C 118.667969 189.933594 118.558594 190.277344 118.339844 190.636719 C 118.136719 190.980469 117.867188 191.261719 117.585938 191.417969 C 117.304688 191.589844 117.054688 191.605469 116.835938 191.496094 C 116.617188 191.402344 116.507812 191.167969 116.507812 190.839844 C 116.507812 190.792969 116.507812 190.683594 116.945312 187.144531 C 114.691406 190.542969 114.613281 190.636719 114.566406 190.699219 C 114.425781 190.855469 114.269531 190.980469 114.097656 191.074219 C 113.707031 191.308594 113.359375 191.308594 113.140625 191.027344 C 113.03125 190.886719 112.984375 190.699219 112.984375 190.449219 C 112.984375 189.996094 113.15625 189.523438 113.5 189.148438 L 116.304688 186.269531 L 113.5 186.613281 C 113.140625 186.597656 112.96875 186.332031 112.96875 185.878906 C 112.96875 185.644531 113.015625 185.375 113.109375 185.140625 C 113.34375 184.578125 113.675781 184.1875 114.050781 183.96875 C 114.222656 183.875 114.394531 183.828125 114.550781 183.84375 C 114.582031 183.859375 114.675781 183.84375 116.929688 184.640625 C 116.476562 181.621094 116.476562 181.496094 116.476562 181.464844 C 116.476562 181.136719 116.585938 180.789062 116.804688 180.414062 C 117.007812 180.070312 117.289062 179.789062 117.554688 179.632812 C 117.820312 179.476562 118.089844 179.445312 118.308594 179.554688 C 118.527344 179.648438 118.636719 179.882812 118.636719 180.210938 C 118.636719 180.257812 118.636719 180.351562 118.199219 183.921875 C 120.4375 180.523438 120.53125 180.414062 120.578125 180.351562 C 120.671875 180.210938 120.859375 180.039062 121.078125 179.914062 C 121.453125 179.695312 121.765625 179.710938 122 179.992188 C 122.109375 180.164062 122.15625 180.335938 122.15625 180.523438 C 122.15625 180.992188 121.984375 181.449219 121.65625 181.902344 L 118.839844 184.796875 L 121.640625 184.4375 C 122 184.46875 122.171875 184.71875 122.171875 185.171875 Z M 122.171875 185.171875 " fill-opacity="1" fill-rule="nonzero"/><path fill="rgb(89.019775%, 90.589905%, 94.119263%)" d="M 141.863281 191.566406 L 141.917969 210.050781 L 67.113281 253.238281 L 67.058594 234.753906 Z M 141.863281 191.566406 " fill-opacity="1" fill-rule="nonzero"/><path fill="rgb(29.798889%, 36.079407%, 45.878601%)" d="M 82.933594 237.15625 C 82.933594 237.34375 82.886719 237.578125 82.792969 237.84375 C 82.542969 238.425781 82.226562 238.800781 81.820312 239.035156 C 81.664062 239.128906 81.492188 239.191406 81.351562 239.191406 C 81.320312 239.191406 81.210938 239.191406 78.972656 238.378906 C 79.425781 241.414062 79.425781 241.523438 79.425781 241.570312 C 79.425781 241.898438 79.316406 242.257812 79.097656 242.605469 C 78.878906 242.964844 78.644531 243.230469 78.347656 243.402344 C 78.066406 243.558594 77.8125 243.589844 77.59375 243.480469 C 77.375 243.371094 77.265625 243.152344 77.265625 242.824219 C 77.265625 242.777344 77.265625 242.652344 77.703125 239.113281 C 75.464844 242.507812 75.371094 242.605469 75.324219 242.667969 C 75.183594 242.839844 75.027344 242.949219 74.855469 243.058594 C 74.464844 243.277344 74.136719 243.277344 73.902344 242.996094 C 73.808594 242.855469 73.746094 242.667969 73.746094 242.414062 C 73.746094 241.960938 73.933594 241.492188 74.261719 241.117188 L 77.078125 238.238281 L 74.277344 238.582031 C 73.902344 238.566406 73.746094 238.300781 73.730469 237.84375 C 73.730469 237.609375 73.792969 237.34375 73.871094 237.109375 C 74.121094 236.546875 74.417969 236.171875 74.808594 235.9375 C 74.980469 235.839844 75.152344 235.792969 75.324219 235.808594 C 75.355469 235.824219 75.433594 235.808594 77.703125 236.625 C 77.234375 233.585938 77.234375 233.476562 77.234375 233.429688 C 77.234375 233.117188 77.34375 232.757812 77.5625 232.398438 C 77.78125 232.039062 78.050781 231.757812 78.332031 231.601562 C 78.597656 231.445312 78.863281 231.410156 79.066406 231.523438 C 79.285156 231.632812 79.394531 231.851562 79.394531 232.195312 C 79.394531 232.226562 79.394531 232.335938 78.972656 235.890625 C 81.195312 232.492188 81.304688 232.382812 81.335938 232.335938 C 81.445312 232.179688 81.617188 232.007812 81.835938 231.882812 C 82.210938 231.664062 82.527344 231.695312 82.777344 231.960938 C 82.871094 232.132812 82.917969 232.320312 82.917969 232.492188 C 82.917969 232.960938 82.761719 233.429688 82.429688 233.871094 L 79.582031 236.78125 L 82.398438 236.40625 C 82.761719 236.4375 82.933594 236.6875 82.933594 237.15625 Z M 82.933594 237.15625 " fill-opacity="1" fill-rule="nonzero"/><path fill="rgb(29.798889%, 36.079407%, 45.878601%)" d="M 96.019531 229.597656 C 96.019531 229.785156 95.972656 230.035156 95.878906 230.300781 C 95.625 230.863281 95.3125 231.238281 94.90625 231.492188 C 94.734375 231.570312 94.578125 231.632812 94.4375 231.648438 C 94.390625 231.632812 94.3125 231.632812 92.042969 230.832031 C 92.449219 233.476562 92.511719 233.933594 92.511719 234.011719 C 92.511719 234.355469 92.402344 234.699219 92.183594 235.058594 C 91.964844 235.402344 91.714844 235.683594 91.433594 235.839844 C 91.132812 236.015625 90.882812 236.03125 90.679688 235.921875 C 90.460938 235.824219 90.351562 235.589844 90.351562 235.261719 C 90.351562 235.214844 90.351562 235.105469 90.789062 231.554688 C 88.535156 234.964844 88.457031 235.058594 88.410156 235.105469 C 88.269531 235.277344 88.097656 235.402344 87.941406 235.496094 C 87.535156 235.730469 87.222656 235.730469 86.972656 235.449219 C 86.875 235.308594 86.828125 235.121094 86.828125 234.871094 C 86.828125 234.402344 87.003906 233.964844 87.332031 233.570312 L 90.148438 230.675781 L 87.347656 231.035156 C 86.988281 231.003906 86.8125 230.753906 86.8125 230.300781 C 86.8125 230.035156 86.859375 229.800781 86.957031 229.566406 C 87.191406 229 87.503906 228.609375 87.894531 228.390625 C 88.066406 228.28125 88.238281 228.25 88.394531 228.265625 C 88.425781 228.265625 88.519531 228.265625 90.773438 229.0625 C 90.320312 226.042969 90.320312 225.933594 90.320312 225.886719 C 90.320312 225.542969 90.429688 225.199219 90.648438 224.839844 C 90.851562 224.492188 91.117188 224.210938 91.402344 224.054688 C 91.667969 223.914062 91.933594 223.867188 92.152344 223.976562 C 92.371094 224.070312 92.480469 224.304688 92.480469 224.632812 C 92.480469 224.710938 92.433594 225.214844 92.042969 228.34375 C 94.28125 224.933594 94.375 224.839844 94.40625 224.792969 C 94.515625 224.632812 94.703125 224.460938 94.921875 224.320312 C 95.296875 224.101562 95.609375 224.132812 95.847656 224.414062 C 95.957031 224.585938 96.003906 224.757812 96.003906 224.949219 C 96.003906 225.417969 95.832031 225.871094 95.5 226.324219 L 92.667969 229.222656 L 95.484375 228.859375 C 95.832031 228.890625 96.019531 229.140625 96.019531 229.597656 Z M 96.019531 229.597656 " fill-opacity="1" fill-rule="nonzero"/><path fill="rgb(29.798889%, 36.079407%, 45.878601%)" d="M 134.726562 203.660156 L 131.910156 206.570312 L 134.710938 206.210938 C 135.070312 206.226562 135.242188 206.476562 135.242188 206.945312 C 135.242188 207.136719 135.195312 207.371094 135.117188 207.652344 C 134.867188 208.214844 134.539062 208.589844 134.148438 208.824219 C 133.976562 208.917969 133.820312 208.980469 133.679688 208.980469 C 133.632812 208.980469 133.539062 208.980469 131.28125 208.167969 C 131.691406 210.828125 131.738281 211.28125 131.738281 211.359375 C 131.738281 211.691406 131.628906 212.050781 131.425781 212.394531 C 131.203125 212.753906 130.953125 213.019531 130.65625 213.191406 C 130.390625 213.347656 130.125 213.378906 129.90625 213.269531 C 129.6875 213.160156 129.578125 212.941406 129.578125 212.613281 C 129.578125 212.566406 129.578125 212.457031 130.015625 208.902344 C 127.777344 212.300781 127.683594 212.410156 127.652344 212.457031 C 127.511719 212.628906 127.355469 212.753906 127.183594 212.847656 C 126.773438 213.082031 126.445312 213.066406 126.210938 212.785156 C 126.117188 212.660156 126.070312 212.472656 126.070312 212.207031 C 126.070312 211.738281 126.226562 211.3125 126.570312 210.921875 L 129.390625 208.027344 L 126.570312 208.386719 C 126.226562 208.355469 126.054688 208.105469 126.054688 207.636719 C 126.054688 207.386719 126.101562 207.136719 126.195312 206.898438 C 126.429688 206.335938 126.742188 205.945312 127.136719 205.726562 C 127.292969 205.632812 127.464844 205.601562 127.636719 205.617188 C 127.667969 205.617188 127.761719 205.617188 130.015625 206.414062 C 129.5625 203.394531 129.5625 203.269531 129.5625 203.222656 C 129.546875 202.894531 129.65625 202.550781 129.875 202.1875 C 130.09375 201.828125 130.359375 201.5625 130.640625 201.40625 C 130.90625 201.25 131.171875 201.21875 131.394531 201.3125 C 131.597656 201.421875 131.707031 201.65625 131.707031 201.984375 C 131.707031 202.0625 131.660156 202.5625 131.28125 205.679688 C 133.519531 202.28125 133.601562 202.1875 133.664062 202.125 C 133.757812 201.96875 133.929688 201.796875 134.148438 201.671875 C 134.539062 201.453125 134.851562 201.484375 135.085938 201.765625 C 135.179688 201.9375 135.242188 202.109375 135.242188 202.296875 C 135.242188 202.769531 135.070312 203.222656 134.726562 203.660156 Z M 134.726562 203.660156 " fill-opacity="1" fill-rule="nonzero"/><path fill="rgb(29.798889%, 36.079407%, 45.878601%)" d="M 109.085938 222.050781 C 109.085938 222.238281 109.039062 222.472656 108.945312 222.757812 C 108.710938 223.320312 108.382812 223.695312 107.976562 223.929688 C 107.804688 224.023438 107.664062 224.085938 107.507812 224.085938 C 107.476562 224.070312 107.382812 224.085938 105.128906 223.273438 C 105.519531 225.933594 105.582031 226.386719 105.582031 226.464844 C 105.582031 226.792969 105.472656 227.15625 105.253906 227.5 C 105.050781 227.859375 104.785156 228.125 104.515625 228.296875 C 104.21875 228.453125 103.96875 228.484375 103.75 228.375 C 103.546875 228.265625 103.421875 228.046875 103.421875 227.703125 C 103.421875 227.671875 103.421875 227.546875 103.859375 224.007812 C 101.621094 227.40625 101.527344 227.5 101.480469 227.5625 C 101.339844 227.734375 101.183594 227.859375 101.011719 227.953125 C 100.621094 228.1875 100.292969 228.171875 100.054688 227.890625 C 99.945312 227.765625 99.898438 227.578125 99.898438 227.3125 C 99.898438 226.839844 100.085938 226.402344 100.417969 226.011719 L 103.234375 223.132812 L 100.417969 223.492188 C 100.054688 223.460938 99.882812 223.210938 99.882812 222.742188 C 99.882812 222.488281 99.929688 222.253906 100.039062 222.003906 C 100.277344 221.441406 100.589844 221.050781 100.964844 220.832031 C 101.136719 220.738281 101.308594 220.707031 101.480469 220.722656 C 101.527344 220.722656 101.683594 220.738281 103.859375 221.519531 C 103.40625 218.484375 103.40625 218.375 103.40625 218.328125 C 103.40625 217.996094 103.515625 217.636719 103.71875 217.292969 C 103.9375 216.933594 104.203125 216.667969 104.46875 216.511719 C 104.738281 216.355469 105.019531 216.324219 105.222656 216.417969 C 105.441406 216.527344 105.566406 216.746094 105.566406 217.074219 C 105.566406 217.167969 105.503906 217.667969 105.113281 220.785156 C 107.367188 217.386719 107.445312 217.292969 107.492188 217.230469 C 107.601562 217.074219 107.773438 216.902344 107.992188 216.777344 C 108.382812 216.558594 108.695312 216.589844 108.914062 216.871094 C 109.023438 217.027344 109.070312 217.214844 109.070312 217.402344 C 109.070312 217.871094 108.898438 218.328125 108.570312 218.765625 L 105.753906 221.675781 L 108.570312 221.300781 C 108.914062 221.332031 109.085938 221.597656 109.085938 222.050781 Z M 109.085938 222.050781 " fill-opacity="1" fill-rule="nonzero"/><path fill="rgb(29.798889%, 36.079407%, 45.878601%)" d="M 122.171875 214.492188 C 122.171875 214.695312 122.125 214.929688 122.03125 215.195312 C 121.796875 215.757812 121.46875 216.152344 121.0625 216.371094 C 120.890625 216.480469 120.734375 216.527344 120.59375 216.527344 C 120.546875 216.527344 120.46875 216.527344 118.214844 215.726562 C 118.667969 218.765625 118.667969 218.859375 118.667969 218.90625 C 118.667969 219.25 118.558594 219.59375 118.339844 219.953125 C 118.136719 220.296875 117.867188 220.582031 117.585938 220.738281 C 117.304688 220.910156 117.054688 220.925781 116.835938 220.816406 C 116.617188 220.722656 116.507812 220.488281 116.507812 220.15625 C 116.507812 220.109375 116.507812 220 116.945312 216.464844 C 114.691406 219.859375 114.613281 219.953125 114.566406 220.015625 C 114.425781 220.171875 114.269531 220.296875 114.097656 220.394531 C 113.707031 220.628906 113.359375 220.628906 113.140625 220.347656 C 113.03125 220.203125 112.984375 220.015625 112.984375 219.765625 C 112.984375 219.3125 113.15625 218.84375 113.5 218.46875 L 116.304688 215.585938 L 113.5 215.933594 C 113.140625 215.917969 112.96875 215.648438 112.96875 215.195312 C 112.96875 214.960938 113.015625 214.695312 113.109375 214.460938 C 113.34375 213.898438 113.675781 213.503906 114.050781 213.285156 C 114.222656 213.191406 114.394531 213.144531 114.550781 213.160156 C 114.582031 213.175781 114.675781 213.160156 116.929688 213.960938 C 116.476562 210.9375 116.476562 210.8125 116.476562 210.78125 C 116.476562 210.453125 116.585938 210.109375 116.804688 209.734375 C 117.007812 209.390625 117.289062 209.105469 117.554688 208.949219 C 117.820312 208.792969 118.089844 208.761719 118.308594 208.871094 C 118.527344 208.964844 118.636719 209.203125 118.636719 209.53125 C 118.636719 209.578125 118.636719 209.671875 118.199219 213.238281 C 120.4375 209.84375 120.53125 209.734375 120.578125 209.671875 C 120.671875 209.53125 120.859375 209.359375 121.078125 209.234375 C 121.453125 209.011719 121.765625 209.027344 122 209.3125 C 122.109375 209.484375 122.15625 209.65625 122.15625 209.84375 C 122.15625 210.3125 121.984375 210.765625 121.65625 211.21875 L 118.839844 214.117188 L 121.640625 213.757812 C 122 213.789062 122.171875 214.039062 122.171875 214.492188 Z M 122.171875 214.492188 " fill-opacity="1" fill-rule="nonzero"/><path fill="rgb(47.059631%, 90.589905%, 35.289001%)" d="M 122.054688 234.113281 L 122.078125 245 L 86.917969 265.304688 L 86.890625 254.414062 Z M 122.054688 234.113281 " fill-opacity="1" fill-rule="nonzero"/><path fill="rgb(100%, 100%, 100%)" d="M 97.042969 256.527344 C 97.042969 256.636719 97.011719 256.753906 96.945312 256.863281 C 96.878906 256.976562 96.792969 257.0625 96.703125 257.113281 L 94.1875 258.5625 C 94.0625 258.636719 93.945312 258.65625 93.859375 258.601562 C 93.769531 258.546875 93.71875 258.449219 93.71875 258.296875 L 93.707031 253.472656 C 93.707031 253.363281 93.738281 253.246094 93.804688 253.128906 C 93.871094 253.019531 93.953125 252.929688 94.042969 252.875 C 94.140625 252.820312 94.226562 252.8125 94.292969 252.851562 C 94.359375 252.886719 94.390625 252.964844 94.390625 253.074219 L 94.402344 257.648438 L 96.695312 256.324219 C 96.792969 256.269531 96.878906 256.265625 96.945312 256.300781 C 97.011719 256.34375 97.042969 256.417969 97.042969 256.527344 Z M 97.042969 256.527344 " fill-opacity="1" fill-rule="nonzero"/><path fill="rgb(100%, 100%, 100%)" d="M 102.171875 249.570312 C 101.964844 249.246094 101.671875 249.0625 101.300781 249.027344 C 100.921875 248.988281 100.484375 249.117188 99.988281 249.402344 C 99.488281 249.691406 99.050781 250.070312 98.675781 250.539062 C 98.300781 251.007812 98.011719 251.527344 97.8125 252.082031 C 97.605469 252.640625 97.5 253.214844 97.488281 253.796875 C 97.507812 254.355469 97.609375 254.8125 97.816406 255.128906 C 98.019531 255.453125 98.316406 255.636719 98.691406 255.671875 C 99.066406 255.703125 99.507812 255.582031 100.007812 255.289062 C 100.5 255.007812 100.941406 254.625 101.3125 254.15625 C 101.683594 253.691406 101.976562 253.171875 102.183594 252.605469 C 102.386719 252.042969 102.496094 251.472656 102.5 250.90625 C 102.496094 250.335938 102.378906 249.890625 102.171875 249.570312 Z M 101.597656 252.550781 C 101.457031 252.960938 101.25 253.351562 100.96875 253.703125 C 100.703125 254.046875 100.371094 254.335938 100.007812 254.550781 C 99.628906 254.765625 99.300781 254.855469 99.023438 254.824219 C 98.75 254.789062 98.542969 254.644531 98.402344 254.398438 C 98.25 254.15625 98.183594 253.8125 98.175781 253.398438 C 98.175781 252.984375 98.246094 252.5625 98.398438 252.140625 C 98.53125 251.734375 98.746094 251.347656 99.011719 250.996094 C 99.289062 250.648438 99.617188 250.363281 99.988281 250.140625 C 100.359375 249.929688 100.691406 249.835938 100.964844 249.875 C 101.238281 249.902344 101.453125 250.050781 101.59375 250.292969 C 101.738281 250.542969 101.8125 250.878906 101.816406 251.292969 C 101.816406 251.714844 101.746094 252.136719 101.597656 252.550781 Z M 101.597656 252.550781 " fill-opacity="1" fill-rule="nonzero"/><path fill="rgb(100%, 100%, 100%)" d="M 107.660156 249.886719 C 107.660156 250 107.628906 250.128906 107.582031 250.25 C 107.53125 250.375 107.457031 250.484375 107.378906 250.574219 C 106.847656 251.183594 106.300781 251.65625 105.75 251.976562 C 105.261719 252.257812 104.824219 252.386719 104.445312 252.355469 C 104.066406 252.324219 103.761719 252.140625 103.554688 251.824219 C 103.34375 251.503906 103.238281 251.050781 103.238281 250.484375 C 103.234375 249.910156 103.34375 249.324219 103.5625 248.75 C 103.777344 248.179688 104.082031 247.652344 104.453125 247.195312 C 104.832031 246.734375 105.25 246.367188 105.714844 246.097656 C 106.082031 245.886719 106.402344 245.75 106.683594 245.695312 C 106.957031 245.640625 107.234375 245.625 107.484375 245.660156 C 107.527344 245.664062 107.5625 245.683594 107.59375 245.726562 C 107.625 245.769531 107.636719 245.820312 107.640625 245.890625 C 107.640625 245.988281 107.613281 246.09375 107.554688 246.191406 C 107.496094 246.300781 107.417969 246.378906 107.320312 246.433594 C 107.265625 246.464844 107.207031 246.476562 107.167969 246.476562 C 106.941406 246.457031 106.722656 246.472656 106.5 246.519531 C 106.28125 246.574219 106.042969 246.679688 105.789062 246.824219 C 105.429688 247.027344 105.105469 247.300781 104.832031 247.628906 C 104.542969 247.964844 104.316406 248.347656 104.160156 248.769531 C 104 249.191406 103.921875 249.636719 103.921875 250.09375 C 103.921875 250.507812 104 250.835938 104.152344 251.074219 C 104.304688 251.320312 104.527344 251.453125 104.8125 251.476562 C 105.097656 251.503906 105.441406 251.398438 105.832031 251.171875 C 106.265625 250.921875 106.671875 250.574219 107.050781 250.125 L 107.042969 248.691406 L 105.898438 249.355469 C 105.8125 249.402344 105.738281 249.417969 105.679688 249.375 C 105.617188 249.34375 105.585938 249.277344 105.585938 249.171875 C 105.585938 249.074219 105.617188 248.972656 105.679688 248.875 C 105.734375 248.765625 105.8125 248.683594 105.898438 248.636719 L 107.289062 247.832031 C 107.390625 247.777344 107.476562 247.765625 107.542969 247.804688 C 107.617188 247.84375 107.652344 247.929688 107.652344 248.039062 Z M 107.660156 249.886719 " fill-opacity="1" fill-rule="nonzero"/><path fill="rgb(100%, 100%, 100%)" d="M 109.582031 249.324219 C 109.582031 249.441406 109.550781 249.550781 109.484375 249.660156 C 109.417969 249.777344 109.332031 249.867188 109.238281 249.921875 C 109.140625 249.976562 109.0625 249.984375 108.996094 249.945312 C 108.929688 249.910156 108.898438 249.835938 108.898438 249.722656 L 108.886719 244.707031 C 108.886719 244.597656 108.917969 244.484375 108.976562 244.367188 C 109.042969 244.257812 109.128906 244.164062 109.222656 244.109375 C 109.3125 244.0625 109.398438 244.050781 109.464844 244.085938 C 109.53125 244.128906 109.570312 244.203125 109.570312 244.3125 Z M 109.582031 249.324219 " fill-opacity="1" fill-rule="nonzero"/><path fill="rgb(100%, 100%, 100%)" d="M 115.265625 245.886719 C 115.265625 246.039062 115.214844 246.195312 115.117188 246.359375 C 115.027344 246.519531 114.910156 246.648438 114.777344 246.722656 L 114.691406 246.769531 C 114.613281 246.820312 114.539062 246.835938 114.472656 246.832031 C 114.398438 246.832031 114.34375 246.804688 114.300781 246.761719 L 111.585938 243.84375 L 111.601562 248.160156 C 111.601562 248.277344 111.5625 248.390625 111.503906 248.5 C 111.433594 248.613281 111.351562 248.703125 111.253906 248.757812 C 111.160156 248.8125 111.082031 248.820312 111.015625 248.78125 C 110.945312 248.746094 110.917969 248.671875 110.917969 248.554688 L 110.898438 243.703125 C 110.898438 243.550781 110.945312 243.398438 111.039062 243.226562 C 111.128906 243.0625 111.246094 242.945312 111.378906 242.867188 L 111.472656 242.8125 C 111.628906 242.726562 111.765625 242.734375 111.878906 242.835938 L 114.574219 245.738281 L 114.5625 241.425781 C 114.5625 241.316406 114.59375 241.203125 114.660156 241.09375 C 114.726562 240.976562 114.808594 240.890625 114.898438 240.835938 C 114.996094 240.773438 115.082031 240.769531 115.148438 240.8125 C 115.214844 240.84375 115.246094 240.925781 115.253906 241.03125 Z M 115.265625 245.886719 " fill-opacity="1" fill-rule="nonzero"/><path fill="rgb(99.609375%, 73.728943%, 12.159729%)" d="M 188.152344 246.445312 C 188.175781 247.582031 188.105469 248.722656 187.921875 249.953125 C 185.414062 266.332031 175.421875 282.082031 161.066406 297.460938 C 153.679688 298.085938 147.453125 297.320312 142.785156 294.601562 L 139.347656 292.605469 C 134.886719 289.980469 131.84375 285.636719 130.585938 279.085938 C 130.402344 278.085938 130.332031 277.015625 130.332031 275.878906 L 130.214844 243.148438 C 142.15625 236.085938 150.914062 226.1875 157.394531 214.339844 L 159.207031 215.386719 L 159.324219 215.457031 C 165.621094 218.570312 173.84375 217.800781 184.644531 211.714844 L 188.058594 213.738281 Z M 188.152344 246.445312 " fill-opacity="1" fill-rule="nonzero"/><path fill="rgb(97.648621%, 65.879822%, 23.919678%)" d="M 161.742188 216.910156 L 158.316406 214.914062 C 164.734375 218.644531 173.261719 218.117188 184.644531 211.726562 L 188.070312 213.726562 C 176.6875 220.117188 168.164062 220.644531 161.742188 216.910156 Z M 161.742188 216.910156 " fill-opacity="1" fill-rule="nonzero"/><path fill="rgb(97.648621%, 65.879822%, 23.919678%)" d="M 142.78125 294.601562 L 139.351562 292.601562 C 134.894531 289.984375 131.835938 285.632812 130.582031 279.074219 C 130.398438 278.078125 130.324219 277.011719 130.324219 275.867188 L 130.210938 243.136719 L 133.640625 245.140625 L 133.75 277.871094 C 133.75 279.011719 133.824219 280.082031 134.007812 281.078125 C 135.261719 287.636719 138.320312 291.988281 142.78125 294.601562 Z M 142.78125 294.601562 " fill-opacity="1" fill-rule="nonzero"/><path fill="rgb(99.609375%, 73.728943%, 12.159729%)" d="M 133.640625 245.152344 L 130.214844 243.152344 C 142.144531 236.074219 150.910156 226.191406 157.40625 214.34375 L 160.832031 216.34375 C 154.335938 228.191406 145.574219 238.074219 133.640625 245.152344 Z M 133.640625 245.152344 " fill-opacity="1" fill-rule="nonzero"/><path fill="rgb(100%, 81.568909%, 42.349243%)" d="M 160.832031 216.34375 C 167.347656 220.679688 176.140625 220.425781 188.070312 213.726562 L 188.164062 246.445312 C 188.167969 247.582031 188.101562 248.730469 187.914062 249.945312 C 185.417969 266.339844 175.417969 282.078125 161.0625 297.464844 C 146.640625 298.695312 136.585938 294.53125 134.003906 281.074219 C 133.8125 280.074219 133.738281 279.003906 133.734375 277.871094 L 133.640625 245.152344 C 145.574219 238.074219 154.335938 228.191406 160.832031 216.34375 Z M 160.832031 216.34375 " fill-opacity="1" fill-rule="nonzero"/><path fill="rgb(100%, 100%, 100%)" d="M 156.675781 293.769531 C 145.417969 293.769531 139.050781 289.125 137.214844 279.566406 C 137.074219 278.816406 137.003906 277.964844 136.996094 276.878906 L 136.910156 246.8125 L 137.34375 246.542969 C 147.089844 240.457031 154.875 232.328125 161.152344 221.695312 L 161.574219 220.984375 L 162.328125 221.324219 C 168.242188 224.011719 175.269531 223.4375 183.523438 219.648438 L 184.820312 219.050781 L 184.898438 246.925781 C 184.902344 247.996094 184.832031 248.988281 184.6875 249.957031 C 182.59375 263.679688 174.636719 277.882812 160.367188 293.371094 L 160.121094 293.640625 L 159.75 293.667969 C 158.699219 293.734375 157.675781 293.769531 156.675781 293.769531 Z M 138.75 247.828125 L 138.832031 276.871094 C 138.839844 277.835938 138.898438 278.582031 139.019531 279.222656 C 140.710938 288.011719 146.15625 291.933594 156.675781 291.933594 C 157.519531 291.933594 158.382812 291.90625 159.265625 291.855469 C 173.121094 276.75 180.84375 262.949219 182.867188 249.679688 C 183.003906 248.804688 183.066406 247.90625 183.0625 246.929688 L 182.992188 221.894531 C 175.152344 225.238281 168.269531 225.730469 162.324219 223.324219 C 156.058594 233.71875 148.335938 241.746094 138.75 247.828125 Z M 138.75 247.828125 " fill-opacity="1" fill-rule="nonzero"/><path fill="rgb(6.669617%, 11.369324%, 19.999695%)" d="M 164.851562 255.503906 L 166.570312 263.820312 L 155.304688 270.304688 C 155.34375 270.066406 157.066406 259.371094 156.953125 260.058594 C 155.421875 259.617188 154.421875 258.015625 154.398438 255.621094 C 154.398438 251.636719 157.144531 246.585938 160.902344 244.402344 C 164.476562 242.359375 167.375 243.96875 167.410156 248.140625 C 167.410156 250.535156 166.410156 253.253906 164.851562 255.503906 Z M 164.851562 255.503906 " fill-opacity="1" fill-rule="nonzero"/><path fill="rgb(29.798889%, 36.079407%, 45.878601%)" d="M 164.855469 255.496094 C 166.410156 253.253906 167.414062 250.523438 167.414062 248.132812 C 167.394531 245.132812 165.882812 243.472656 163.703125 243.515625 C 163.554688 243.515625 163.40625 243.535156 163.261719 243.558594 C 163.972656 244.335938 164.371094 245.53125 164.394531 247.082031 C 164.394531 249.476562 163.40625 252.203125 161.855469 254.449219 L 163.554688 262.78125 L 163.550781 262.78125 L 166.574219 263.820312 Z M 164.855469 255.496094 " fill-opacity="1" fill-rule="nonzero"/><path fill="rgb(11.369324%, 16.079712%, 26.269531%)" d="M 163.550781 262.78125 L 155.789062 267.25 C 155.753906 267.484375 155.269531 270.546875 155.308594 270.3125 L 166.574219 263.828125 L 166.574219 263.820312 Z M 163.550781 262.78125 " fill-opacity="1" fill-rule="nonzero"/><path fill="rgb(6.669617%, 11.369324%, 19.999695%)" d="M 163.933594 250.078125 C 163.515625 251.59375 162.785156 253.109375 161.84375 254.441406 L 162.183594 256.140625 L 163.542969 262.785156 C 163.308594 262.917969 155.296875 267.546875 155.804688 267.253906 C 155.839844 267.019531 157.027344 259.609375 156.953125 260.0625 C 155.410156 259.621094 154.417969 258.023438 154.390625 255.621094 C 154.390625 250.464844 159.023438 244.019531 163.253906 243.566406 C 163.960938 244.324219 164.378906 245.527344 164.40625 247.09375 C 164.40625 248.0625 164.25 249.058594 163.933594 250.078125 Z M 163.933594 250.078125 " fill-opacity="1" fill-rule="nonzero"/><path fill="rgb(95.689392%, 83.918762%, 83.139038%)" d="M 188.710938 129.878906 C 188.710938 129.878906 185.578125 121.042969 182.324219 119.246094 C 179.066406 117.449219 175.230469 115.554688 173.480469 115.554688 C 172.695312 115.554688 172.617188 116.125 172.765625 116.75 C 172.988281 117.664062 173.589844 118.441406 174.375 118.957031 L 178.214844 121.484375 C 178.378906 121.59375 178.285156 121.847656 178.089844 121.820312 C 176.011719 121.527344 170.300781 120.433594 167.042969 117.074219 C 166.660156 116.679688 166.183594 116.371094 165.640625 116.300781 C 164.683594 116.175781 163.597656 116.710938 165.175781 120.75 C 166.507812 124.160156 168.363281 127.367188 169.769531 129.566406 C 170.96875 131.4375 172.847656 132.765625 175.003906 133.292969 L 182.710938 135.179688 L 184.777344 136.371094 Z M 188.710938 129.878906 " fill-opacity="1" fill-rule="nonzero"/><path fill="rgb(69.018555%, 72.158813%, 81.17981%)" d="M 283.324219 294.269531 L 282.980469 299.75 C 282.929688 300.601562 282.761719 301.4375 282.496094 302.242188 C 282.132812 303.355469 281.636719 305.179688 281.636719 306.917969 C 281.636719 307.789062 281.214844 308.65625 280.636719 309.429688 C 279.027344 311.585938 276.476562 312.808594 273.789062 313.058594 C 271.9375 313.222656 269.757812 313.15625 268.308594 312.214844 C 267.039062 311.386719 266.328125 309.890625 266.875 307.320312 C 268.710938 298.703125 271.890625 294.269531 271.890625 294.269531 L 276.398438 291.941406 L 281.539062 293.671875 Z M 283.324219 294.269531 " fill-opacity="1" fill-rule="nonzero"/><path fill="rgb(89.019775%, 90.589905%, 94.119263%)" d="M 281.539062 293.671875 L 281.214844 299.058594 C 281.160156 299.902344 280.992188 300.738281 280.726562 301.542969 C 280.355469 302.65625 279.863281 304.480469 279.863281 306.226562 C 279.863281 307.089844 279.445312 307.957031 278.867188 308.730469 C 277.257812 310.894531 274.699219 312.109375 272.019531 312.359375 C 270.820312 312.464844 269.492188 312.480469 268.308594 312.214844 C 267.039062 311.386719 266.328125 309.890625 266.875 307.320312 C 268.710938 298.703125 271.890625 294.269531 271.890625 294.269531 L 276.398438 291.941406 Z M 281.539062 293.671875 " fill-opacity="1" fill-rule="nonzero"/><path fill="rgb(69.018555%, 72.158813%, 81.17981%)" d="M 260.050781 286.222656 C 258.925781 287.347656 255.320312 288.007812 253.726562 288.257812 C 253.316406 288.320312 252.960938 288 252.960938 287.589844 L 252.960938 287.414062 C 252.960938 286.929688 252.496094 286.566406 252.019531 286.695312 C 250.589844 287.089844 247.882812 288.046875 246.5 290.003906 C 245.960938 290.761719 245.238281 291.4375 244.480469 292.015625 C 242.03125 293.890625 239 294.878906 235.910156 294.976562 C 233.171875 295.066406 230.15625 294.496094 230.1875 291.558594 C 230.1875 291.476562 230.1875 291.386719 230.195312 291.292969 C 230.558594 286.019531 237.203125 282.566406 238.21875 282.0625 C 238.324219 282.011719 238.429688 281.957031 238.539062 281.898438 L 241.921875 280.082031 C 243.644531 279.164062 245.082031 277.777344 246.074219 276.089844 L 256.9375 276.089844 L 259.921875 277.761719 L 260.050781 277.828125 C 260.050781 277.828125 261.507812 284.765625 260.050781 286.222656 Z M 260.050781 286.222656 " fill-opacity="1" fill-rule="nonzero"/><path fill="rgb(89.019775%, 90.589905%, 94.119263%)" d="M 259.640625 284.585938 C 258.515625 285.707031 254.910156 286.367188 253.316406 286.609375 C 252.914062 286.671875 252.550781 286.359375 252.550781 285.949219 L 252.550781 285.777344 C 252.550781 285.28125 252.085938 284.917969 251.609375 285.046875 C 250.183594 285.441406 247.472656 286.40625 246.089844 288.355469 C 245.550781 289.117188 244.832031 289.792969 244.070312 290.367188 C 241.621094 292.25 238.597656 293.230469 235.507812 293.328125 C 233.375 293.398438 231.089844 293.070312 230.1875 291.558594 C 230.1875 291.476562 230.1875 291.386719 230.195312 291.292969 C 230.558594 286.019531 237.203125 282.566406 238.21875 282.0625 C 238.324219 282.011719 238.429688 281.957031 238.539062 281.898438 L 241.921875 280.082031 C 243.644531 279.164062 245.082031 277.777344 246.074219 276.089844 L 256.9375 276.089844 L 259.921875 277.761719 C 260.253906 279.902344 260.65625 283.566406 259.640625 284.585938 Z M 259.640625 284.585938 " fill-opacity="1" fill-rule="nonzero"/><path fill="rgb(29.798889%, 36.079407%, 45.878601%)" d="M 260.21875 260.34375 L 260.042969 277.816406 C 259.871094 279.601562 256.820312 280.269531 253.601562 280.074219 C 249.832031 279.898438 245.867188 278.511719 246.066406 276.429688 L 246.042969 263.914062 L 241.332031 237.644531 C 241.332031 237.644531 233.949219 212.8125 233.425781 204.238281 C 233.03125 198.339844 235.929688 180.746094 235.929688 180.746094 L 249.039062 175.640625 L 250.453125 177.820312 L 257.464844 188.699219 C 257.464844 188.699219 254.542969 223.667969 256.597656 235.09375 C 257.914062 242.550781 260.785156 250.382812 260.21875 260.34375 Z M 260.21875 260.34375 " fill-opacity="1" fill-rule="nonzero"/><path fill="rgb(27.059937%, 32.548523%, 40.779114%)" d="M 260.21875 260.34375 L 260.042969 277.816406 C 259.871094 279.601562 256.820312 280.269531 253.601562 280.074219 L 253.078125 263.914062 L 248.347656 237.644531 C 248.347656 237.644531 240.984375 212.8125 240.441406 204.238281 C 240.070312 198.339844 242.945312 180.746094 242.945312 180.746094 L 250.453125 177.820312 L 257.464844 188.699219 C 257.464844 188.699219 254.542969 223.667969 256.597656 235.09375 C 257.914062 242.550781 260.785156 250.382812 260.21875 260.34375 Z M 260.21875 260.34375 " fill-opacity="1" fill-rule="nonzero"/><path fill="rgb(27.059937%, 32.548523%, 40.779114%)" d="M 283.734375 293.429688 C 283.660156 295.066406 280.390625 295.734375 277.242188 295.5625 C 274.195312 295.414062 271.246094 294.496094 271.292969 292.933594 L 270.800781 277.71875 L 260.339844 233.902344 L 250.328125 198.117188 C 250.128906 197.375 250.054688 196.628906 250.082031 195.886719 L 250.625 185.378906 L 261.035156 184.1875 L 265.222656 183.695312 L 274.269531 185.378906 L 276.277344 213.804688 C 276.277344 213.804688 275.0625 230.433594 276.277344 235.785156 C 277.242188 240.171875 282.050781 248.078125 282.917969 252.488281 C 284.949219 262.527344 283.734375 293.429688 283.734375 293.429688 Z M 283.734375 293.429688 " fill-opacity="1" fill-rule="nonzero"/><path fill="rgb(29.798889%, 36.079407%, 45.878601%)" d="M 277.242188 295.5625 C 274.195312 295.414062 271.246094 294.496094 271.292969 292.933594 L 270.800781 277.71875 L 260.339844 233.902344 L 250.328125 198.117188 C 250.128906 197.375 250.054688 196.628906 250.082031 195.886719 L 250.625 185.378906 L 261.035156 184.1875 L 267.476562 185.378906 L 269.460938 213.804688 C 269.460938 213.804688 268.269531 230.433594 269.460938 235.785156 C 270.453125 240.171875 275.234375 248.078125 276.128906 252.488281 C 277.664062 260.046875 277.441406 284.136719 277.242188 295.5625 Z M 277.242188 295.5625 " fill-opacity="1" fill-rule="nonzero"/><path fill="rgb(87.059021%, 87.449646%, 98.429871%)" d="M 189.878906 129.300781 L 187.9375 128.308594 C 186.628906 127.519531 184.042969 130.878906 183.167969 133.421875 C 182.78125 134.574219 182.738281 135.5625 183.339844 135.921875 C 183.339844 135.921875 185.390625 137.566406 188.484375 139.839844 Z M 189.878906 129.300781 " fill-opacity="1" fill-rule="nonzero"/><path fill="rgb(96.078491%, 78.819275%, 77.648926%)" d="M 321.167969 139.265625 C 321.167969 139.265625 321.191406 127.195312 324.074219 127.601562 C 326.957031 128.007812 325.140625 133.191406 325.140625 133.191406 C 325.140625 133.191406 328.238281 125.40625 330.671875 126.113281 C 333.597656 126.960938 337.316406 129.480469 333.148438 136.65625 C 328.980469 143.835938 325.039062 143.488281 325.039062 143.488281 Z M 321.167969 139.265625 " fill-opacity="1" fill-rule="nonzero"/><path fill="rgb(87.059021%, 87.449646%, 98.429871%)" d="M 327.375 143.152344 C 326.214844 144.308594 319.925781 137.988281 321.085938 136.832031 L 320.199219 137.71875 C 319.039062 138.875 325.328125 145.195312 326.488281 144.039062 Z M 327.375 143.152344 " fill-opacity="1" fill-rule="nonzero"/><path fill="rgb(34.118652%, 70.199585%, 99.609375%)" d="M 326.886719 143.777344 C 326.886719 143.777344 314.839844 171.230469 305.964844 172.472656 C 298.65625 173.484375 285.753906 151.023438 285.753906 151.023438 C 285.753906 151.023438 277.332031 166.953125 275.914062 172.207031 C 275.050781 175.367188 275.609375 177.957031 276.183594 179.523438 C 276.914062 181.511719 277.410156 183.578125 277.832031 185.65625 L 278.121094 187.101562 C 277.953125 189.820312 276.007812 191.871094 273.039062 193.289062 C 261.335938 198.960938 233.585938 195.074219 234.242188 184.394531 L 238.765625 138.257812 C 238.765625 138.257812 221.761719 153.597656 214.578125 153.804688 C 204.730469 154.089844 184.285156 137.191406 184.285156 137.191406 C 183.632812 136.800781 183.679688 135.730469 184.101562 134.488281 C 185.046875 131.734375 187.847656 128.097656 189.261719 128.953125 L 212.539062 138.839844 C 213.144531 139.121094 213.855469 139.015625 214.355469 138.570312 L 228.011719 126.425781 C 228.933594 125.605469 229.6875 124.621094 230.3125 123.554688 C 234.296875 116.742188 239.148438 113.199219 244.765625 112.546875 C 274.300781 106.46875 289.96875 131.730469 289.96875 131.730469 L 305.402344 153.328125 C 305.789062 153.867188 306.582031 153.894531 307.003906 153.386719 L 320.40625 137.265625 C 319.207031 138.453125 325.691406 144.96875 326.886719 143.777344 Z M 326.886719 143.777344 " fill-opacity="1" fill-rule="nonzero"/><path fill="rgb(28.62854%, 48.239136%, 99.609375%)" d="M 277.796875 185.484375 L 278.121094 187.101562 C 277.953125 189.820312 276.007812 191.871094 273.039062 193.289062 C 273.101562 185.546875 272.183594 176.0625 270.925781 165.960938 C 270.925781 165.960938 277.625 139.144531 278.402344 141.476562 C 279.179688 143.808594 285.753906 151.023438 285.753906 151.023438 C 285.753906 151.023438 277.332031 166.953125 275.914062 172.207031 C 275.105469 175.164062 275.542969 177.617188 276.070312 179.203125 C 276.753906 181.269531 277.375 183.355469 277.796875 185.484375 Z M 277.796875 185.484375 " fill-opacity="1" fill-rule="nonzero"/><path fill="rgb(28.62854%, 48.239136%, 99.609375%)" d="M 238.765625 125.449219 L 238.765625 138.257812 C 238.765625 138.257812 221.761719 153.597656 214.578125 153.804688 C 204.730469 154.089844 184.285156 137.191406 184.285156 137.191406 C 183.632812 136.800781 183.679688 135.730469 184.101562 134.488281 C 189.417969 137.84375 200.539062 144.460938 206.664062 146.328125 C 209.632812 147.234375 211.4375 146.871094 212.535156 146.085938 C 214.609375 144.597656 217.078125 143.835938 219.632812 143.792969 C 226.78125 143.679688 232.359375 137.265625 232.359375 137.265625 Z M 238.765625 125.449219 " fill-opacity="1" fill-rule="nonzero"/><path fill="rgb(28.62854%, 48.239136%, 99.609375%)" d="M 273.902344 117.5 C 273.972656 117.34375 274.03125 117.191406 274.085938 117.046875 C 269.523438 114.203125 263.207031 111.214844 257.648438 109.773438 L 257.648438 109.765625 C 257.195312 109.640625 256.730469 109.53125 256.277344 109.433594 C 254.539062 110.644531 253.171875 111.605469 253.171875 111.605469 C 251.535156 114.445312 250.777344 117.496094 250.832031 120.210938 C 250.890625 122.890625 252.542969 125.222656 255.007812 126.296875 C 256.746094 127.046875 258.585938 127.433594 260.566406 127.328125 C 263.558594 127.175781 266.554688 126.140625 268.75 124.09375 C 271.328125 121.679688 273.128906 119.261719 273.902344 117.5 " fill-opacity="1" fill-rule="nonzero"/><path fill="rgb(96.078491%, 78.819275%, 77.648926%)" d="M 254.453125 117.152344 L 255.492188 112.738281 L 268.894531 104.632812 L 271.40625 115.472656 C 271.40625 115.472656 269.769531 119.945312 265.996094 122.476562 C 263.394531 124.21875 260.085938 124.550781 257.105469 123.59375 C 255.648438 123.125 254.695312 122.355469 254.3125 120.867188 C 254.183594 120.371094 254.171875 119.851562 254.214844 119.34375 C 254.214844 119.34375 254.394531 117.410156 254.453125 117.152344 Z M 254.453125 117.152344 " fill-opacity="1" fill-rule="nonzero"/><path fill="rgb(95.689392%, 83.918762%, 83.139038%)" d="M 247.957031 90.585938 C 246.859375 93.363281 246.683594 96.40625 246.648438 99.390625 C 246.585938 104.792969 246.941406 110.210938 247.976562 115.515625 C 248.109375 116.1875 248.257812 116.875 248.609375 117.464844 C 249.15625 118.375 250.769531 119.199219 251.800781 119.433594 C 252.835938 119.671875 253.914062 119.601562 254.964844 119.441406 C 261.003906 118.535156 265.679688 115.296875 270.433594 111.460938 C 272.847656 109.515625 275.210938 106.78125 276.613281 104.011719 C 278.011719 101.246094 278.191406 97.648438 276.269531 95.210938 C 268.964844 85.15625 259.140625 85.160156 247.957031 90.585938 Z M 247.957031 90.585938 " fill-opacity="1" fill-rule="nonzero"/><path fill="rgb(29.798889%, 36.079407%, 45.878601%)" d="M 267.523438 96.148438 C 267.433594 95.480469 267.265625 94.832031 267.011719 94.203125 C 266.527344 92.996094 265.234375 92.320312 263.957031 92.558594 C 254.917969 94.25 247.257812 92.429688 246.117188 88.5 C 245.996094 88.074219 246.050781 87.617188 246.242188 87.21875 C 249.574219 80.246094 254.796875 76.082031 262.542969 75.675781 C 266.714844 75.644531 270.425781 76.546875 273.496094 78.765625 C 277.738281 81.832031 279.917969 86.988281 279.496094 92.207031 C 279.285156 94.820312 278.851562 97.589844 277.632812 100.578125 C 275.855469 98.730469 273.191406 98.421875 271.855469 101.328125 C 271.542969 102.011719 270.871094 102.457031 270.117188 102.457031 C 269.199219 102.457031 268.410156 101.800781 268.246094 100.894531 L 268.085938 100.015625 C 267.851562 98.734375 267.695312 97.441406 267.523438 96.148438 Z M 267.523438 96.148438 " fill-opacity="1" fill-rule="nonzero"/></svg>