<?xml version="1.0" encoding="UTF-8"?>
<!-- Created with Inkscape (http://www.inkscape.org/) -->
<svg width="48.94mm" height="24.265mm" version="1.1" viewBox="0 0 48.94 24.265" xmlns="http://www.w3.org/2000/svg">
 <g transform="translate(-126.45 -58.194)">
  <g fill="#615587">
   <polygon class="st1" transform="matrix(.26458 0 0 .26458 67.335 -45.475)" points="330.85 447.58 347.2 447.58 347.2 430.13 367.01 392.47 350.74 392.47 339.02 414.96 326.99 392.47 310.64 392.47 330.85 430.44"/>
   <polygon class="st1" transform="matrix(.26458 0 0 .26458 67.335 -45.475)" points="384.06 429.82 387.71 438.78 390.93 447.58 408.39 447.58 385.67 392.47 368.84 392.47 378.27 415.6 366.35 415.6 358.8 429.82"/>
   <path class="st1" d="m144.05 58.194c-2.3178 0-4.4 0.99219-5.8605 2.5691 0.35454 0.81227 0.53975 1.741 0.53975 2.7834 0 2.0664-0.70908 3.7888-2.0241 4.9715l2.4791 4.0005c1.3467 1.0372 3.0295 1.6589 4.8604 1.6589 4.4132 0 7.9904-3.5772 7.9904-7.9904 5e-3 -4.4159-3.5719-7.9931-7.9851-7.9931z"/>
   <path class="st1" d="m138 63.546c0-3.3073-2.2463-5.1805-6.1568-5.1805h-5.3948l1.6272 3.3232h2.1934v0.0053h1.5743c1.2885 0 2.0373 0.70644 2.0373 1.9764 0 1.3097-0.74877 2.0161-2.0373 2.0161h-1.8124l2.2754 4.6514 1.2832 2.6088h4.9107l-2.9528-4.7625c1.5796-0.89429 2.4527-2.4765 2.4527-4.6381z" stroke-width=".26458"/>
  </g>
  <g transform="matrix(.26458 0 0 .26458 67.335 -45.475)">
   <path class="st2" d="m256.06 472.58h1.68v-14.72h-1.68v-1.58h5.11v1.58h-1.7v14.72h1.7v1.58h-5.11z"/>
   <path class="st2" d="m264.05 463.43c0-0.36-0.2-0.56-0.56-0.56h-1.07v-1.5h1.78c1.07 0 1.55 0.46 1.55 1.42v0.58c0 0.51-0.05 0.92-0.05 0.92h0.05c0.64-1.73 2.64-3.23 4.63-3.23 2.36 0 3.59 1.09 3.97 3.2h0.05c0.69-1.73 2.54-3.2 4.7-3.2 3.1 0 4.25 1.81 4.25 4.96v6.08c0 0.38 0.2 0.56 0.56 0.56h1.07v1.5h-1.81c-1.09 0-1.55-0.46-1.55-1.55v-6.15c0-2.09-0.43-3.81-2.77-3.81-1.93 0-3.53 1.73-4.04 3.61-0.18 0.56-0.23 1.17-0.23 1.86v6.05h-1.73v-7.7c0-1.93-0.28-3.81-2.7-3.81-2.09 0-3.64 1.81-4.17 3.76-0.15 0.53-0.2 1.12-0.2 1.7v6.05h-1.73z"/>
   <path class="st2" d="m287.22 463.43c0-0.36-0.2-0.56-0.56-0.56h-1.07v-1.5h1.78c1.07 0 1.55 0.46 1.55 1.42v0.58c0 0.51-0.05 0.92-0.05 0.92h0.05c0.64-1.73 2.64-3.23 4.63-3.23 2.36 0 3.59 1.09 3.97 3.2h0.05c0.69-1.73 2.54-3.2 4.7-3.2 3.1 0 4.25 1.81 4.25 4.96v6.08c0 0.38 0.2 0.56 0.56 0.56h1.07v1.5h-1.81c-1.09 0-1.55-0.46-1.55-1.55v-6.15c0-2.09-0.43-3.81-2.77-3.81-1.93 0-3.53 1.73-4.04 3.61-0.18 0.56-0.23 1.17-0.23 1.86v6.05h-1.73v-7.7c0-1.93-0.28-3.81-2.7-3.81-2.09 0-3.64 1.81-4.17 3.76-0.15 0.53-0.2 1.12-0.2 1.7v6.05h-1.73z"/>
   <path class="st2" d="m315.93 461.06c3.74 0 6.76 2.85 6.76 6.64 0 3.87-3.03 6.76-6.74 6.76-3.74 0-6.76-2.9-6.76-6.76 0-3.79 3.03-6.64 6.74-6.64zm0.03 11.85c2.72 0 4.96-2.24 4.96-5.21 0-2.9-2.24-5.06-4.96-5.06-2.75 0-4.98 2.16-4.98 5.06-0.01 2.97 2.23 5.21 4.98 5.21z"/>
   <path class="st2" d="m325.11 458.34c0-0.36-0.2-0.56-0.56-0.56h-1.07v-1.5h1.81c1.09 0 1.55 0.46 1.55 1.55v4.63c0 0.59-0.05 1.04-0.05 1.04h0.05s1.07-2.44 4.35-2.44c3.43 0 5.57 2.75 5.57 6.71 0 4.04-2.42 6.69-5.77 6.69-3.05 0-4.2-2.47-4.2-2.47h-0.05s0.05 0.43 0.05 1.04v1.12h-1.68zm5.75 14.6c2.26 0 4.12-1.91 4.12-5.16 0-3.13-1.68-5.14-4.04-5.14-2.14 0-4.14 1.53-4.14 5.16-0.01 2.57 1.31 5.14 4.06 5.14z"/>
   <path class="st2" d="m339.66 463.43c0-0.36-0.2-0.56-0.56-0.56h-1.07v-1.5h1.81c1.09 0 1.55 0.46 1.55 1.55v9.18c0 0.38 0.2 0.56 0.56 0.56h1.07v1.5h-1.81c-1.09 0-1.55-0.46-1.55-1.55zm-0.05-7.15h1.68v2.19h-1.68z"/>
   <path class="st2" d="m345.38 458.34c0-0.36-0.2-0.56-0.56-0.56h-1.07v-1.5h1.81c1.09 0 1.55 0.46 1.55 1.55v14.27c0 0.38 0.2 0.56 0.56 0.56h1.07v1.5h-1.81c-1.09 0-1.55-0.46-1.55-1.55z"/>
   <path class="st2" d="m351.26 463.43c0-0.36-0.2-0.56-0.56-0.56h-1.07v-1.5h1.81c1.09 0 1.55 0.46 1.55 1.55v9.18c0 0.38 0.2 0.56 0.56 0.56h1.07v1.5h-1.81c-1.09 0-1.55-0.46-1.55-1.55zm-0.05-7.15h1.68v2.19h-1.68z"/>
   <path class="st2" d="m362.12 461.06c3.54 0 5.37 2.72 5.37 5.9 0 0.3-0.05 0.86-0.05 0.86h-9.82c0.05 3.23 2.31 5.09 4.96 5.09 2.34 0 3.84-1.58 3.84-1.58l0.84 1.3s-1.86 1.83-4.76 1.83c-3.79 0-6.69-2.75-6.69-6.69 0-4.19 2.88-6.71 6.31-6.71zm3.58 5.39c-0.1-2.64-1.73-3.94-3.61-3.94-2.11 0-3.97 1.37-4.4 3.94z"/>
   <path class="st2" d="m370.44 463.43c0-0.36-0.2-0.56-0.56-0.56h-1.07v-1.5h1.78c1.07 0 1.55 0.43 1.55 1.45v0.86c0 0.53-0.05 0.97-0.05 0.97h0.05c0.61-1.93 2.03-3.41 4.04-3.41 0.36 0 0.69 0.08 0.69 0.08v1.7s-0.31-0.05-0.64-0.05c-1.81 0-3.15 1.42-3.71 3.31-0.25 0.81-0.36 1.68-0.36 2.49v5.39h-1.73v-10.73z"/>
  </g>
  <g transform="matrix(.26458 0 0 .26458 67.335 -45.475)">
   <circle class="st2" cx="330" cy="481.79" r="1.74"/>
   <circle class="st2" cx="320.6" cy="481.79" r="1.74"/>
   <circle class="st2" cx="311.2" cy="481.79" r="1.74"/>
   <circle class="st2" cx="301.81" cy="481.79" r="1.74"/>
  </g>
 </g>
 <style type="text/css">.st0{fill:#615587;}
	.st1{fill:#615587ff;}
	.st2{fill:#D1A87B;}</style>
</svg>
