<?xml version="1.0" standalone="no"?><!DOCTYPE svg PUBLIC "-//W3C//DTD SVG 1.1//EN" "http://www.w3.org/Graphics/SVG/1.1/DTD/svg11.dtd"><svg t="1647216665372" class="icon" viewBox="0 0 1024 1024" version="1.1" xmlns="http://www.w3.org/2000/svg" p-id="11286" xmlns:xlink="http://www.w3.org/1999/xlink" width="200" height="200"><defs><style type="text/css"></style></defs><path d="M512 581.824c38.56 0 69.824-31.264 69.824-69.824s-31.264-69.824-69.824-69.824c-38.56 0-69.824 31.264-69.824 69.824s31.264 69.824 69.824 69.824zM512 861.088c38.56 0 69.824-31.264 69.824-69.824s-31.264-69.824-69.824-69.824c-38.56 0-69.824 31.264-69.824 69.824s31.264 69.824 69.824 69.824zM512 302.56c38.56 0 69.824-31.264 69.824-69.824s-31.264-69.824-69.824-69.824c-38.56 0-69.824 31.264-69.824 69.824s31.264 69.824 69.824 69.824z" p-id="11287"></path></svg>