<?xml version="1.0" standalone="no"?><!DOCTYPE svg PUBLIC "-//W3C//DTD SVG 1.1//EN" "http://www.w3.org/Graphics/SVG/1.1/DTD/svg11.dtd"><svg t="1647221877261" class="icon" viewBox="0 0 1024 1024" version="1.1" xmlns="http://www.w3.org/2000/svg" p-id="753" xmlns:xlink="http://www.w3.org/1999/xlink" width="200" height="200"><defs><style type="text/css"></style></defs><path d="M456.48372622 313.68320949a34.95253333 34.95253333 0 0 0 35.70983823 34.95253334 35.651584 35.651584 0 0 0 34.603008-36.4088889 35.30205867 35.30205867 0 0 0-46.60337778-32.21458488 34.95253333 34.95253333 0 0 0-23.94248534 33.43792355zM607.18739911 349.1017766a34.95253333 34.95253333 0 0 0 35.70983822 34.95253333 35.70983822 35.70983822 0 0 0 34.66126222-34.95253333 34.95253333 34.95253333 0 1 0-70.37110044-0.524288z" fill="#8a8a8a" p-id="754"></path><path d="M948.90666667 442.19202371h-33.72919467V202.88367883a171.61693867 171.61693867 0 0 0-171.442176-171.442176 187.11256178 187.11256178 0 0 0-186.93779911 186.9377991 29.70965333 29.70965333 0 0 0 59.41930666 0 127.63500089 127.63500089 0 0 1 127.51849245-127.46023822A112.08112355 112.08112355 0 0 1 855.69991111 202.88367883v239.30834488H72.87967289a24.81629867 24.81629867 0 1 0 0 49.57434312H110.04586667v128.974848a207.09376 207.09376 0 0 0 145.227776 197.4235591l-23.30168889 63.1475769a24.75804445 24.75804445 0 0 0 14.73831822 31.80680533 24.29201067 24.29201067 0 0 0 8.50511645 1.51460977 24.69979022 24.69979022 0 0 0 23.30168888-16.19467377l26.2144-71.303168q5.82542222 0.34952533 12.058624 0.34952533h383.02151112c4.36906667 0 8.67987911 0 12.99069155-0.40777956l23.94248533 70.72062578a24.69979022 24.69979022 0 0 0 23.30168889 16.83547022 25.04931555 25.04931555 0 0 0 7.92257423-1.28159288 24.75804445 24.75804445 0 0 0 15.4956231-31.39902579l-21.55406222-64.07964443a210.82203022 210.82203022 0 0 0 148.14048712-201.0353209v-125.0718151H948.90666667a24.81629867 24.81629867 0 1 0 0-49.57434312z" fill="#8a8a8a" p-id="755"></path></svg>