<?xml version="1.0" standalone="no"?><!DOCTYPE svg PUBLIC "-//W3C//DTD SVG 1.1//EN" "http://www.w3.org/Graphics/SVG/1.1/DTD/svg11.dtd"><svg t="1647221663389" class="icon" viewBox="0 0 1024 1024" version="1.1" xmlns="http://www.w3.org/2000/svg" p-id="59748" xmlns:xlink="http://www.w3.org/1999/xlink" width="200" height="200"><defs><style type="text/css"></style></defs><path d="M545.8 377c0-1.2 0-2.2 0.2-3.4 0.2-1.2 0.2-2.2 0.4-3.2s0.4-2.2 0.8-3.2 0.6-2 1.2-3.2c0.4-1 0.8-2 1.4-3 0.6-1 1-2 1.8-2.8 0.6-1 1.2-1.8 2-2.6s1.4-1.6 2.2-2.4c0.8-0.8 1.6-1.6 2.4-2.2s1.8-1.4 2.6-2c1-0.6 1.8-1.2 2.8-1.8s2-1 3-1.4c1-0.4 2-0.8 3.2-1.2 1-0.4 2.2-0.6 3.2-0.8 1-0.2 2.2-0.4 3.2-0.4 1.2-0.2 2.2-0.2 3.4-0.2h185.6c1.2 0 2.2 0 3.4 0.2 1.2 0.2 2.2 0.2 3.2 0.4s2.2 0.4 3.2 0.8 2 0.6 3.2 1.2c1 0.4 2 0.8 3 1.4 1 0.6 2 1 2.8 1.8 1 0.6 1.8 1.2 2.6 2s1.6 1.4 2.4 2.2c0.8 0.8 1.6 1.6 2.2 2.4s1.4 1.8 2 2.6c0.6 1 1.2 1.8 1.8 2.8 0.6 1 1 2 1.4 3s0.8 2 1.2 3.2c0.4 1 0.6 2.2 0.8 3.2 0.2 1 0.4 2.2 0.4 3.2 0.2 1.2 0.2 2.2 0.2 3.4v67.4H545.8v-67.4z m-67.6 67.4H225.2v-67.4c0-1.2 0-2.2 0.2-3.4 0.2-1.2 0.2-2.2 0.4-3.2s0.4-2.2 0.8-3.2 0.6-2 1.2-3.2 0.8-2 1.4-3c0.6-1 1-2 1.8-2.8 0.6-1 1.2-1.8 2-2.6s1.4-1.6 2.2-2.4c0.8-0.8 1.6-1.6 2.4-2.2 0.8-0.8 1.8-1.4 2.6-2 1-0.6 1.8-1.2 2.8-1.8 1-0.6 2-1 3-1.4 1-0.4 2-0.8 3.2-1.2s2.2-0.6 3.2-0.8c1-0.2 2.2-0.4 3.2-0.4 1.2-0.2 2.2-0.2 3.4-0.2h185.6c1.2 0 2.2 0 3.4 0.2 1.2 0.2 2.2 0.2 3.2 0.4s2.2 0.4 3.2 0.8 2 0.6 3.2 1.2c1 0.4 2 0.8 3 1.4 1 0.6 2 1 2.8 1.8 1 0.6 1.8 1.2 2.6 2s1.6 1.4 2.4 2.2c0.8 0.8 1.6 1.6 2.2 2.4 0.8 0.8 1.4 1.8 2 2.6 0.6 1 1.2 1.8 1.8 2.8 0.6 1 1 2 1.4 3 0.4 1 0.8 2 1.2 3.2 0.4 1 0.6 2.2 0.8 3.2 0.2 1 0.4 2.2 0.4 3.2s0.2 2.2 0.2 3.4v67.4z m405 0v-270c0-1.2 0-2.2-0.2-3.4-0.2-1.2-0.2-2.2-0.4-3.2s-0.4-2.2-0.8-3.2-0.6-2-1.2-3.2c-0.4-1-0.8-2-1.4-3-0.6-1-1-2-1.8-2.8s-1.2-1.8-2-2.6-1.4-1.6-2.2-2.4-1.6-1.6-2.4-2.2-1.8-1.4-2.6-2c-1-0.6-1.8-1.2-2.8-1.8-1-0.6-2-1-3-1.4-1-0.4-2-0.8-3.2-1.2s-2.2-0.6-3.2-0.8c-1-0.2-2.2-0.4-3.2-0.4-1-0.2-2.2-0.2-3.4-0.2H174.6c-1.2 0-2.2 0-3.4 0.2s-2.2 0.2-3.2 0.4-2.2 0.4-3.2 0.8-2 0.6-3.2 1.2c-1 0.4-2 0.8-3 1.4-1 0.6-2 1-2.8 1.8-1 0.6-1.8 1.2-2.6 2s-1.6 1.4-2.4 2.2-1.6 1.6-2.2 2.4c-0.8 0.8-1.4 1.8-2 2.6s-1.2 1.8-1.8 2.8c-0.6 1-1 2-1.4 3-0.4 1-0.8 2-1.2 3.2-0.4 1-0.6 2.2-0.8 3.2-0.2 1-0.4 2.2-0.4 3.2s-0.2 2.2-0.2 3.4v270c-3.4 0-6.6 0.2-10 0.4-3.4 0.4-6.6 0.8-9.8 1.4-3.2 0.6-6.4 1.4-9.6 2.4-3.2 1-6.2 2-9.4 3.4-3 1.2-6 2.6-9 4.2s-5.8 3.2-8.6 5.2c-2.8 1.8-5.4 3.8-8 6-2.6 2.2-5 4.4-7.4 6.6s-4.6 4.8-6.6 7.4c-2.2 2.6-4 5.2-6 8-1.8 2.8-3.6 5.6-5.2 8.6s-3 6-4.2 9c-1.2 3-2.4 6.2-3.4 9.4s-1.8 6.4-2.4 9.6-1.2 6.6-1.4 9.8c-0.4 3.4-0.4 6.6-0.4 10v337.6h76v-67.6h793.2v67.6h76V545.8c0-3.4-0.2-6.6-0.4-10-0.4-3.4-0.8-6.6-1.4-9.8-0.6-3.2-1.4-6.4-2.4-9.6-1-3.2-2-6.2-3.4-9.4s-2.6-6-4.2-9-3.2-5.8-5.2-8.6c-1.8-2.8-3.8-5.4-6-8-2.2-2.6-4.4-5-6.6-7.4-2.4-2.4-4.8-4.6-7.4-6.6-2.6-2.2-5.2-4-8-6-2.8-1.8-5.6-3.6-8.6-5.2s-6-3-9-4.2c-3-1.2-6.2-2.4-9.4-3.4s-6.4-1.8-9.6-2.4c-3.2-0.6-6.6-1.2-9.8-1.4-3.4-0.2-6.6-0.4-10-0.4z" p-id="59749" fill="#8a8a8a"></path></svg>