<?xml version="1.0" standalone="no"?><!DOCTYPE svg PUBLIC "-//W3C//DTD SVG 1.1//EN" "http://www.w3.org/Graphics/SVG/1.1/DTD/svg11.dtd"><svg t="1647218104147" class="icon" viewBox="0 0 1024 1024" version="1.1" xmlns="http://www.w3.org/2000/svg" p-id="26651" xmlns:xlink="http://www.w3.org/1999/xlink" width="200" height="200"><defs><style type="text/css"></style></defs><path d="M597.491005 426.508995h-85.640378a42.621025 42.621025 0 0 0-42.621025 42.720607v85.24205A42.621025 42.621025 0 0 0 511.850627 597.491005H597.491005a42.720607 42.720607 0 0 0 42.621025-42.720607v-85.540796A42.720607 42.720607 0 0 0 597.491005 426.508995z m0 127.962657h-85.640378v-85.24205H597.491005zM853.117573 426.508995H767.775941a42.621025 42.621025 0 0 0-42.621025 42.720607v85.24205A42.621025 42.621025 0 0 0 767.775941 597.491005h85.341632A42.720607 42.720607 0 0 0 896.236507 554.471652v-85.24205a42.720607 42.720607 0 0 0-43.118934-42.720607z m0 127.962657H767.775941v-85.24205h85.341632zM639.813284 213.304289A42.720607 42.720607 0 0 0 597.491005 170.583682h-85.640378a42.621025 42.621025 0 0 0-42.621025 42.720607V298.745502a42.621025 42.621025 0 0 0 42.621025 42.720607H597.491005A42.720607 42.720607 0 0 0 639.813284 298.745502zM597.491005 298.745502h-85.640378v-85.441213H597.491005zM896.236507 213.304289a42.720607 42.720607 0 0 0-42.621025-42.720607H767.775941a42.621025 42.621025 0 0 0-42.621025 42.720607V298.745502a42.621025 42.621025 0 0 0 42.621025 42.720607h85.341632A42.720607 42.720607 0 0 0 896.236507 298.745502zM853.117573 298.745502H767.775941v-85.441213h85.341632zM170.583682 639.813284h85.341632A42.621025 42.621025 0 0 0 298.745502 597.491005v-85.640378a42.521443 42.521443 0 0 0-42.621025-42.621025h-85.540795a42.621025 42.621025 0 0 0-42.621025 42.621025V597.491005a42.621025 42.621025 0 0 0 42.621025 42.322279z m0-127.962657h85.341632V597.491005h-85.341632zM170.583682 896.236507h85.341632a42.621025 42.621025 0 0 0 42.820188-43.118934V767.775941a42.521443 42.521443 0 0 0-42.621025-42.621025h-85.540795a42.621025 42.621025 0 0 0-42.621025 42.621025v85.341632A42.621025 42.621025 0 0 0 170.583682 896.236507z m0-127.962657h85.341632v85.341632h-85.341632zM981.08023 170.583682h42.621024v85.341632h-42.621024z" fill="#C0A280" p-id="26652"></path><path d="M981.08023 981.08023H810.396966v-255.925314h-255.925314v255.925314H383.88797V85.341632c0-23.202567 25.094622-42.720607 54.869591-42.720607h493.52757c29.87455 0 48.795099 19.916367 48.795099 42.720607h42.621024C1023.701254 38.239424 980.084411 0 926.111057 0H438.757561c-53.873772 0-97.490616 38.239424-97.490616 85.341632v255.925313H85.341632A85.341632 85.341632 0 0 0 0 426.508995v597.491005h597.491005V767.775941h170.284936v255.925313h255.925313V341.266945h-42.621024z m-639.813285 0h-298.745502V426.508995a42.720607 42.720607 0 0 1 42.720607-42.621025h255.925314z" fill="#C0A280" p-id="26653"></path></svg>