<svg xmlns="http://www.w3.org/2000/svg" xmlns:xlink="http://www.w3.org/1999/xlink" width="500" zoomAndPan="magnify" viewBox="0 0 375 374.999991" height="500" preserveAspectRatio="xMidYMid meet" version="1.0"><defs><clipPath id="id1"><path d="M 5 21.765625 L 367 21.765625 L 367 179 L 5 179 Z M 5 21.765625 " clip-rule="nonzero"/></clipPath><clipPath id="id2"><path d="M 0 185 L 372.75 185 L 372.75 353.265625 L 0 353.265625 Z M 0 185 " clip-rule="nonzero"/></clipPath></defs><g clip-path="url(#id1)"><path fill="rgb(0%, 0%, 0%)" d="M 15.265625 63.636719 L 8.863281 136.917969 C 8.863281 137.207031 8.863281 137.5 8.863281 137.789062 C 8.863281 137.789062 8.863281 138.078125 8.863281 138.078125 L 8.863281 155.527344 C 8.863281 168.320312 19.917969 178.789062 33.886719 178.789062 C 41.453125 178.789062 48.4375 175.589844 52.804688 170.359375 C 57.460938 175.589844 64.152344 178.789062 72.011719 178.789062 C 79.867188 178.789062 86.558594 175.589844 90.925781 170.359375 C 95.582031 175.589844 102.273438 178.789062 110.132812 178.789062 C 117.699219 178.789062 124.683594 175.589844 129.046875 170.359375 C 133.703125 175.589844 140.394531 178.789062 148.253906 178.789062 C 156.109375 178.789062 162.804688 175.589844 167.167969 170.359375 C 171.824219 175.589844 178.808594 178.789062 186.375 178.789062 C 193.941406 178.789062 200.925781 175.589844 205.582031 170.359375 C 210.238281 175.589844 216.929688 178.789062 224.496094 178.789062 C 232.0625 178.789062 239.046875 175.589844 243.703125 170.359375 C 248.359375 175.589844 255.050781 178.789062 262.617188 178.789062 C 270.183594 178.789062 277.167969 175.589844 281.824219 170.359375 C 286.480469 175.589844 293.175781 178.789062 300.738281 178.789062 C 308.304688 178.789062 315.289062 175.589844 319.945312 170.359375 C 324.601562 175.589844 331.296875 178.789062 338.863281 178.789062 C 352.539062 178.789062 363.886719 168.320312 363.886719 155.527344 C 363.886719 155.527344 363.886719 137.789062 363.886719 137.789062 C 363.886719 137.5 357.484375 63.636719 357.484375 63.636719 C 363.015625 59.277344 366.796875 52.585938 366.796875 45.027344 C 366.796875 32.234375 356.320312 21.765625 343.519531 21.765625 L 29.230469 21.765625 C 16.425781 21.765625 5.953125 32.234375 5.953125 45.027344 C 5.953125 52.585938 9.734375 59.277344 15.265625 63.636719 Z M 343.519531 68.289062 C 344.390625 68.289062 345.265625 68.289062 346.429688 68 L 351.957031 131.390625 L 325.476562 131.390625 L 319.945312 68.289062 Z M 308.015625 68.289062 L 313.542969 131.390625 L 287.0625 131.390625 L 281.824219 68.289062 Z M 269.894531 68.289062 L 275.421875 131.390625 L 248.941406 131.390625 L 243.410156 68.289062 Z M 211.402344 68.289062 L 232.0625 68.289062 L 237.59375 131.390625 L 211.691406 131.390625 L 211.691406 68.289062 Z M 172.988281 68.289062 L 199.46875 68.289062 L 199.46875 131.390625 L 172.988281 131.390625 Z M 140.976562 68.289062 L 161.640625 68.289062 L 161.640625 131.390625 L 135.738281 131.390625 Z M 102.855469 68.289062 L 129.335938 68.289062 L 123.808594 131.390625 L 97.328125 131.390625 Z M 64.734375 68.289062 L 91.214844 68.289062 L 85.6875 131.390625 L 59.207031 131.390625 Z M 26.320312 68 C 27.195312 68 28.066406 68.289062 29.230469 68.289062 L 52.804688 68.289062 L 47.273438 131.390625 L 21.082031 131.390625 Z M 26.320312 68 " fill-opacity="1" fill-rule="nonzero"/></g><path fill="rgb(0%, 0%, 0%)" d="M 299.867188 266.027344 C 296.667969 266.027344 294.046875 268.644531 294.046875 271.84375 L 294.046875 283.472656 C 294.046875 286.671875 296.667969 289.289062 299.867188 289.289062 C 303.066406 289.289062 305.6875 286.671875 305.6875 283.472656 L 305.6875 271.84375 C 305.6875 268.644531 303.066406 266.027344 299.867188 266.027344 Z M 299.867188 266.027344 " fill-opacity="1" fill-rule="nonzero"/><g clip-path="url(#id2)"><path fill="rgb(0%, 0%, 0%)" d="M 366.796875 341.632812 L 358.066406 341.632812 L 358.066406 185.1875 C 352.539062 188.386719 345.847656 190.421875 338.863281 190.421875 C 332.167969 190.421875 325.476562 188.675781 319.945312 185.1875 C 314.125 188.675781 307.722656 190.421875 300.738281 190.421875 C 294.046875 190.421875 287.355469 188.675781 281.824219 185.1875 C 276.003906 188.675781 269.601562 190.421875 262.617188 190.421875 C 255.925781 190.421875 249.230469 188.675781 243.703125 185.1875 C 237.882812 188.675781 231.480469 190.421875 224.496094 190.421875 C 217.804688 190.421875 211.109375 188.675781 205.582031 185.1875 C 199.761719 188.675781 193.359375 190.421875 186.375 190.421875 C 179.683594 190.421875 173.28125 188.675781 167.460938 185.480469 C 167.167969 185.480469 167.167969 185.480469 166.878906 185.480469 C 161.347656 188.675781 154.65625 190.421875 147.960938 190.421875 C 141.558594 190.421875 135.15625 188.675781 129.628906 185.769531 L 128.175781 185.769531 C 122.644531 188.675781 116.242188 190.421875 109.839844 190.421875 C 103.4375 190.421875 97.328125 188.675781 91.796875 185.769531 C 91.214844 185.769531 90.34375 185.769531 89.761719 185.769531 C 84.230469 188.675781 78.121094 190.421875 71.71875 190.421875 C 65.316406 190.421875 59.207031 188.96875 53.675781 185.769531 L 51.347656 185.769531 C 45.820312 188.675781 39.707031 190.421875 33.304688 190.421875 C 26.320312 190.421875 19.628906 188.386719 14.101562 185.1875 L 14.101562 341.632812 L 5.953125 341.632812 C 2.75 341.632812 0.132812 344.25 0.132812 347.449219 C 0.132812 350.648438 2.75 353.265625 5.953125 353.265625 L 366.796875 353.265625 C 370 353.265625 372.617188 350.648438 372.617188 347.449219 C 372.617188 344.25 370 341.632812 366.796875 341.632812 Z M 206.746094 306.738281 L 55.421875 306.738281 L 55.421875 225.316406 L 206.746094 225.316406 Z M 317.328125 341.632812 L 253.304688 341.632812 L 253.304688 257.304688 C 253.304688 239.566406 267.566406 225.316406 285.316406 225.316406 C 303.066406 225.316406 317.328125 239.566406 317.328125 257.304688 Z M 317.328125 341.632812 " fill-opacity="1" fill-rule="nonzero"/></g></svg>