<svg xmlns="http://www.w3.org/2000/svg" xmlns:xlink="http://www.w3.org/1999/xlink" width="500" zoomAndPan="magnify" viewBox="0 0 375 374.999991" height="500" preserveAspectRatio="xMidYMid meet" version="1.0"><defs><clipPath id="id1"><path d="M 3.640625 0 L 371 0 L 371 367.5 L 3.640625 367.5 Z M 3.640625 0 " clip-rule="nonzero"/></clipPath></defs><path fill="rgb(13.729858%, 12.159729%, 12.548828%)" d="M 32.207031 89.277344 L 42.789062 95.390625 C 46.0625 89.730469 52.152344 86.21875 58.675781 86.21875 L 58.675781 73.988281 C 47.804688 73.988281 37.679688 79.839844 32.207031 89.277344 " fill-opacity="1" fill-rule="nonzero"/><g clip-path="url(#id1)"><path fill="rgb(13.729858%, 12.159729%, 12.548828%)" d="M 358.300781 309.671875 L 291.035156 283.804688 L 291.035156 272.457031 L 358.300781 298.328125 Z M 339.957031 355.269531 L 291.035156 355.269531 L 291.035156 297.035156 L 339.957031 316.597656 Z M 266.050781 206.03125 C 265.40625 204.597656 264.261719 203.476562 262.828125 202.878906 L 189.449219 172.304688 C 187.945312 171.660156 186.226562 171.660156 184.71875 172.304688 L 111.34375 202.878906 C 109.910156 203.476562 108.761719 204.597656 108.117188 206.03125 L 85.285156 257.433594 L 73.960938 257.433594 L 100.019531 194.898438 L 187.085938 160.074219 L 274.148438 194.898438 L 300.210938 257.433594 L 288.886719 257.433594 Z M 278.808594 288.007812 L 278.808594 355.269531 L 229.890625 355.269531 L 229.890625 306.351562 L 242.117188 306.351562 L 242.117188 294.121094 L 132.050781 294.121094 L 132.050781 306.351562 L 144.28125 306.351562 L 144.28125 355.269531 L 95.363281 355.269531 L 95.363281 264.839844 L 118.316406 213.21875 L 187.085938 184.558594 L 255.851562 213.21875 L 278.808594 264.839844 Z M 217.660156 339.316406 L 197.882812 306.351562 L 217.660156 306.351562 Z M 193.199219 355.269531 L 193.199219 322.308594 L 212.976562 355.269531 Z M 156.511719 339.316406 L 156.511719 306.351562 L 176.289062 306.351562 Z M 180.96875 355.269531 L 161.191406 355.269531 L 180.96875 322.308594 Z M 15.871094 355.269531 L 15.871094 318.582031 L 83.132812 318.582031 L 83.132812 355.269531 Z M 15.871094 269.664062 L 83.132812 269.664062 L 83.132812 306.351562 L 15.871094 306.351562 Z M 15.871094 220.746094 L 75.992188 220.746094 L 60.703125 257.433594 L 15.871094 257.433594 Z M 15.871094 171.824219 L 101.476562 171.824219 L 101.476562 181.140625 L 93.09375 184.484375 C 91.566406 185.105469 90.347656 186.300781 89.726562 187.804688 L 81.101562 208.515625 L 15.871094 208.515625 Z M 15.871094 122.90625 L 101.476562 122.90625 L 101.476562 159.597656 L 15.871094 159.597656 Z M 15.871094 104.5625 C 15.871094 80.964844 35.074219 61.757812 58.675781 61.757812 C 82.273438 61.757812 101.476562 80.964844 101.476562 104.5625 L 101.476562 110.679688 L 15.871094 110.679688 Z M 272.121094 177.941406 L 271.738281 180.757812 L 264.714844 177.941406 Z M 263.878906 139.363281 L 265.40625 136.738281 L 281.003906 109.699219 L 276.800781 141.992188 Z M 237.890625 117.84375 L 268.25 100.3125 C 269.0625 101.242188 269.898438 102.078125 270.828125 102.890625 L 253.964844 132.105469 Z M 226.140625 86.21875 L 261.109375 86.21875 C 261.347656 87.414062 261.679688 88.582031 262.085938 89.753906 L 232.921875 106.59375 Z M 231.777344 52.945312 L 262.085938 70.453125 C 261.679688 71.625 261.347656 72.792969 261.109375 73.988281 L 227.476562 73.988281 Z M 253.296875 26.957031 L 270.828125 57.316406 C 269.898438 58.128906 269.0625 58.964844 268.25 59.894531 L 239.039062 43.03125 Z M 284.921875 15.207031 L 284.921875 50.175781 C 283.726562 50.414062 282.558594 50.75 281.386719 51.152344 L 264.546875 21.988281 Z M 291.035156 61.757812 C 294.167969 61.757812 297.246094 62.621094 300.136719 64.292969 L 300.160156 64.292969 C 300.160156 64.292969 300.160156 64.292969 300.160156 64.316406 C 302.933594 65.914062 305.226562 68.207031 306.824219 70.980469 C 306.847656 70.980469 306.847656 70.980469 306.847656 70.980469 C 306.847656 71.003906 306.847656 71.003906 306.847656 71.003906 C 308.523438 73.894531 309.382812 76.976562 309.382812 80.105469 C 309.382812 83.234375 308.523438 86.3125 306.847656 89.203125 L 306.847656 89.226562 C 306.847656 89.226562 306.824219 89.226562 306.824219 89.226562 C 305.226562 92 302.933594 94.292969 300.160156 95.917969 C 300.160156 95.917969 300.136719 95.917969 300.136719 95.917969 C 299.875 96.058594 299.589844 96.109375 299.300781 96.273438 L 297.105469 79.316406 C 296.699219 76.257812 294.117188 73.988281 291.035156 73.988281 C 287.957031 73.988281 285.375 76.257812 284.96875 79.316406 L 282.773438 96.273438 C 282.484375 96.109375 282.199219 96.058594 281.9375 95.917969 C 281.9375 95.917969 281.914062 95.917969 281.914062 95.917969 C 279.140625 94.292969 276.847656 92 275.25 89.226562 C 275.25 89.226562 275.222656 89.226562 275.222656 89.226562 L 275.222656 89.203125 C 273.550781 86.3125 272.691406 83.234375 272.691406 80.105469 C 272.691406 76.976562 273.550781 73.894531 275.222656 71.003906 C 275.222656 71.003906 275.222656 70.980469 275.222656 70.980469 C 276.847656 68.207031 279.140625 65.914062 281.914062 64.316406 C 281.914062 64.292969 281.914062 64.292969 281.914062 64.292969 L 281.9375 64.292969 C 284.828125 62.621094 287.90625 61.757812 291.035156 61.757812 Z M 297.152344 16.542969 L 318.195312 20.84375 L 300.6875 51.152344 C 299.515625 50.75 298.347656 50.414062 297.152344 50.175781 Z M 344.183594 42.363281 L 313.824219 59.894531 C 313.011719 58.964844 312.175781 58.128906 311.246094 57.316406 L 315.375 50.175781 L 328.109375 28.105469 Z M 355.933594 73.988281 L 320.964844 73.988281 C 320.726562 72.792969 320.394531 71.625 319.988281 70.453125 L 349.152344 53.613281 Z M 350.296875 107.261719 L 319.988281 89.753906 C 320.394531 88.582031 320.726562 87.414062 320.964844 86.21875 L 354.597656 86.21875 Z M 328.777344 133.25 L 316.5 111.96875 L 311.246094 102.890625 C 312.175781 102.078125 313.011719 101.242188 313.824219 100.3125 L 343.035156 117.175781 Z M 305.320312 142.277344 L 301.070312 109.699219 L 317.527344 138.21875 Z M 304.007812 226.859375 L 305.511719 238.371094 L 300.710938 226.859375 Z M 286.042969 165.710938 L 287.046875 158.042969 C 287.191406 158.1875 287.3125 158.332031 287.453125 158.449219 C 288.527344 159.191406 289.769531 159.597656 291.035156 159.597656 C 291.683594 159.597656 292.351562 159.5 292.972656 159.285156 L 295.097656 158.570312 L 296.027344 165.710938 Z M 297.628906 177.941406 L 302.40625 214.628906 L 295.625 214.628906 L 284.445312 187.804688 C 284.207031 187.207031 283.800781 186.707031 283.371094 186.207031 L 284.445312 177.941406 Z M 366.613281 288.414062 L 322.136719 271.3125 L 316.355469 226.859375 L 327.726562 226.859375 L 327.726562 214.628906 L 314.753906 214.628906 L 309.953125 177.941406 L 321.609375 177.941406 L 321.609375 165.710938 L 308.378906 165.710938 L 306.921875 154.628906 L 324.429688 148.800781 C 325.242188 149.300781 326.148438 149.636719 327.105469 149.730469 C 327.320312 149.753906 327.535156 149.753906 327.726562 149.753906 C 329.46875 149.753906 331.140625 149.015625 332.289062 147.703125 L 354.3125 122.859375 C 354.40625 122.882812 354.503906 122.90625 354.597656 122.90625 C 355.433594 122.90625 356.292969 122.714844 357.082031 122.359375 C 358.898438 121.570312 360.1875 119.945312 360.570312 118.011719 L 367.234375 85.527344 C 368.070312 85.097656 368.808594 84.476562 369.382812 83.6875 C 370.53125 82.085938 370.839844 80.03125 370.21875 78.167969 L 359.734375 46.710938 C 360.234375 45.898438 360.570312 44.992188 360.664062 44.035156 C 360.855469 42.078125 360.117188 40.144531 358.632812 38.851562 L 333.816406 16.828125 C 333.863281 15.898438 333.699219 14.941406 333.292969 14.058594 C 332.503906 12.242188 330.878906 10.953125 328.945312 10.570312 L 296.460938 3.90625 C 296.027344 3.070312 295.40625 2.332031 294.621094 1.757812 C 293.019531 0.613281 290.964844 0.300781 289.101562 0.921875 L 257.644531 11.40625 C 256.832031 10.90625 255.925781 10.570312 254.96875 10.476562 C 253.011719 10.261719 251.074219 11.027344 249.785156 12.507812 L 227.761719 37.324219 C 226.832031 37.277344 225.875 37.445312 224.992188 37.851562 C 223.175781 38.636719 221.886719 40.261719 221.503906 42.195312 L 214.839844 74.683594 C 214.003906 75.113281 213.265625 75.734375 212.691406 76.519531 C 211.542969 78.121094 211.234375 80.175781 211.855469 82.039062 L 222.339844 113.496094 C 221.839844 114.308594 221.503906 115.214844 221.410156 116.171875 C 221.21875 118.128906 221.957031 120.066406 223.441406 121.355469 L 248.257812 143.378906 C 248.210938 144.308594 248.375 145.265625 248.78125 146.148438 C 249.570312 147.941406 251.195312 149.253906 253.128906 149.636719 L 275.199219 154.152344 L 273.695312 165.710938 L 260.464844 165.710938 L 260.464844 176.246094 L 189.355469 147.796875 C 187.898438 147.222656 186.273438 147.222656 184.816406 147.796875 L 113.707031 176.246094 L 113.707031 104.5625 C 113.707031 74.226562 89.007812 49.53125 58.675781 49.53125 C 28.339844 49.53125 3.640625 74.226562 3.640625 104.5625 L 3.640625 361.386719 C 3.640625 364.753906 6.386719 367.5 9.757812 367.5 L 346.070312 367.5 C 349.4375 367.5 352.183594 364.753906 352.183594 361.386719 L 352.183594 320.421875 L 362.21875 324.289062 C 362.933594 324.554688 363.675781 324.695312 364.414062 324.695312 C 365.632812 324.695312 366.851562 324.339844 367.878906 323.621094 C 369.550781 322.476562 370.53125 320.589844 370.53125 318.582031 L 370.53125 294.121094 C 370.53125 291.589844 368.976562 289.320312 366.613281 288.414062 " fill-opacity="1" fill-rule="nonzero"/></g><path fill="rgb(13.729858%, 12.159729%, 12.548828%)" d="M 138.167969 269.664062 L 125.9375 269.664062 L 125.9375 257.433594 L 138.167969 257.433594 Z M 144.28125 245.203125 L 119.824219 245.203125 C 116.453125 245.203125 113.707031 247.949219 113.707031 251.320312 L 113.707031 275.777344 C 113.707031 279.144531 116.453125 281.894531 119.824219 281.894531 L 144.28125 281.894531 C 147.648438 281.894531 150.394531 279.144531 150.394531 275.777344 L 150.394531 251.320312 C 150.394531 247.949219 147.648438 245.203125 144.28125 245.203125 " fill-opacity="1" fill-rule="nonzero"/><path fill="rgb(13.729858%, 12.159729%, 12.548828%)" d="M 248.234375 269.664062 L 236.003906 269.664062 L 236.003906 257.433594 L 248.234375 257.433594 Z M 229.890625 245.203125 C 226.519531 245.203125 223.773438 247.949219 223.773438 251.320312 L 223.773438 275.777344 C 223.773438 279.144531 226.519531 281.894531 229.890625 281.894531 L 254.347656 281.894531 C 257.714844 281.894531 260.464844 279.144531 260.464844 275.777344 L 260.464844 251.320312 C 260.464844 247.949219 257.714844 245.203125 254.347656 245.203125 L 229.890625 245.203125 " fill-opacity="1" fill-rule="nonzero"/><path fill="rgb(13.729858%, 12.159729%, 12.548828%)" d="M 193.199219 226.859375 L 180.96875 226.859375 L 180.96875 214.628906 L 193.199219 214.628906 Z M 199.316406 202.398438 L 174.855469 202.398438 C 171.488281 202.398438 168.742188 205.148438 168.742188 208.515625 L 168.742188 232.972656 C 168.742188 236.34375 171.488281 239.089844 174.855469 239.089844 L 199.316406 239.089844 C 202.683594 239.089844 205.429688 236.34375 205.429688 232.972656 L 205.429688 208.515625 C 205.429688 205.148438 202.683594 202.398438 199.316406 202.398438 " fill-opacity="1" fill-rule="nonzero"/><path fill="rgb(13.729858%, 12.159729%, 12.548828%)" d="M 321.609375 318.582031 L 309.382812 318.582031 L 309.382812 336.925781 L 321.609375 336.925781 L 321.609375 318.582031 " fill-opacity="1" fill-rule="nonzero"/><path fill="rgb(13.729858%, 12.159729%, 12.548828%)" d="M 28.101562 184.054688 L 28.101562 196.285156 L 40.328125 196.285156 L 40.328125 184.054688 L 28.101562 184.054688 " fill-opacity="1" fill-rule="nonzero"/><path fill="rgb(13.729858%, 12.159729%, 12.548828%)" d="M 28.101562 135.136719 L 28.101562 147.367188 L 40.328125 147.367188 L 40.328125 135.136719 L 28.101562 135.136719 " fill-opacity="1" fill-rule="nonzero"/><path fill="rgb(13.729858%, 12.159729%, 12.548828%)" d="M 28.101562 232.972656 L 28.101562 245.203125 L 40.328125 245.203125 L 40.328125 232.972656 L 28.101562 232.972656 " fill-opacity="1" fill-rule="nonzero"/><path fill="rgb(13.729858%, 12.159729%, 12.548828%)" d="M 28.101562 294.121094 L 40.328125 294.121094 L 40.328125 281.894531 L 28.101562 281.894531 L 28.101562 294.121094 " fill-opacity="1" fill-rule="nonzero"/><path fill="rgb(13.729858%, 12.159729%, 12.548828%)" d="M 28.101562 343.039062 L 40.328125 343.039062 L 40.328125 330.8125 L 28.101562 330.8125 L 28.101562 343.039062 " fill-opacity="1" fill-rule="nonzero"/></svg>