<?xml version="1.0" standalone="no"?><!DOCTYPE svg PUBLIC "-//W3C//DTD SVG 1.1//EN" "http://www.w3.org/Graphics/SVG/1.1/DTD/svg11.dtd"><svg t="1647218283623" class="icon" viewBox="0 0 1024 1024" version="1.1" xmlns="http://www.w3.org/2000/svg" p-id="32280" xmlns:xlink="http://www.w3.org/1999/xlink" width="200" height="200"><defs><style type="text/css"></style></defs><path d="M923.392 392.416c-0.096 72-31.232 128.512-76.736 177.984-45.408 49.248-104.544 88.64-153.856 121.024l-0.16 0.096-25.888 17.248a1092.128 1092.128 0 0 0-92.832 69.376c-25.6 21.696-45.28 40.992-58.912 60.224l0.096-0.096-2.528 1.216-2.528-0.32-1.216-0.992-3.424-5.28c-17.92-23.36-56.768-62.56-148.736-124.864l-0.224-0.16-26.176-17.408-0.096-0.096c-49.152-32.32-108.16-71.68-153.344-120.8-45.28-49.408-76.192-105.76-76.384-177.536v-0.992l0.096-0.864c0.672-82.56 25.056-131.904 56.064-162.4 31.168-30.496 71.936-43.488 110.368-43.584 74.752-0.224 156.416 43.52 215.008 118.624a38.272 38.272 0 0 0 60.288 0.032c58.432-74.624 139.872-118.336 214.368-117.952 38.432 0 79.264 13.024 110.368 43.584 31.04 30.56 55.456 79.904 56.352 162.464v1.536z m-2.784-218.752c-47.584-46.56-108.544-65.504-163.904-65.472-89.92 0.288-176.928 43.36-244.416 112.96-67.712-70.016-155.04-113.344-245.248-113.568-55.296-0.096-116.288 18.848-163.904 65.408C55.648 219.264 24.608 291.616 24.032 388.672v0.32l-0.064 0.544h0.064l-0.064 2.432c-0.16 95.456 43.104 171.808 96.64 229.472 53.632 58.048 118.176 100.192 167.424 132.832l-0.096-0.096 25.952 17.248c87.776 59.296 120.768 94.752 130.816 107.936l0.544-0.32c9.888 15.392 24.224 27.936 42.528 33.696l5.92 1.376 12.736 1.856 5.536 0.448a80.128 80.128 0 0 0 65.472-33.76l0.16-0.224c6.72-9.664 23.04-26.752 45.792-45.824a1023.296 1023.296 0 0 1 86.24-64.416l-0.224 0.224 25.568-17.088c49.408-32.64 114.112-74.848 167.968-132.96 53.632-57.696 97.12-134.208 97.024-229.952v-2.08c-0.48-97.6-31.616-170.272-79.36-216.672z" fill="#444444" p-id="32281"></path><path d="M735.104 755.264l-0.096 0.096h-0.064z" fill="#444444" p-id="32282"></path></svg>