<svg xmlns="http://www.w3.org/2000/svg" xmlns:xlink="http://www.w3.org/1999/xlink" width="500" zoomAndPan="magnify" viewBox="0 0 375 374.999991" height="500" preserveAspectRatio="xMidYMid meet" version="1.0"><defs><clipPath id="id1"><path d="M 127.5 147 L 233 147 L 233 212 L 127.5 212 Z M 127.5 147 " clip-rule="nonzero"/></clipPath><clipPath id="id2"><path d="M 216 195 L 277.5 195 L 277.5 275.71875 L 216 275.71875 Z M 216 195 " clip-rule="nonzero"/></clipPath><clipPath id="id3"><path d="M 195 129.46875 L 261 129.46875 L 261 169 L 195 169 Z M 195 129.46875 " clip-rule="nonzero"/></clipPath><clipPath id="id4"><path d="M 195 129.46875 L 261 129.46875 L 261 170 L 195 170 Z M 195 129.46875 " clip-rule="nonzero"/></clipPath><clipPath id="id5"><path d="M 187 211 L 217 211 L 217 275.71875 L 187 275.71875 Z M 187 211 " clip-rule="nonzero"/></clipPath><clipPath id="id6"><path d="M 127.5 141 L 173 141 L 173 178 L 127.5 178 Z M 127.5 141 " clip-rule="nonzero"/></clipPath><clipPath id="id7"><path d="M 127.5 141 L 174 141 L 174 178 L 127.5 178 Z M 127.5 141 " clip-rule="nonzero"/></clipPath><clipPath id="id8"><path d="M 273 203 L 277.5 203 L 277.5 207 L 273 207 Z M 273 203 " clip-rule="nonzero"/></clipPath><clipPath id="id9"><path d="M 273 202 L 277.5 202 L 277.5 208 L 273 208 Z M 273 202 " clip-rule="nonzero"/></clipPath></defs><rect x="-37.5" width="450" fill="rgb(100%, 100%, 100%)" y="-37.499999" height="449.999989" fill-opacity="1"/><rect x="-37.5" width="450" fill="rgb(100%, 100%, 100%)" y="-37.499999" height="449.999989" fill-opacity="1"/><rect x="-37.5" width="450" fill="rgb(100%, 100%, 100%)" y="-37.499999" height="449.999989" fill-opacity="1"/><rect x="-37.5" width="450" fill="rgb(100%, 100%, 100%)" y="-37.499999" height="449.999989" fill-opacity="1"/><path stroke-linecap="round" transform="matrix(0.99906, 0, 0, 1.000342, 102.594043, 102.659576)" fill-opacity="1" fill="rgb(76.078796%, 28.239441%, 11.369324%)" fill-rule="nonzero" stroke-linejoin="round" d="M 28.81196 62.241008 L 30.790383 63.381242 L 31.842153 62.775981 L 29.86373 61.635746 Z M 28.81196 62.241008 " stroke="rgb(13.729858%, 12.159729%, 12.548828%)" stroke-width="0.22" stroke-opacity="1" stroke-miterlimit="10"/><path stroke-linecap="round" transform="matrix(0.99906, 0, 0, 1.000342, 102.594043, 102.659576)" fill-opacity="1" fill="rgb(76.078796%, 28.239441%, 11.369324%)" fill-rule="nonzero" stroke-linejoin="round" d="M 30.790383 65.138454 L 31.842153 64.533192 L 31.842153 62.775981 L 30.790383 63.381242 Z M 30.790383 65.138454 " stroke="rgb(13.729858%, 12.159729%, 12.548828%)" stroke-width="0.22" stroke-opacity="1" stroke-miterlimit="10"/><path stroke-linecap="round" transform="matrix(0.99906, 0, 0, 1.000342, 102.594043, 102.659576)" fill-opacity="1" fill="rgb(76.078796%, 28.239441%, 11.369324%)" fill-rule="nonzero" stroke-linejoin="round" d="M 28.81196 62.241008 L 28.81196 63.998219 L 30.790383 65.138454 L 30.790383 63.381242 Z M 28.81196 62.241008 " stroke="rgb(13.729858%, 12.159729%, 12.548828%)" stroke-width="0.22" stroke-opacity="1" stroke-miterlimit="10"/><path stroke-linecap="round" transform="matrix(0.99906, 0, 0, 1.000342, 102.594043, 102.659576)" fill-opacity="1" fill="rgb(76.078796%, 28.239441%, 11.369324%)" fill-rule="nonzero" stroke-linejoin="round" d="M 145.761792 133.415878 L 147.204555 134.25153 L 149.335465 133.021482 L 147.888792 132.189735 Z M 145.761792 133.415878 " stroke="rgb(13.729858%, 12.159729%, 12.548828%)" stroke-width="0.22" stroke-opacity="1" stroke-miterlimit="10"/><path stroke-linecap="round" transform="matrix(0.99906, 0, 0, 1.000342, 102.594043, 102.659576)" fill-opacity="1" fill="rgb(76.078796%, 28.239441%, 11.369324%)" fill-rule="nonzero" stroke-linejoin="round" d="M 147.204555 136.008741 L 149.335465 134.778693 L 149.335465 133.021482 L 147.204555 134.25153 Z M 147.204555 136.008741 " stroke="rgb(13.729858%, 12.159729%, 12.548828%)" stroke-width="0.22" stroke-opacity="1" stroke-miterlimit="10"/><path stroke-linecap="round" transform="matrix(0.99906, 0, 0, 1.000342, 102.594043, 102.659576)" fill-opacity="1" fill="rgb(76.078796%, 28.239441%, 11.369324%)" fill-rule="nonzero" stroke-linejoin="round" d="M 145.761792 133.415878 L 145.761792 135.17309 L 147.204555 136.008741 L 147.204555 134.25153 Z M 145.761792 133.415878 " stroke="rgb(13.729858%, 12.159729%, 12.548828%)" stroke-width="0.22" stroke-opacity="1" stroke-miterlimit="10"/><path stroke-linecap="round" transform="matrix(0.99906, 0, 0, 1.000342, 102.594043, 102.659576)" fill-opacity="1" fill="rgb(76.078796%, 28.239441%, 11.369324%)" fill-rule="nonzero" stroke-linejoin="round" d="M 63.15285 50.717606 L 60.134386 48.972109 L 60.134386 48.979919 Z M 63.15285 50.717606 " stroke="rgb(13.729858%, 12.159729%, 12.548828%)" stroke-width="0.22" stroke-opacity="1" stroke-miterlimit="10"/><path stroke-linecap="round" transform="matrix(0.99906, 0, 0, 1.000342, 102.594043, 102.659576)" fill-opacity="1" fill="rgb(95.289612%, 79.60968%, 52.159119%)" fill-rule="nonzero" stroke-linejoin="round" d="M 60.134386 48.979919 L 60.130477 48.976014 Z M 60.134386 48.979919 " stroke="rgb(13.729858%, 12.159729%, 12.548828%)" stroke-width="0.22" stroke-opacity="1" stroke-miterlimit="10"/><path stroke-linecap="round" transform="matrix(0.99906, 0, 0, 1.000342, 102.594043, 102.659576)" fill-opacity="1" fill="rgb(95.289612%, 79.60968%, 52.159119%)" fill-rule="nonzero" stroke-linejoin="round" d="M 60.130477 49.792141 L 60.130477 48.976014 L 60.134386 48.972109 L 63.15285 50.717606 L 63.15285 51.541543 L 66.073566 53.224561 L 67.770474 51.553257 L 54.402433 43.833242 L 54.402433 46.488584 Z M 60.130477 49.792141 " stroke="rgb(13.729858%, 12.159729%, 12.548828%)" stroke-width="0.22" stroke-opacity="1" stroke-miterlimit="10"/><path stroke-linecap="round" transform="matrix(0.99906, 0, 0, 1.000342, 102.594043, 102.659576)" fill-opacity="1" fill="rgb(95.289612%, 79.60968%, 52.159119%)" fill-rule="nonzero" stroke-linejoin="round" d="M 60.134386 48.972109 L 60.130477 48.976014 L 60.134386 48.979919 Z M 60.134386 48.972109 " stroke="rgb(13.729858%, 12.159729%, 12.548828%)" stroke-width="0.22" stroke-opacity="1" stroke-miterlimit="10"/><path stroke-linecap="round" transform="matrix(0.99906, 0, 0, 1.000342, 102.594043, 102.659576)" fill-opacity="1" fill="rgb(76.078796%, 28.239441%, 11.369324%)" fill-rule="nonzero" stroke-linejoin="round" d="M 63.15285 51.541543 L 63.15285 50.717606 L 63.14894 50.717606 Z M 63.15285 51.541543 " stroke="rgb(13.729858%, 12.159729%, 12.548828%)" stroke-width="0.22" stroke-opacity="1" stroke-miterlimit="10"/><path stroke-linecap="round" transform="matrix(0.99906, 0, 0, 1.000342, 102.594043, 102.659576)" fill-opacity="1" fill="rgb(95.289612%, 79.60968%, 52.159119%)" fill-rule="nonzero" stroke-linejoin="round" d="M 56.240099 62.533876 L 57.225401 61.963759 L 66.073566 53.224561 L 63.14894 51.541543 L 60.130477 49.799951 L 60.130477 49.792141 L 54.402433 46.488584 L 36.076604 57.066996 L 58.144234 69.808731 L 58.144234 65.74762 L 56.240099 64.65034 Z M 56.240099 62.533876 " stroke="rgb(13.729858%, 12.159729%, 12.548828%)" stroke-width="0.22" stroke-opacity="1" stroke-miterlimit="10"/><path stroke-linecap="round" transform="matrix(0.99906, 0, 0, 1.000342, 102.594043, 102.659576)" fill-opacity="1" fill="rgb(76.078796%, 28.239441%, 11.369324%)" fill-rule="nonzero" stroke-linejoin="round" d="M 60.134386 48.979919 L 60.130477 49.792141 L 63.14894 51.541543 L 63.14894 50.717606 Z M 60.134386 48.979919 " stroke="rgb(13.729858%, 12.159729%, 12.548828%)" stroke-width="0.22" stroke-opacity="1" stroke-miterlimit="10"/><path stroke-linecap="round" transform="matrix(0.99906, 0, 0, 1.000342, 102.594043, 102.659576)" fill-opacity="1" fill="rgb(76.078796%, 28.239441%, 11.369324%)" fill-rule="nonzero" stroke-linejoin="round" d="M 60.130477 48.976014 L 60.130477 49.792141 L 60.134386 48.979919 Z M 60.130477 48.976014 " stroke="rgb(13.729858%, 12.159729%, 12.548828%)" stroke-width="0.22" stroke-opacity="1" stroke-miterlimit="10"/><path stroke-linecap="round" transform="matrix(0.99906, 0, 0, 1.000342, 102.594043, 102.659576)" fill-opacity="1" fill="rgb(76.078796%, 28.239441%, 11.369324%)" fill-rule="nonzero" stroke-linejoin="round" d="M 60.130477 49.799951 L 63.14894 51.541543 L 60.130477 49.792141 Z M 60.130477 49.799951 " stroke="rgb(13.729858%, 12.159729%, 12.548828%)" stroke-width="0.22" stroke-opacity="1" stroke-miterlimit="10"/><path stroke-linecap="round" transform="matrix(0.99906, 0, 0, 1.000342, 102.594043, 102.659576)" fill-opacity="1" fill="rgb(76.078796%, 28.239441%, 11.369324%)" fill-rule="nonzero" stroke-linejoin="round" d="M 56.240099 62.533876 L 92.277898 83.339259 L 93.263199 82.769141 L 57.225401 61.963759 Z M 56.240099 62.533876 " stroke="rgb(13.729858%, 12.159729%, 12.548828%)" stroke-width="0.22" stroke-opacity="1" stroke-miterlimit="10"/><path stroke-linecap="round" transform="matrix(0.99906, 0, 0, 1.000342, 102.594043, 102.659576)" fill-opacity="1" fill="rgb(61.569214%, 41.569519%, 10.198975%)" fill-rule="nonzero" stroke-linejoin="round" d="M 66.073566 53.224561 L 57.225401 61.963759 L 93.263199 82.769141 L 93.263199 79.988843 L 94.717692 72.413309 L 93.263199 66.43879 L 93.263199 45.289775 L 102.584466 39.908803 L 104.406492 39.280112 L 89.126497 30.455006 L 70.452684 48.901821 L 67.770474 51.553257 Z M 66.073566 53.224561 " stroke="rgb(13.729858%, 12.159729%, 12.548828%)" stroke-width="0.22" stroke-opacity="1" stroke-miterlimit="10"/><path stroke-linecap="round" transform="matrix(0.99906, 0, 0, 1.000342, 102.594043, 102.659576)" fill-opacity="1" fill="rgb(76.078796%, 28.239441%, 11.369324%)" fill-rule="nonzero" stroke-linejoin="round" d="M 107.037873 38.370267 L 91.226127 29.244483 L 89.126497 30.455006 L 104.406492 39.280112 Z M 107.037873 38.370267 " stroke="rgb(13.729858%, 12.159729%, 12.548828%)" stroke-width="0.22" stroke-opacity="1" stroke-miterlimit="10"/><g clip-path="url(#id1)"><path stroke-linecap="round" transform="matrix(0.99906, 0, 0, 1.000342, 102.594043, 102.659576)" fill-opacity="1" fill="rgb(95.289612%, 79.60968%, 52.159119%)" fill-rule="nonzero" stroke-linejoin="round" d="M 72.161322 80.34419 L 73.209183 79.387486 L 74.214034 78.97747 L 74.511189 78.856417 L 76.008691 78.762699 L 77.64304 79.114142 L 79.343859 79.899029 L 81.048587 81.082218 L 82.682937 82.612945 L 84.180439 84.43654 L 85.478534 86.471 L 86.530305 88.638227 L 87.284921 90.848409 L 87.284921 107.955838 L 120.519302 88.76709 L 122.118462 89.688649 L 123.956128 90.750786 L 129.625522 94.023104 L 129.625522 66.282594 L 93.263199 45.289775 L 93.263199 66.43879 L 94.717692 72.413309 L 95.222073 74.482914 L 93.263199 79.988843 L 93.263199 84.885605 L 92.277898 85.455722 L 58.144234 65.74762 L 58.144234 74.689874 L 25.324305 55.74323 L 25.324305 81.02755 L 72.923758 108.506431 L 71.402797 81.67967 Z M 119.932813 69.019939 L 121.442045 68.149143 L 123.420468 69.289378 L 123.420468 71.046589 L 121.911236 71.917385 L 119.932813 70.77715 Z M 97.966842 56.336777 L 99.476074 55.465981 L 101.454497 56.606216 L 101.454497 58.363428 L 99.945265 59.234224 L 97.966842 58.093989 Z M 88.481359 86.45538 L 89.728625 85.736876 L 91.707048 86.877111 L 91.707048 88.634323 L 90.459782 89.352827 L 88.481359 88.212592 Z M 31.842153 64.533192 L 30.790383 65.138454 L 28.81196 63.998219 L 28.81196 62.241008 L 29.86373 61.635746 L 31.842153 62.775981 Z M 41.081311 74.467294 L 41.081311 75.603624 L 35.959307 72.647604 L 35.959307 67.040147 L 36.944608 67.60636 L 41.081311 69.996167 Z M 51.860981 76.091738 L 50.81312 76.697 L 48.834697 75.556765 L 48.834697 73.799554 L 49.882557 73.194292 L 51.860981 74.334527 Z M 64.005214 72.639794 L 62.757948 73.362203 L 60.779524 72.218063 L 60.779524 70.464757 L 62.026791 69.742348 L 64.005214 70.886488 Z M 64.005214 72.639794 " stroke="rgb(13.729858%, 12.159729%, 12.548828%)" stroke-width="0.22" stroke-opacity="1" stroke-miterlimit="10"/></g><path stroke-linecap="round" transform="matrix(0.99906, 0, 0, 1.000342, 102.594043, 102.659576)" fill-opacity="1" fill="rgb(95.289612%, 79.60968%, 52.159119%)" fill-rule="nonzero" stroke-linejoin="round" d="M 129.625522 66.282594 L 129.625522 94.023104 L 135.408305 90.684402 L 135.408305 71.620611 L 141.273195 68.235051 L 143.767729 66.794137 L 143.767729 85.857929 L 148.314974 83.237731 L 150.15264 82.175594 L 151.74789 81.254035 L 161.526618 86.900541 L 161.526618 69.738443 L 157.170959 50.381783 Z M 138.34075 69.449479 L 136.21375 70.679527 L 134.833545 69.882925 L 134.833545 68.125713 L 136.964456 66.89957 L 138.34075 67.692268 Z M 158.363487 57.890933 L 156.232577 59.120981 L 154.856282 58.324379 L 154.856282 56.567167 L 156.983283 55.341024 L 158.363487 56.133722 Z M 158.363487 57.890933 " stroke="rgb(13.729858%, 12.159729%, 12.548828%)" stroke-width="0.22" stroke-opacity="1" stroke-miterlimit="10"/><path stroke-linecap="round" transform="matrix(0.99906, 0, 0, 1.000342, 102.594043, 102.659576)" fill-opacity="1" fill="rgb(95.289612%, 79.60968%, 52.159119%)" fill-rule="nonzero" stroke-linejoin="round" d="M 150.15264 82.175594 L 168.067926 92.519712 L 166.230261 93.581849 L 113.825507 123.837124 L 90.240826 110.216783 L 88.40316 109.154647 L 122.118462 89.688649 L 120.519302 88.76709 L 87.284921 107.955838 L 85.208749 109.154647 L 113.825507 125.680243 L 133.183556 114.504379 L 136.925356 110.997766 L 143.68171 108.440047 L 171.262337 92.519712 L 161.526618 86.900541 L 151.74789 81.254035 Z M 150.15264 82.175594 " stroke="rgb(13.729858%, 12.159729%, 12.548828%)" stroke-width="0.22" stroke-opacity="1" stroke-miterlimit="10"/><path stroke-linecap="round" transform="matrix(0.99906, 0, 0, 1.000342, 102.594043, 102.659576)" fill-opacity="1" fill="rgb(100%, 94.119263%, 63.529968%)" fill-rule="nonzero" stroke-linejoin="round" d="M 137.910658 113.223567 L 143.68171 108.440047 L 136.925356 110.997766 Z M 137.910658 113.223567 " stroke="rgb(13.729858%, 12.159729%, 12.548828%)" stroke-width="0.22" stroke-opacity="1" stroke-miterlimit="10"/><path stroke-linecap="round" transform="matrix(0.99906, 0, 0, 1.000342, 102.594043, 102.659576)" fill-opacity="1" fill="rgb(96.859741%, 86.268616%, 67.449951%)" fill-rule="nonzero" stroke-linejoin="round" d="M 133.183556 114.504379 L 137.910658 113.223567 L 136.925356 110.997766 Z M 133.183556 114.504379 " stroke="rgb(13.729858%, 12.159729%, 12.548828%)" stroke-width="0.22" stroke-opacity="1" stroke-miterlimit="10"/><g clip-path="url(#id2)"><path stroke-linecap="round" transform="matrix(0.99906, 0, 0, 1.000342, 102.594043, 102.659576)" fill-opacity="1" fill="rgb(95.289612%, 79.60968%, 52.159119%)" fill-rule="nonzero" stroke-linejoin="round" d="M 167.368049 130.584816 L 171.262337 128.335585 L 171.262337 108.061271 L 174.675703 106.093194 L 174.675703 102.301522 L 171.262337 104.273504 L 171.262337 92.519712 L 143.68171 108.440047 L 137.910658 113.223567 L 133.183556 114.504379 L 113.825507 125.680243 L 113.825507 137.535563 L 115.545874 141.709916 L 113.825507 147.87968 L 113.825507 172.898466 L 167.368049 141.987165 Z M 158.363487 103.023931 L 160.494397 101.793883 L 161.937161 102.629535 L 161.937161 104.386746 L 159.81016 105.612889 L 158.363487 104.781143 Z M 145.237862 110.60337 L 147.364862 109.373322 L 148.807625 110.208973 L 148.807625 111.966185 L 146.680625 113.192328 L 145.237862 112.360581 Z M 143.544863 130.042032 L 143.544863 124.739159 L 148.142937 122.083817 L 148.862364 121.669896 L 148.862364 127.808422 L 143.544863 130.877684 Z M 135.392665 116.288925 L 137.519665 115.058877 L 138.962428 115.894528 L 138.962428 117.647835 L 136.835428 118.877883 L 135.392665 118.046136 Z M 126.595329 121.365313 L 128.722329 120.13917 L 130.169002 120.970917 L 130.169002 122.728128 L 128.038092 123.954271 L 126.595329 123.122525 Z M 126.50149 139.843367 L 126.50149 125.973112 L 135.955694 120.517947 L 136.74159 120.061072 L 136.74159 134.841172 L 126.50149 140.753212 Z M 135.420034 141.057795 L 135.420034 142.811102 L 133.289124 144.04115 L 131.846361 143.209403 L 131.846361 141.452192 L 133.973361 140.222144 Z M 124.538707 127.109442 L 124.538707 132.564607 L 119.811605 135.294142 L 119.811605 129.835072 L 123.752812 127.562412 Z M 118.388392 126.101974 L 120.519302 124.875831 L 121.962065 125.707578 L 121.962065 127.464789 L 119.835065 128.694837 L 118.388392 127.859185 Z M 116.550726 152.038414 L 116.550726 150.281203 L 118.681636 149.051155 L 120.124399 149.886806 L 120.124399 151.644018 L 117.997399 152.870161 Z M 123.389188 158.411234 L 120.10876 160.309022 L 120.10876 156.517351 L 122.865258 154.924146 L 123.389188 154.623467 Z M 127.017601 147.66491 L 124.886691 148.891053 L 123.443927 148.059307 L 123.443927 146.302095 L 125.570928 145.072047 L 127.017601 145.907699 Z M 139.920361 149.527554 L 128.69496 156.009712 L 128.69496 146.915167 L 139.064086 140.925028 L 139.920361 140.433009 Z M 147.923981 146.169328 L 144.839049 147.949969 L 143.329817 147.079173 L 143.329817 143.517891 L 146.41475 141.73725 L 147.923981 142.608046 Z M 149.335465 134.778693 L 147.204555 136.008741 L 145.761792 135.17309 L 145.761792 133.415878 L 147.888792 132.189735 L 149.335465 133.021482 Z M 161.937161 127.503838 L 159.81016 128.729981 L 158.363487 127.898235 L 158.363487 126.141023 L 160.494397 124.910975 L 161.937161 125.746627 Z M 162.242135 118.499106 L 154.168135 123.161574 L 154.168135 110.501842 L 161.127806 106.48759 L 162.242135 105.843279 Z M 162.242135 118.499106 " stroke="rgb(13.729858%, 12.159729%, 12.548828%)" stroke-width="0.22" stroke-opacity="1" stroke-miterlimit="10"/></g><path stroke-linecap="round" transform="matrix(0.99906, 0, 0, 1.000342, 102.594043, 102.659576)" fill-opacity="1" fill="rgb(95.289612%, 79.60968%, 52.159119%)" fill-rule="nonzero" stroke-linejoin="round" d="M 90.240826 110.216783 L 123.956128 90.750786 L 122.118462 89.688649 L 88.40316 109.154647 Z M 90.240826 110.216783 " stroke="rgb(13.729858%, 12.159729%, 12.548828%)" stroke-width="0.22" stroke-opacity="1" stroke-miterlimit="10"/><path stroke-linecap="round" transform="matrix(0.99906, 0, 0, 1.000342, 102.594043, 102.659576)" fill-opacity="1" fill="rgb(95.289612%, 79.60968%, 52.159119%)" fill-rule="nonzero" stroke-linejoin="round" d="M 113.825507 123.837124 L 166.230261 93.581849 L 148.314974 83.237731 L 143.767729 85.857929 L 141.273195 84.42092 L 135.408305 87.806481 L 135.408305 90.684402 L 129.625522 94.023104 L 123.956128 90.750786 L 90.240826 110.216783 Z M 113.825507 123.837124 " stroke="rgb(13.729858%, 12.159729%, 12.548828%)" stroke-width="0.22" stroke-opacity="1" stroke-miterlimit="10"/><path stroke-linecap="round" transform="matrix(0.99906, 0, 0, 1.000342, 102.594043, 102.659576)" fill-opacity="1" fill="rgb(95.289612%, 79.60968%, 52.159119%)" fill-rule="nonzero" stroke-linejoin="round" d="M 168.067926 92.519712 L 150.15264 82.175594 L 148.314974 83.237731 L 166.230261 93.581849 Z M 168.067926 92.519712 " stroke="rgb(13.729858%, 12.159729%, 12.548828%)" stroke-width="0.22" stroke-opacity="1" stroke-miterlimit="10"/><path stroke-linecap="round" transform="matrix(0.99906, 0, 0, 1.000342, 102.594043, 102.659576)" fill-opacity="1" fill="rgb(76.078796%, 28.239441%, 11.369324%)" fill-rule="nonzero" stroke-linejoin="round" d="M 158.887417 51.412681 L 159.563835 51.022189 L 159.563835 48.597237 L 158.562893 49.175165 Z M 158.887417 51.412681 " stroke="rgb(13.729858%, 12.159729%, 12.548828%)" stroke-width="0.22" stroke-opacity="1" stroke-miterlimit="10"/><path stroke-linecap="round" transform="matrix(0.99906, 0, 0, 1.000342, 102.594043, 102.659576)" fill-opacity="1" fill="rgb(76.078796%, 28.239441%, 11.369324%)" fill-rule="nonzero" stroke-linejoin="round" d="M 159.563835 48.597237 L 158.383037 47.913877 L 158.562893 49.175165 Z M 159.563835 48.597237 " stroke="rgb(13.729858%, 12.159729%, 12.548828%)" stroke-width="0.22" stroke-opacity="1" stroke-miterlimit="10"/><path stroke-linecap="round" transform="matrix(0.99906, 0, 0, 1.000342, 102.594043, 102.659576)" fill-opacity="1" fill="rgb(76.078796%, 28.239441%, 11.369324%)" fill-rule="nonzero" stroke-linejoin="round" d="M 69.780177 46.89079 L 66.761713 45.149198 L 65.354139 45.957515 L 68.376513 47.703012 Z M 69.780177 46.89079 " stroke="rgb(13.729858%, 12.159729%, 12.548828%)" stroke-width="0.22" stroke-opacity="1" stroke-miterlimit="10"/><path stroke-linecap="round" transform="matrix(0.99906, 0, 0, 1.000342, 102.594043, 102.659576)" fill-opacity="1" fill="rgb(76.078796%, 28.239441%, 11.369324%)" fill-rule="nonzero" stroke-linejoin="round" d="M 69.780177 48.511329 L 69.780177 46.89079 L 68.376513 47.703012 Z M 69.780177 48.511329 " stroke="rgb(13.729858%, 12.159729%, 12.548828%)" stroke-width="0.22" stroke-opacity="1" stroke-miterlimit="10"/><path stroke-linecap="round" transform="matrix(0.99906, 0, 0, 1.000342, 102.594043, 102.659576)" fill-opacity="1" fill="rgb(65.489197%, 47.839355%, 19.999695%)" fill-rule="nonzero" stroke-linejoin="round" d="M 161.526618 69.738443 L 158.887417 51.412681 L 158.562893 49.175165 L 158.383037 47.913877 L 158.089792 45.883322 L 157.170959 50.381783 Z M 161.526618 69.738443 " stroke="rgb(13.729858%, 12.159729%, 12.548828%)" stroke-width="0.22" stroke-opacity="1" stroke-miterlimit="10"/><g clip-path="url(#id3)"><path fill="rgb(95.289612%, 79.60968%, 52.159119%)" d="M 205.082031 142.582031 L 195.769531 147.964844 L 232.097656 168.964844 L 259.617188 153.058594 L 260.535156 148.558594 L 227.640625 129.539062 L 218.539062 134.800781 L 213.761719 139.582031 L 212.921875 139.875 L 209.53125 141.042969 L 206.902344 141.953125 Z M 227.640625 133.484375 L 257.148438 150.542969 L 255.441406 151.527344 L 232.097656 165.023438 L 204.292969 148.949219 L 202.589844 147.964844 Z M 227.640625 133.484375 " fill-opacity="1" fill-rule="nonzero"/></g><g clip-path="url(#id4)"><path stroke-linecap="round" transform="matrix(0.99906, 0, 0, 1.000342, 102.594043, 102.659576)" fill="none" stroke-linejoin="round" d="M 102.584466 39.908803 L 93.263199 45.289775 L 129.625522 66.282594 L 157.170959 50.381783 L 158.089792 45.883322 L 125.164295 26.870295 L 116.054165 32.130214 L 111.272324 36.909829 L 110.43169 37.202698 L 107.037873 38.370267 L 104.406492 39.280112 Z M 125.164295 30.814258 L 154.699885 47.867018 L 152.991247 48.851057 L 129.625522 62.342535 L 101.794661 46.273813 L 100.089932 45.289775 Z M 125.164295 30.814258 " stroke="rgb(13.729858%, 12.159729%, 12.548828%)" stroke-width="0.22" stroke-opacity="1" stroke-miterlimit="10"/></g><path stroke-linecap="round" transform="matrix(0.99906, 0, 0, 1.000342, 102.594043, 102.659576)" fill-opacity="1" fill="rgb(95.289612%, 79.60968%, 52.159119%)" fill-rule="nonzero" stroke-linejoin="round" d="M 143.767729 85.857929 L 143.767729 66.794137 L 141.273195 68.235051 L 141.273195 84.42092 Z M 143.767729 85.857929 " stroke="rgb(13.729858%, 12.159729%, 12.548828%)" stroke-width="0.22" stroke-opacity="1" stroke-miterlimit="10"/><path stroke-linecap="round" transform="matrix(0.99906, 0, 0, 1.000342, 102.594043, 102.659576)" fill-opacity="1" fill="rgb(95.689392%, 81.959534%, 57.249451%)" fill-rule="nonzero" stroke-linejoin="round" d="M 115.545874 141.709916 L 113.825507 137.535563 L 111.678956 141.901257 Z M 115.545874 141.709916 " stroke="rgb(13.729858%, 12.159729%, 12.548828%)" stroke-width="0.22" stroke-opacity="1" stroke-miterlimit="10"/><path stroke-linecap="round" transform="matrix(0.99906, 0, 0, 1.000342, 102.594043, 102.659576)" fill-opacity="1" fill="rgb(13.729858%, 12.159729%, 12.548828%)" fill-rule="nonzero" stroke-linejoin="round" d="M 113.825507 147.87968 L 115.545874 141.709916 L 111.678956 141.901257 Z M 113.825507 147.87968 " stroke="rgb(13.729858%, 12.159729%, 12.548828%)" stroke-width="0.22" stroke-opacity="1" stroke-miterlimit="10"/><g clip-path="url(#id5)"><path stroke-linecap="round" transform="matrix(0.99906, 0, 0, 1.000342, 102.594043, 102.659576)" fill-opacity="1" fill="rgb(95.289612%, 79.60968%, 52.159119%)" fill-rule="nonzero" stroke-linejoin="round" d="M 111.678956 141.901257 L 113.825507 137.535563 L 113.825507 125.680243 L 85.208749 109.154647 L 85.208749 126.336269 L 87.261461 137.394986 L 85.208749 145.642165 L 85.208749 156.376774 L 113.825507 172.898466 L 113.825507 147.87968 Z M 87.464777 115.207264 L 88.712044 114.488759 L 90.690467 115.628994 L 90.690467 117.386206 L 89.443201 118.10471 L 87.464777 116.964475 Z M 91.675769 136.219607 L 90.428502 136.942016 L 88.450079 135.797876 L 88.450079 134.040665 L 89.697346 133.32216 L 91.675769 134.462395 Z M 95.671715 119.943924 L 96.918981 119.22542 L 98.897405 120.365655 L 98.897405 122.122867 L 97.650138 122.841371 L 95.671715 121.701136 Z M 96.508439 123.075666 L 98.08414 123.981606 L 102.8738 126.75019 L 102.8738 131.904677 L 96.508439 128.226247 Z M 103.9764 155.63484 L 103.9764 156.923462 L 97.01673 152.90921 L 97.01673 139.905846 L 98.134969 140.550157 L 98.62371 140.835215 L 98.62371 139.91756 L 99.870976 139.195151 L 101.8494 140.339291 L 101.8494 142.092598 L 101.325469 142.397181 L 103.9764 143.924002 Z M 103.909931 135.887689 L 103.909931 133.759511 L 104.433861 134.060189 L 107.952796 136.090745 L 107.952796 138.218923 L 109.598875 139.171722 L 109.598875 141.518575 L 108.484546 142.162886 L 105.192387 140.265098 L 105.192387 137.914339 L 106.306717 137.270029 Z M 110.775763 147.247084 L 109.528497 147.969494 L 107.550073 146.825354 L 107.550073 145.068142 L 108.79734 144.349638 L 110.775763 145.493778 Z M 110.775763 128.979896 L 109.528497 129.702305 L 107.550073 128.558165 L 107.550073 126.804859 L 108.79734 126.08245 L 110.775763 127.226589 Z M 110.775763 128.979896 " stroke="rgb(13.729858%, 12.159729%, 12.548828%)" stroke-width="0.22" stroke-opacity="1" stroke-miterlimit="10"/></g><path stroke-linecap="round" transform="matrix(0.99906, 0, 0, 1.000342, 102.594043, 102.659576)" fill-opacity="1" fill="rgb(68.238831%, 51.759338%, 25.878906%)" fill-rule="nonzero" stroke-linejoin="round" d="M 95.222073 74.482914 L 94.717692 72.413309 L 93.263199 79.988843 Z M 95.222073 74.482914 " stroke="rgb(13.729858%, 12.159729%, 12.548828%)" stroke-width="0.22" stroke-opacity="1" stroke-miterlimit="10"/><path stroke-linecap="round" transform="matrix(0.99906, 0, 0, 1.000342, 102.594043, 102.659576)" fill-opacity="1" fill="rgb(95.289612%, 79.60968%, 52.159119%)" fill-rule="nonzero" stroke-linejoin="round" d="M 92.277898 85.455722 L 93.263199 84.885605 L 93.263199 82.769141 L 92.277898 83.339259 Z M 92.277898 85.455722 " stroke="rgb(13.729858%, 12.159729%, 12.548828%)" stroke-width="0.22" stroke-opacity="1" stroke-miterlimit="10"/><g clip-path="url(#id6)"><path fill="rgb(95.289612%, 79.60968%, 52.159119%)" d="M 160.683594 172.492188 L 138.636719 159.746094 L 136.34375 158.421875 L 156.945312 146.507812 L 170.300781 154.230469 L 172.980469 151.578125 L 172.308594 151.1875 L 170.90625 150.378906 L 167.886719 148.632812 L 156.355469 141.96875 L 127.894531 158.421875 L 160.683594 177.375 Z M 160.683594 172.492188 " fill-opacity="1" fill-rule="nonzero"/></g><g clip-path="url(#id7)"><path stroke-linecap="round" transform="matrix(0.99906, 0, 0, 1.000342, 102.594043, 102.659576)" fill="none" stroke-linejoin="round" d="M 58.144234 69.808731 L 36.076604 57.066996 L 33.781477 55.74323 L 54.402433 43.833242 L 67.770474 51.553257 L 70.452684 48.901821 L 69.780177 48.511329 L 68.376513 47.703012 L 65.354139 45.957515 L 53.812034 39.295732 L 25.324305 55.74323 L 58.144234 74.689874 Z M 58.144234 69.808731 " stroke="rgb(13.729858%, 12.159729%, 12.548828%)" stroke-width="0.22" stroke-opacity="1" stroke-miterlimit="10"/></g><path stroke-linecap="round" transform="matrix(0.99906, 0, 0, 1.000342, 102.594043, 102.659576)" fill-opacity="1" fill="rgb(95.689392%, 81.568909%, 56.469727%)" fill-rule="nonzero" stroke-linejoin="round" d="M 71.402797 81.67967 L 72.923758 108.506431 L 74.43299 107.635635 L 72.912028 80.808874 Z M 71.402797 81.67967 " stroke="rgb(13.729858%, 12.159729%, 12.548828%)" stroke-width="0.22" stroke-opacity="1" stroke-miterlimit="10"/><path stroke-linecap="round" transform="matrix(0.99906, 0, 0, 1.000342, 102.594043, 102.659576)" fill-opacity="1" fill="rgb(69.40918%, 53.729248%, 28.62854%)" fill-rule="nonzero" stroke-linejoin="round" d="M 71.402797 81.67967 L 72.912028 80.808874 L 73.670554 79.473394 L 72.161322 80.34419 Z M 71.402797 81.67967 " stroke="rgb(13.729858%, 12.159729%, 12.548828%)" stroke-width="0.22" stroke-opacity="1" stroke-miterlimit="10"/><path stroke-linecap="round" transform="matrix(0.99906, 0, 0, 1.000342, 102.594043, 102.659576)" fill-opacity="1" fill="rgb(62.348938%, 42.749023%, 12.159729%)" fill-rule="nonzero" stroke-linejoin="round" d="M 72.161322 80.34419 L 73.670554 79.473394 L 74.214034 78.97747 L 73.209183 79.387486 Z M 72.161322 80.34419 " stroke="rgb(13.729858%, 12.159729%, 12.548828%)" stroke-width="0.22" stroke-opacity="1" stroke-miterlimit="10"/><path stroke-linecap="round" transform="matrix(0.99906, 0, 0, 1.000342, 102.594043, 102.659576)" fill-opacity="1" fill="rgb(76.078796%, 28.239441%, 11.369324%)" fill-rule="nonzero" stroke-linejoin="round" d="M 87.284921 107.955838 L 87.284921 90.848409 L 86.530305 88.638227 L 85.478534 86.471 L 84.180439 84.43654 L 82.682937 82.612945 L 81.048587 81.082218 L 79.343859 79.899029 L 77.64304 79.114142 L 76.008691 78.762699 L 74.511189 78.856417 L 74.214034 78.97747 L 73.670554 79.473394 L 72.912028 80.808874 L 74.43299 107.635635 L 85.208749 113.856163 L 85.208749 109.154647 Z M 87.284921 107.955838 " stroke="rgb(13.729858%, 12.159729%, 12.548828%)" stroke-width="0.22" stroke-opacity="1" stroke-miterlimit="10"/><path stroke-linecap="round" transform="matrix(0.99906, 0, 0, 1.000342, 102.594043, 102.659576)" fill-opacity="1" fill="rgb(58.81958%, 37.649536%, 4.309082%)" fill-rule="nonzero" stroke-linejoin="round" d="M 85.208749 126.336269 L 86.24879 132.349837 L 86.483386 133.700937 L 86.81573 135.62606 L 87.261461 137.394986 Z M 85.208749 126.336269 " stroke="rgb(13.729858%, 12.159729%, 12.548828%)" stroke-width="0.22" stroke-opacity="1" stroke-miterlimit="10"/><path stroke-linecap="round" transform="matrix(0.99906, 0, 0, 1.000342, 102.594043, 102.659576)" fill-opacity="1" fill="rgb(65.489197%, 47.839355%, 19.999695%)" fill-rule="nonzero" stroke-linejoin="round" d="M 86.81573 135.62606 L 85.208749 145.642165 L 87.261461 137.394986 Z M 86.81573 135.62606 " stroke="rgb(13.729858%, 12.159729%, 12.548828%)" stroke-width="0.22" stroke-opacity="1" stroke-miterlimit="10"/><path stroke-linecap="round" transform="matrix(0.99906, 0, 0, 1.000342, 102.594043, 102.659576)" fill-opacity="1" fill="rgb(76.078796%, 28.239441%, 11.369324%)" fill-rule="nonzero" stroke-linejoin="round" d="M 56.240099 62.533876 L 56.240099 64.65034 L 58.144234 65.74762 L 92.277898 85.455722 L 92.277898 83.339259 Z M 56.240099 62.533876 " stroke="rgb(13.729858%, 12.159729%, 12.548828%)" stroke-width="0.22" stroke-opacity="1" stroke-miterlimit="10"/><path stroke-linecap="round" transform="matrix(0.99906, 0, 0, 1.000342, 102.594043, 102.659576)" fill-opacity="1" fill="rgb(61.959839%, 42.349243%, 10.978699%)" fill-rule="nonzero" stroke-linejoin="round" d="M 116.054165 32.130214 L 110.43169 37.202698 L 111.272324 36.909829 Z M 116.054165 32.130214 " stroke="rgb(13.729858%, 12.159729%, 12.548828%)" stroke-width="0.22" stroke-opacity="1" stroke-miterlimit="10"/><path stroke-linecap="round" transform="matrix(0.99906, 0, 0, 1.000342, 102.594043, 102.659576)" fill-opacity="1" fill="rgb(95.289612%, 79.60968%, 52.159119%)" fill-rule="nonzero" stroke-linejoin="round" d="M 169.800024 131.98668 L 173.690402 129.737449 L 171.262337 128.335585 L 167.368049 130.584816 Z M 169.800024 131.98668 " stroke="rgb(13.729858%, 12.159729%, 12.548828%)" stroke-width="0.22" stroke-opacity="1" stroke-miterlimit="10"/><path stroke-linecap="round" transform="matrix(0.99906, 0, 0, 1.000342, 102.594043, 102.659576)" fill-opacity="1" fill="rgb(95.289612%, 79.60968%, 52.159119%)" fill-rule="nonzero" stroke-linejoin="round" d="M 167.368049 130.584816 L 167.368049 141.987165 L 169.800024 143.389029 L 169.800024 131.98668 Z M 167.368049 130.584816 " stroke="rgb(13.729858%, 12.159729%, 12.548828%)" stroke-width="0.22" stroke-opacity="1" stroke-miterlimit="10"/><path stroke-linecap="round" transform="matrix(0.99906, 0, 0, 1.000342, 102.594043, 102.659576)" fill-opacity="1" fill="rgb(95.289612%, 79.60968%, 52.159119%)" fill-rule="nonzero" stroke-linejoin="round" d="M 169.800024 143.389029 L 173.690402 141.139799 L 173.690402 129.737449 L 169.800024 131.98668 Z M 169.800024 143.389029 " stroke="rgb(13.729858%, 12.159729%, 12.548828%)" stroke-width="0.22" stroke-opacity="1" stroke-miterlimit="10"/><g clip-path="url(#id8)"><path fill="rgb(95.289612%, 79.60968%, 52.159119%)" d="M 277.105469 204.996094 L 273.695312 203.027344 L 273.695312 206.96875 Z M 277.105469 204.996094 " fill-opacity="1" fill-rule="nonzero"/></g><g clip-path="url(#id9)"><path stroke-linecap="round" transform="matrix(0.99906, 0, 0, 1.000342, 102.594043, 102.659576)" fill="none" stroke-linejoin="round" d="M 174.675703 102.301522 L 171.262337 100.333445 L 171.262337 104.273504 Z M 174.675703 102.301522 " stroke="rgb(13.729858%, 12.159729%, 12.548828%)" stroke-width="0.22" stroke-opacity="1" stroke-miterlimit="10"/></g><path stroke-linecap="round" transform="matrix(0.99906, 0, 0, 1.000342, 102.594043, 102.659576)" fill-opacity="1" fill="rgb(76.078796%, 28.239441%, 11.369324%)" fill-rule="nonzero" stroke-linejoin="round" d="M 86.24879 133.56817 L 86.483386 133.700937 L 86.24879 132.349837 Z M 86.24879 133.56817 " stroke="rgb(13.729858%, 12.159729%, 12.548828%)" stroke-width="0.22" stroke-opacity="1" stroke-miterlimit="10"/><path stroke-linecap="round" transform="matrix(0.99906, 0, 0, 1.000342, 102.594043, 102.659576)" fill-opacity="1" fill="rgb(76.078796%, 28.239441%, 11.369324%)" fill-rule="nonzero" stroke-linejoin="round" d="M 141.273195 68.235051 L 135.408305 71.620611 L 135.408305 87.806481 L 141.273195 84.42092 Z M 141.273195 68.235051 " stroke="rgb(13.729858%, 12.159729%, 12.548828%)" stroke-width="0.22" stroke-opacity="1" stroke-miterlimit="10"/><path stroke-linecap="round" transform="matrix(0.99906, 0, 0, 1.000342, 102.594043, 102.659576)" fill-opacity="1" fill="rgb(95.289612%, 79.60968%, 52.159119%)" fill-rule="nonzero" stroke-linejoin="round" d="M 54.402433 43.833242 L 33.781477 55.74323 L 36.076604 57.066996 L 54.402433 46.488584 Z M 54.402433 43.833242 " stroke="rgb(13.729858%, 12.159729%, 12.548828%)" stroke-width="0.22" stroke-opacity="1" stroke-miterlimit="10"/><path stroke-linecap="round" transform="matrix(0.99906, 0, 0, 1.000342, 102.594043, 102.659576)" fill-opacity="1" fill="rgb(76.078796%, 28.239441%, 11.369324%)" fill-rule="nonzero" stroke-linejoin="round" d="M 123.420468 69.289378 L 121.442045 68.149143 L 119.932813 69.019939 L 121.911236 70.160174 Z M 123.420468 69.289378 " stroke="rgb(13.729858%, 12.159729%, 12.548828%)" stroke-width="0.22" stroke-opacity="1" stroke-miterlimit="10"/><path stroke-linecap="round" transform="matrix(0.99906, 0, 0, 1.000342, 102.594043, 102.659576)" fill-opacity="1" fill="rgb(76.078796%, 28.239441%, 11.369324%)" fill-rule="nonzero" stroke-linejoin="round" d="M 121.911236 71.917385 L 123.420468 71.046589 L 123.420468 69.289378 L 121.911236 70.160174 Z M 121.911236 71.917385 " stroke="rgb(13.729858%, 12.159729%, 12.548828%)" stroke-width="0.22" stroke-opacity="1" stroke-miterlimit="10"/><path stroke-linecap="round" transform="matrix(0.99906, 0, 0, 1.000342, 102.594043, 102.659576)" fill-opacity="1" fill="rgb(76.078796%, 28.239441%, 11.369324%)" fill-rule="nonzero" stroke-linejoin="round" d="M 121.911236 70.160174 L 119.932813 69.019939 L 119.932813 70.77715 L 121.911236 71.917385 Z M 121.911236 70.160174 " stroke="rgb(13.729858%, 12.159729%, 12.548828%)" stroke-width="0.22" stroke-opacity="1" stroke-miterlimit="10"/><path stroke-linecap="round" transform="matrix(0.99906, 0, 0, 1.000342, 102.594043, 102.659576)" fill-opacity="1" fill="rgb(76.078796%, 28.239441%, 11.369324%)" fill-rule="nonzero" stroke-linejoin="round" d="M 101.454497 56.606216 L 99.476074 55.465981 L 97.966842 56.336777 L 99.945265 57.480917 Z M 101.454497 56.606216 " stroke="rgb(13.729858%, 12.159729%, 12.548828%)" stroke-width="0.22" stroke-opacity="1" stroke-miterlimit="10"/><path stroke-linecap="round" transform="matrix(0.99906, 0, 0, 1.000342, 102.594043, 102.659576)" fill-opacity="1" fill="rgb(76.078796%, 28.239441%, 11.369324%)" fill-rule="nonzero" stroke-linejoin="round" d="M 99.945265 59.234224 L 101.454497 58.363428 L 101.454497 56.606216 L 99.945265 57.480917 Z M 99.945265 59.234224 " stroke="rgb(13.729858%, 12.159729%, 12.548828%)" stroke-width="0.22" stroke-opacity="1" stroke-miterlimit="10"/><path stroke-linecap="round" transform="matrix(0.99906, 0, 0, 1.000342, 102.594043, 102.659576)" fill-opacity="1" fill="rgb(76.078796%, 28.239441%, 11.369324%)" fill-rule="nonzero" stroke-linejoin="round" d="M 99.945265 57.480917 L 97.966842 56.336777 L 97.966842 58.093989 L 99.945265 59.234224 Z M 99.945265 57.480917 " stroke="rgb(13.729858%, 12.159729%, 12.548828%)" stroke-width="0.22" stroke-opacity="1" stroke-miterlimit="10"/><path stroke-linecap="round" transform="matrix(0.99906, 0, 0, 1.000342, 102.594043, 102.659576)" fill-opacity="1" fill="rgb(76.078796%, 28.239441%, 11.369324%)" fill-rule="nonzero" stroke-linejoin="round" d="M 109.528497 147.969494 L 110.775763 147.247084 L 110.775763 145.493778 L 109.528497 146.212282 Z M 109.528497 147.969494 " stroke="rgb(13.729858%, 12.159729%, 12.548828%)" stroke-width="0.22" stroke-opacity="1" stroke-miterlimit="10"/><path stroke-linecap="round" transform="matrix(0.99906, 0, 0, 1.000342, 102.594043, 102.659576)" fill-opacity="1" fill="rgb(76.078796%, 28.239441%, 11.369324%)" fill-rule="nonzero" stroke-linejoin="round" d="M 107.550073 145.068142 L 107.550073 146.825354 L 109.528497 147.969494 L 109.528497 146.212282 Z M 107.550073 145.068142 " stroke="rgb(13.729858%, 12.159729%, 12.548828%)" stroke-width="0.22" stroke-opacity="1" stroke-miterlimit="10"/><path stroke-linecap="round" transform="matrix(0.99906, 0, 0, 1.000342, 102.594043, 102.659576)" fill-opacity="1" fill="rgb(76.078796%, 28.239441%, 11.369324%)" fill-rule="nonzero" stroke-linejoin="round" d="M 107.550073 145.068142 L 109.528497 146.212282 L 110.775763 145.493778 L 108.79734 144.349638 Z M 107.550073 145.068142 " stroke="rgb(13.729858%, 12.159729%, 12.548828%)" stroke-width="0.22" stroke-opacity="1" stroke-miterlimit="10"/><path stroke-linecap="round" transform="matrix(0.99906, 0, 0, 1.000342, 102.594043, 102.659576)" fill-opacity="1" fill="rgb(76.078796%, 28.239441%, 11.369324%)" fill-rule="nonzero" stroke-linejoin="round" d="M 101.8494 140.339291 L 99.870976 139.195151 L 98.62371 139.91756 L 100.602133 141.057795 Z M 101.8494 140.339291 " stroke="rgb(13.729858%, 12.159729%, 12.548828%)" stroke-width="0.22" stroke-opacity="1" stroke-miterlimit="10"/><path stroke-linecap="round" transform="matrix(0.99906, 0, 0, 1.000342, 102.594043, 102.659576)" fill-opacity="1" fill="rgb(76.078796%, 28.239441%, 11.369324%)" fill-rule="nonzero" stroke-linejoin="round" d="M 100.602133 142.815007 L 101.325469 142.397181 L 101.8494 142.092598 L 101.8494 140.339291 L 100.602133 141.057795 Z M 100.602133 142.815007 " stroke="rgb(13.729858%, 12.159729%, 12.548828%)" stroke-width="0.22" stroke-opacity="1" stroke-miterlimit="10"/><path stroke-linecap="round" transform="matrix(0.99906, 0, 0, 1.000342, 102.594043, 102.659576)" fill-opacity="1" fill="rgb(76.078796%, 28.239441%, 11.369324%)" fill-rule="nonzero" stroke-linejoin="round" d="M 100.602133 142.815007 L 100.602133 141.057795 L 98.62371 139.91756 L 98.62371 141.670867 Z M 100.602133 142.815007 " stroke="rgb(13.729858%, 12.159729%, 12.548828%)" stroke-width="0.22" stroke-opacity="1" stroke-miterlimit="10"/><path stroke-linecap="round" transform="matrix(0.99906, 0, 0, 1.000342, 102.594043, 102.659576)" fill-opacity="1" fill="rgb(76.469421%, 29.019165%, 12.159729%)" fill-rule="nonzero" stroke-linejoin="round" d="M 100.602133 142.815007 L 98.62371 141.670867 L 98.62371 140.835215 L 98.134969 140.550157 L 98.134969 152.264899 L 103.9764 155.63484 L 103.9764 143.924002 L 101.325469 142.397181 Z M 100.602133 142.815007 " stroke="rgb(13.729858%, 12.159729%, 12.548828%)" stroke-width="0.22" stroke-opacity="1" stroke-miterlimit="10"/><path stroke-linecap="round" transform="matrix(0.99906, 0, 0, 1.000342, 102.594043, 102.659576)" fill-opacity="1" fill="rgb(95.289612%, 79.60968%, 52.159119%)" fill-rule="nonzero" stroke-linejoin="round" d="M 97.01673 152.90921 L 103.9764 156.923462 L 103.9764 155.63484 L 98.134969 152.264899 Z M 97.01673 152.90921 " stroke="rgb(13.729858%, 12.159729%, 12.548828%)" stroke-width="0.22" stroke-opacity="1" stroke-miterlimit="10"/><path stroke-linecap="round" transform="matrix(0.99906, 0, 0, 1.000342, 102.594043, 102.659576)" fill-opacity="1" fill="rgb(95.289612%, 79.60968%, 52.159119%)" fill-rule="nonzero" stroke-linejoin="round" d="M 98.134969 140.550157 L 97.01673 139.905846 L 97.01673 152.90921 L 98.134969 152.264899 Z M 98.134969 140.550157 " stroke="rgb(13.729858%, 12.159729%, 12.548828%)" stroke-width="0.22" stroke-opacity="1" stroke-miterlimit="10"/><path stroke-linecap="round" transform="matrix(0.99906, 0, 0, 1.000342, 102.594043, 102.659576)" fill-opacity="1" fill="rgb(76.078796%, 28.239441%, 11.369324%)" fill-rule="nonzero" stroke-linejoin="round" d="M 90.428502 136.942016 L 91.675769 136.219607 L 91.675769 134.462395 L 90.428502 135.184804 Z M 90.428502 136.942016 " stroke="rgb(13.729858%, 12.159729%, 12.548828%)" stroke-width="0.22" stroke-opacity="1" stroke-miterlimit="10"/><path stroke-linecap="round" transform="matrix(0.99906, 0, 0, 1.000342, 102.594043, 102.659576)" fill-opacity="1" fill="rgb(76.078796%, 28.239441%, 11.369324%)" fill-rule="nonzero" stroke-linejoin="round" d="M 88.450079 134.040665 L 88.450079 135.797876 L 90.428502 136.942016 L 90.428502 135.184804 Z M 88.450079 134.040665 " stroke="rgb(13.729858%, 12.159729%, 12.548828%)" stroke-width="0.22" stroke-opacity="1" stroke-miterlimit="10"/><path stroke-linecap="round" transform="matrix(0.99906, 0, 0, 1.000342, 102.594043, 102.659576)" fill-opacity="1" fill="rgb(76.078796%, 28.239441%, 11.369324%)" fill-rule="nonzero" stroke-linejoin="round" d="M 88.450079 134.040665 L 90.428502 135.184804 L 91.675769 134.462395 L 89.697346 133.32216 Z M 88.450079 134.040665 " stroke="rgb(13.729858%, 12.159729%, 12.548828%)" stroke-width="0.22" stroke-opacity="1" stroke-miterlimit="10"/><path stroke-linecap="round" transform="matrix(0.99906, 0, 0, 1.000342, 102.594043, 102.659576)" fill-opacity="1" fill="rgb(76.078796%, 28.239441%, 11.369324%)" fill-rule="nonzero" stroke-linejoin="round" d="M 121.962065 125.707578 L 120.519302 124.875831 L 118.388392 126.101974 L 119.835065 126.937626 Z M 121.962065 125.707578 " stroke="rgb(13.729858%, 12.159729%, 12.548828%)" stroke-width="0.22" stroke-opacity="1" stroke-miterlimit="10"/><path stroke-linecap="round" transform="matrix(0.99906, 0, 0, 1.000342, 102.594043, 102.659576)" fill-opacity="1" fill="rgb(76.078796%, 28.239441%, 11.369324%)" fill-rule="nonzero" stroke-linejoin="round" d="M 119.835065 126.937626 L 118.388392 126.101974 L 118.388392 127.859185 L 119.835065 128.694837 Z M 119.835065 126.937626 " stroke="rgb(13.729858%, 12.159729%, 12.548828%)" stroke-width="0.22" stroke-opacity="1" stroke-miterlimit="10"/><path stroke-linecap="round" transform="matrix(0.99906, 0, 0, 1.000342, 102.594043, 102.659576)" fill-opacity="1" fill="rgb(76.078796%, 28.239441%, 11.369324%)" fill-rule="nonzero" stroke-linejoin="round" d="M 119.835065 128.694837 L 121.962065 127.464789 L 121.962065 125.707578 L 119.835065 126.937626 Z M 119.835065 128.694837 " stroke="rgb(13.729858%, 12.159729%, 12.548828%)" stroke-width="0.22" stroke-opacity="1" stroke-miterlimit="10"/><path stroke-linecap="round" transform="matrix(0.99906, 0, 0, 1.000342, 102.594043, 102.659576)" fill-opacity="1" fill="rgb(76.078796%, 28.239441%, 11.369324%)" fill-rule="nonzero" stroke-linejoin="round" d="M 130.169002 120.970917 L 128.722329 120.13917 L 126.595329 121.365313 L 128.038092 122.200965 Z M 130.169002 120.970917 " stroke="rgb(13.729858%, 12.159729%, 12.548828%)" stroke-width="0.22" stroke-opacity="1" stroke-miterlimit="10"/><path stroke-linecap="round" transform="matrix(0.99906, 0, 0, 1.000342, 102.594043, 102.659576)" fill-opacity="1" fill="rgb(76.078796%, 28.239441%, 11.369324%)" fill-rule="nonzero" stroke-linejoin="round" d="M 128.038092 122.200965 L 126.595329 121.365313 L 126.595329 123.122525 L 128.038092 123.954271 Z M 128.038092 122.200965 " stroke="rgb(13.729858%, 12.159729%, 12.548828%)" stroke-width="0.22" stroke-opacity="1" stroke-miterlimit="10"/><path stroke-linecap="round" transform="matrix(0.99906, 0, 0, 1.000342, 102.594043, 102.659576)" fill-opacity="1" fill="rgb(76.078796%, 28.239441%, 11.369324%)" fill-rule="nonzero" stroke-linejoin="round" d="M 128.038092 123.954271 L 130.169002 122.728128 L 130.169002 120.970917 L 128.038092 122.200965 Z M 128.038092 123.954271 " stroke="rgb(13.729858%, 12.159729%, 12.548828%)" stroke-width="0.22" stroke-opacity="1" stroke-miterlimit="10"/><path stroke-linecap="round" transform="matrix(0.99906, 0, 0, 1.000342, 102.594043, 102.659576)" fill-opacity="1" fill="rgb(76.078796%, 28.239441%, 11.369324%)" fill-rule="nonzero" stroke-linejoin="round" d="M 123.443927 146.302095 L 124.886691 147.137747 L 127.017601 145.907699 L 125.570928 145.072047 Z M 123.443927 146.302095 " stroke="rgb(13.729858%, 12.159729%, 12.548828%)" stroke-width="0.22" stroke-opacity="1" stroke-miterlimit="10"/><path stroke-linecap="round" transform="matrix(0.99906, 0, 0, 1.000342, 102.594043, 102.659576)" fill-opacity="1" fill="rgb(76.078796%, 28.239441%, 11.369324%)" fill-rule="nonzero" stroke-linejoin="round" d="M 124.886691 148.891053 L 127.017601 147.66491 L 127.017601 145.907699 L 124.886691 147.137747 Z M 124.886691 148.891053 " stroke="rgb(13.729858%, 12.159729%, 12.548828%)" stroke-width="0.22" stroke-opacity="1" stroke-miterlimit="10"/><path stroke-linecap="round" transform="matrix(0.99906, 0, 0, 1.000342, 102.594043, 102.659576)" fill-opacity="1" fill="rgb(76.078796%, 28.239441%, 11.369324%)" fill-rule="nonzero" stroke-linejoin="round" d="M 123.443927 146.302095 L 123.443927 148.059307 L 124.886691 148.891053 L 124.886691 147.137747 Z M 123.443927 146.302095 " stroke="rgb(13.729858%, 12.159729%, 12.548828%)" stroke-width="0.22" stroke-opacity="1" stroke-miterlimit="10"/><path stroke-linecap="round" transform="matrix(0.99906, 0, 0, 1.000342, 102.594043, 102.659576)" fill-opacity="1" fill="rgb(76.078796%, 28.239441%, 11.369324%)" fill-rule="nonzero" stroke-linejoin="round" d="M 120.124399 149.886806 L 118.681636 149.051155 L 116.550726 150.281203 L 117.997399 151.116854 Z M 120.124399 149.886806 " stroke="rgb(13.729858%, 12.159729%, 12.548828%)" stroke-width="0.22" stroke-opacity="1" stroke-miterlimit="10"/><path stroke-linecap="round" transform="matrix(0.99906, 0, 0, 1.000342, 102.594043, 102.659576)" fill-opacity="1" fill="rgb(76.078796%, 28.239441%, 11.369324%)" fill-rule="nonzero" stroke-linejoin="round" d="M 120.124399 149.886806 L 117.997399 151.116854 L 117.997399 152.870161 L 120.124399 151.644018 Z M 120.124399 149.886806 " stroke="rgb(13.729858%, 12.159729%, 12.548828%)" stroke-width="0.22" stroke-opacity="1" stroke-miterlimit="10"/><path stroke-linecap="round" transform="matrix(0.99906, 0, 0, 1.000342, 102.594043, 102.659576)" fill-opacity="1" fill="rgb(76.078796%, 28.239441%, 11.369324%)" fill-rule="nonzero" stroke-linejoin="round" d="M 116.550726 150.281203 L 116.550726 152.038414 L 117.997399 152.870161 L 117.997399 151.116854 Z M 116.550726 150.281203 " stroke="rgb(13.729858%, 12.159729%, 12.548828%)" stroke-width="0.22" stroke-opacity="1" stroke-miterlimit="10"/><path stroke-linecap="round" transform="matrix(0.99906, 0, 0, 1.000342, 102.594043, 102.659576)" fill-opacity="1" fill="rgb(76.078796%, 28.239441%, 11.369324%)" fill-rule="nonzero" stroke-linejoin="round" d="M 134.833545 68.125713 L 136.21375 68.922316 L 138.34075 67.692268 L 136.964456 66.89957 Z M 134.833545 68.125713 " stroke="rgb(13.729858%, 12.159729%, 12.548828%)" stroke-width="0.22" stroke-opacity="1" stroke-miterlimit="10"/><path stroke-linecap="round" transform="matrix(0.99906, 0, 0, 1.000342, 102.594043, 102.659576)" fill-opacity="1" fill="rgb(76.078796%, 28.239441%, 11.369324%)" fill-rule="nonzero" stroke-linejoin="round" d="M 134.833545 68.125713 L 134.833545 69.882925 L 136.21375 70.679527 L 136.21375 68.922316 Z M 134.833545 68.125713 " stroke="rgb(13.729858%, 12.159729%, 12.548828%)" stroke-width="0.22" stroke-opacity="1" stroke-miterlimit="10"/><path stroke-linecap="round" transform="matrix(0.99906, 0, 0, 1.000342, 102.594043, 102.659576)" fill-opacity="1" fill="rgb(76.078796%, 28.239441%, 11.369324%)" fill-rule="nonzero" stroke-linejoin="round" d="M 136.21375 70.679527 L 138.34075 69.449479 L 138.34075 67.692268 L 136.21375 68.922316 Z M 136.21375 70.679527 " stroke="rgb(13.729858%, 12.159729%, 12.548828%)" stroke-width="0.22" stroke-opacity="1" stroke-miterlimit="10"/><path stroke-linecap="round" transform="matrix(0.99906, 0, 0, 1.000342, 102.594043, 102.659576)" fill-opacity="1" fill="rgb(76.078796%, 28.239441%, 11.369324%)" fill-rule="nonzero" stroke-linejoin="round" d="M 154.856282 56.567167 L 154.856282 58.324379 L 156.232577 59.120981 L 156.232577 57.36377 Z M 154.856282 56.567167 " stroke="rgb(13.729858%, 12.159729%, 12.548828%)" stroke-width="0.22" stroke-opacity="1" stroke-miterlimit="10"/><path stroke-linecap="round" transform="matrix(0.99906, 0, 0, 1.000342, 102.594043, 102.659576)" fill-opacity="1" fill="rgb(76.078796%, 28.239441%, 11.369324%)" fill-rule="nonzero" stroke-linejoin="round" d="M 154.856282 56.567167 L 156.232577 57.36377 L 158.363487 56.133722 L 156.983283 55.341024 Z M 154.856282 56.567167 " stroke="rgb(13.729858%, 12.159729%, 12.548828%)" stroke-width="0.22" stroke-opacity="1" stroke-miterlimit="10"/><path stroke-linecap="round" transform="matrix(0.99906, 0, 0, 1.000342, 102.594043, 102.659576)" fill-opacity="1" fill="rgb(76.078796%, 28.239441%, 11.369324%)" fill-rule="nonzero" stroke-linejoin="round" d="M 156.232577 59.120981 L 158.363487 57.890933 L 158.363487 56.133722 L 156.232577 57.36377 Z M 156.232577 59.120981 " stroke="rgb(13.729858%, 12.159729%, 12.548828%)" stroke-width="0.22" stroke-opacity="1" stroke-miterlimit="10"/><path stroke-linecap="round" transform="matrix(0.99906, 0, 0, 1.000342, 102.594043, 102.659576)" fill-opacity="1" fill="rgb(76.078796%, 28.239441%, 11.369324%)" fill-rule="nonzero" stroke-linejoin="round" d="M 48.834697 73.799554 L 50.81312 74.939788 L 51.860981 74.334527 L 49.882557 73.194292 Z M 48.834697 73.799554 " stroke="rgb(13.729858%, 12.159729%, 12.548828%)" stroke-width="0.22" stroke-opacity="1" stroke-miterlimit="10"/><path stroke-linecap="round" transform="matrix(0.99906, 0, 0, 1.000342, 102.594043, 102.659576)" fill-opacity="1" fill="rgb(76.078796%, 28.239441%, 11.369324%)" fill-rule="nonzero" stroke-linejoin="round" d="M 50.81312 76.697 L 51.860981 76.091738 L 51.860981 74.334527 L 50.81312 74.939788 Z M 50.81312 76.697 " stroke="rgb(13.729858%, 12.159729%, 12.548828%)" stroke-width="0.22" stroke-opacity="1" stroke-miterlimit="10"/><path stroke-linecap="round" transform="matrix(0.99906, 0, 0, 1.000342, 102.594043, 102.659576)" fill-opacity="1" fill="rgb(76.078796%, 28.239441%, 11.369324%)" fill-rule="nonzero" stroke-linejoin="round" d="M 48.834697 73.799554 L 48.834697 75.556765 L 50.81312 76.697 L 50.81312 74.939788 Z M 48.834697 73.799554 " stroke="rgb(13.729858%, 12.159729%, 12.548828%)" stroke-width="0.22" stroke-opacity="1" stroke-miterlimit="10"/><path stroke-linecap="round" transform="matrix(0.99906, 0, 0, 1.000342, 102.594043, 102.659576)" fill-opacity="1" fill="rgb(76.078796%, 28.239441%, 11.369324%)" fill-rule="nonzero" stroke-linejoin="round" d="M 60.779524 70.464757 L 62.757948 71.604992 L 64.005214 70.886488 L 62.026791 69.742348 Z M 60.779524 70.464757 " stroke="rgb(13.729858%, 12.159729%, 12.548828%)" stroke-width="0.22" stroke-opacity="1" stroke-miterlimit="10"/><path stroke-linecap="round" transform="matrix(0.99906, 0, 0, 1.000342, 102.594043, 102.659576)" fill-opacity="1" fill="rgb(76.078796%, 28.239441%, 11.369324%)" fill-rule="nonzero" stroke-linejoin="round" d="M 62.757948 73.362203 L 64.005214 72.639794 L 64.005214 70.886488 L 62.757948 71.604992 Z M 62.757948 73.362203 " stroke="rgb(13.729858%, 12.159729%, 12.548828%)" stroke-width="0.22" stroke-opacity="1" stroke-miterlimit="10"/><path stroke-linecap="round" transform="matrix(0.99906, 0, 0, 1.000342, 102.594043, 102.659576)" fill-opacity="1" fill="rgb(76.078796%, 28.239441%, 11.369324%)" fill-rule="nonzero" stroke-linejoin="round" d="M 60.779524 70.464757 L 60.779524 72.218063 L 62.757948 73.362203 L 62.757948 71.604992 Z M 60.779524 70.464757 " stroke="rgb(13.729858%, 12.159729%, 12.548828%)" stroke-width="0.22" stroke-opacity="1" stroke-miterlimit="10"/><path stroke-linecap="round" transform="matrix(0.99906, 0, 0, 1.000342, 102.594043, 102.659576)" fill-opacity="1" fill="rgb(76.078796%, 28.239441%, 11.369324%)" fill-rule="nonzero" stroke-linejoin="round" d="M 91.707048 86.877111 L 89.728625 85.736876 L 88.481359 86.45538 L 90.459782 87.59952 Z M 91.707048 86.877111 " stroke="rgb(13.729858%, 12.159729%, 12.548828%)" stroke-width="0.22" stroke-opacity="1" stroke-miterlimit="10"/><path stroke-linecap="round" transform="matrix(0.99906, 0, 0, 1.000342, 102.594043, 102.659576)" fill-opacity="1" fill="rgb(76.078796%, 28.239441%, 11.369324%)" fill-rule="nonzero" stroke-linejoin="round" d="M 90.459782 89.352827 L 91.707048 88.634323 L 91.707048 86.877111 L 90.459782 87.59952 Z M 90.459782 89.352827 " stroke="rgb(13.729858%, 12.159729%, 12.548828%)" stroke-width="0.22" stroke-opacity="1" stroke-miterlimit="10"/><path stroke-linecap="round" transform="matrix(0.99906, 0, 0, 1.000342, 102.594043, 102.659576)" fill-opacity="1" fill="rgb(76.078796%, 28.239441%, 11.369324%)" fill-rule="nonzero" stroke-linejoin="round" d="M 90.459782 87.59952 L 88.481359 86.45538 L 88.481359 88.212592 L 90.459782 89.352827 Z M 90.459782 87.59952 " stroke="rgb(13.729858%, 12.159729%, 12.548828%)" stroke-width="0.22" stroke-opacity="1" stroke-miterlimit="10"/><path stroke-linecap="round" transform="matrix(0.99906, 0, 0, 1.000342, 102.594043, 102.659576)" fill-opacity="1" fill="rgb(76.078796%, 28.239441%, 11.369324%)" fill-rule="nonzero" stroke-linejoin="round" d="M 109.528497 129.702305 L 110.775763 128.979896 L 110.775763 127.226589 L 109.528497 127.945094 Z M 109.528497 129.702305 " stroke="rgb(13.729858%, 12.159729%, 12.548828%)" stroke-width="0.22" stroke-opacity="1" stroke-miterlimit="10"/><path stroke-linecap="round" transform="matrix(0.99906, 0, 0, 1.000342, 102.594043, 102.659576)" fill-opacity="1" fill="rgb(76.078796%, 28.239441%, 11.369324%)" fill-rule="nonzero" stroke-linejoin="round" d="M 107.550073 126.804859 L 109.528497 127.945094 L 110.775763 127.226589 L 108.79734 126.08245 Z M 107.550073 126.804859 " stroke="rgb(13.729858%, 12.159729%, 12.548828%)" stroke-width="0.22" stroke-opacity="1" stroke-miterlimit="10"/><path stroke-linecap="round" transform="matrix(0.99906, 0, 0, 1.000342, 102.594043, 102.659576)" fill-opacity="1" fill="rgb(76.078796%, 28.239441%, 11.369324%)" fill-rule="nonzero" stroke-linejoin="round" d="M 107.550073 126.804859 L 107.550073 128.558165 L 109.528497 129.702305 L 109.528497 127.945094 Z M 107.550073 126.804859 " stroke="rgb(13.729858%, 12.159729%, 12.548828%)" stroke-width="0.22" stroke-opacity="1" stroke-miterlimit="10"/><path stroke-linecap="round" transform="matrix(0.99906, 0, 0, 1.000342, 102.594043, 102.659576)" fill-opacity="1" fill="rgb(76.078796%, 28.239441%, 11.369324%)" fill-rule="nonzero" stroke-linejoin="round" d="M 97.650138 122.841371 L 98.897405 122.122867 L 98.897405 120.365655 L 97.650138 121.088064 Z M 97.650138 122.841371 " stroke="rgb(13.729858%, 12.159729%, 12.548828%)" stroke-width="0.22" stroke-opacity="1" stroke-miterlimit="10"/><path stroke-linecap="round" transform="matrix(0.99906, 0, 0, 1.000342, 102.594043, 102.659576)" fill-opacity="1" fill="rgb(76.078796%, 28.239441%, 11.369324%)" fill-rule="nonzero" stroke-linejoin="round" d="M 98.897405 120.365655 L 96.918981 119.22542 L 95.671715 119.943924 L 97.650138 121.088064 Z M 98.897405 120.365655 " stroke="rgb(13.729858%, 12.159729%, 12.548828%)" stroke-width="0.22" stroke-opacity="1" stroke-miterlimit="10"/><path stroke-linecap="round" transform="matrix(0.99906, 0, 0, 1.000342, 102.594043, 102.659576)" fill-opacity="1" fill="rgb(76.078796%, 28.239441%, 11.369324%)" fill-rule="nonzero" stroke-linejoin="round" d="M 97.650138 121.088064 L 95.671715 119.943924 L 95.671715 121.701136 L 97.650138 122.841371 Z M 97.650138 121.088064 " stroke="rgb(13.729858%, 12.159729%, 12.548828%)" stroke-width="0.22" stroke-opacity="1" stroke-miterlimit="10"/><path stroke-linecap="round" transform="matrix(0.99906, 0, 0, 1.000342, 102.594043, 102.659576)" fill-opacity="1" fill="rgb(76.078796%, 28.239441%, 11.369324%)" fill-rule="nonzero" stroke-linejoin="round" d="M 158.363487 126.141023 L 158.363487 127.898235 L 159.81016 128.729981 L 159.81016 126.976675 Z M 158.363487 126.141023 " stroke="rgb(13.729858%, 12.159729%, 12.548828%)" stroke-width="0.22" stroke-opacity="1" stroke-miterlimit="10"/><path stroke-linecap="round" transform="matrix(0.99906, 0, 0, 1.000342, 102.594043, 102.659576)" fill-opacity="1" fill="rgb(76.078796%, 28.239441%, 11.369324%)" fill-rule="nonzero" stroke-linejoin="round" d="M 158.363487 126.141023 L 159.81016 126.976675 L 161.937161 125.746627 L 160.494397 124.910975 Z M 158.363487 126.141023 " stroke="rgb(13.729858%, 12.159729%, 12.548828%)" stroke-width="0.22" stroke-opacity="1" stroke-miterlimit="10"/><path stroke-linecap="round" transform="matrix(0.99906, 0, 0, 1.000342, 102.594043, 102.659576)" fill-opacity="1" fill="rgb(76.078796%, 28.239441%, 11.369324%)" fill-rule="nonzero" stroke-linejoin="round" d="M 159.81016 128.729981 L 161.937161 127.503838 L 161.937161 125.746627 L 159.81016 126.976675 Z M 159.81016 128.729981 " stroke="rgb(13.729858%, 12.159729%, 12.548828%)" stroke-width="0.22" stroke-opacity="1" stroke-miterlimit="10"/><path stroke-linecap="round" transform="matrix(0.99906, 0, 0, 1.000342, 102.594043, 102.659576)" fill-opacity="1" fill="rgb(76.078796%, 28.239441%, 11.369324%)" fill-rule="nonzero" stroke-linejoin="round" d="M 159.81016 103.859583 L 158.363487 103.023931 L 158.363487 104.781143 L 159.81016 105.612889 Z M 159.81016 103.859583 " stroke="rgb(13.729858%, 12.159729%, 12.548828%)" stroke-width="0.22" stroke-opacity="1" stroke-miterlimit="10"/><path stroke-linecap="round" transform="matrix(0.99906, 0, 0, 1.000342, 102.594043, 102.659576)" fill-opacity="1" fill="rgb(76.078796%, 28.239441%, 11.369324%)" fill-rule="nonzero" stroke-linejoin="round" d="M 161.937161 102.629535 L 160.494397 101.793883 L 158.363487 103.023931 L 159.81016 103.859583 Z M 161.937161 102.629535 " stroke="rgb(13.729858%, 12.159729%, 12.548828%)" stroke-width="0.22" stroke-opacity="1" stroke-miterlimit="10"/><path stroke-linecap="round" transform="matrix(0.99906, 0, 0, 1.000342, 102.594043, 102.659576)" fill-opacity="1" fill="rgb(76.078796%, 28.239441%, 11.369324%)" fill-rule="nonzero" stroke-linejoin="round" d="M 159.81016 105.612889 L 161.937161 104.386746 L 161.937161 102.629535 L 159.81016 103.859583 Z M 159.81016 105.612889 " stroke="rgb(13.729858%, 12.159729%, 12.548828%)" stroke-width="0.22" stroke-opacity="1" stroke-miterlimit="10"/><path stroke-linecap="round" transform="matrix(0.99906, 0, 0, 1.000342, 102.594043, 102.659576)" fill-opacity="1" fill="rgb(76.078796%, 28.239441%, 11.369324%)" fill-rule="nonzero" stroke-linejoin="round" d="M 138.962428 115.894528 L 137.519665 115.058877 L 135.392665 116.288925 L 136.835428 117.120671 Z M 138.962428 115.894528 " stroke="rgb(13.729858%, 12.159729%, 12.548828%)" stroke-width="0.22" stroke-opacity="1" stroke-miterlimit="10"/><path stroke-linecap="round" transform="matrix(0.99906, 0, 0, 1.000342, 102.594043, 102.659576)" fill-opacity="1" fill="rgb(76.078796%, 28.239441%, 11.369324%)" fill-rule="nonzero" stroke-linejoin="round" d="M 136.835428 117.120671 L 135.392665 116.288925 L 135.392665 118.046136 L 136.835428 118.877883 Z M 136.835428 117.120671 " stroke="rgb(13.729858%, 12.159729%, 12.548828%)" stroke-width="0.22" stroke-opacity="1" stroke-miterlimit="10"/><path stroke-linecap="round" transform="matrix(0.99906, 0, 0, 1.000342, 102.594043, 102.659576)" fill-opacity="1" fill="rgb(76.078796%, 28.239441%, 11.369324%)" fill-rule="nonzero" stroke-linejoin="round" d="M 136.835428 118.877883 L 138.962428 117.647835 L 138.962428 115.894528 L 136.835428 117.120671 Z M 136.835428 118.877883 " stroke="rgb(13.729858%, 12.159729%, 12.548828%)" stroke-width="0.22" stroke-opacity="1" stroke-miterlimit="10"/><path stroke-linecap="round" transform="matrix(0.99906, 0, 0, 1.000342, 102.594043, 102.659576)" fill-opacity="1" fill="rgb(76.078796%, 28.239441%, 11.369324%)" fill-rule="nonzero" stroke-linejoin="round" d="M 148.807625 110.208973 L 147.364862 109.373322 L 145.237862 110.60337 L 146.680625 111.439021 Z M 148.807625 110.208973 " stroke="rgb(13.729858%, 12.159729%, 12.548828%)" stroke-width="0.22" stroke-opacity="1" stroke-miterlimit="10"/><path stroke-linecap="round" transform="matrix(0.99906, 0, 0, 1.000342, 102.594043, 102.659576)" fill-opacity="1" fill="rgb(76.078796%, 28.239441%, 11.369324%)" fill-rule="nonzero" stroke-linejoin="round" d="M 146.680625 113.192328 L 148.807625 111.966185 L 148.807625 110.208973 L 146.680625 111.439021 Z M 146.680625 113.192328 " stroke="rgb(13.729858%, 12.159729%, 12.548828%)" stroke-width="0.22" stroke-opacity="1" stroke-miterlimit="10"/><path stroke-linecap="round" transform="matrix(0.99906, 0, 0, 1.000342, 102.594043, 102.659576)" fill-opacity="1" fill="rgb(76.078796%, 28.239441%, 11.369324%)" fill-rule="nonzero" stroke-linejoin="round" d="M 146.680625 111.439021 L 145.237862 110.60337 L 145.237862 112.360581 L 146.680625 113.192328 Z M 146.680625 111.439021 " stroke="rgb(13.729858%, 12.159729%, 12.548828%)" stroke-width="0.22" stroke-opacity="1" stroke-miterlimit="10"/><path stroke-linecap="round" transform="matrix(0.99906, 0, 0, 1.000342, 102.594043, 102.659576)" fill-opacity="1" fill="rgb(76.078796%, 28.239441%, 11.369324%)" fill-rule="nonzero" stroke-linejoin="round" d="M 133.289124 144.04115 L 135.420034 142.811102 L 135.420034 141.057795 L 133.289124 142.283938 Z M 133.289124 144.04115 " stroke="rgb(13.729858%, 12.159729%, 12.548828%)" stroke-width="0.22" stroke-opacity="1" stroke-miterlimit="10"/><path stroke-linecap="round" transform="matrix(0.99906, 0, 0, 1.000342, 102.594043, 102.659576)" fill-opacity="1" fill="rgb(76.078796%, 28.239441%, 11.369324%)" fill-rule="nonzero" stroke-linejoin="round" d="M 131.846361 141.452192 L 131.846361 143.209403 L 133.289124 144.04115 L 133.289124 142.283938 Z M 131.846361 141.452192 " stroke="rgb(13.729858%, 12.159729%, 12.548828%)" stroke-width="0.22" stroke-opacity="1" stroke-miterlimit="10"/><path stroke-linecap="round" transform="matrix(0.99906, 0, 0, 1.000342, 102.594043, 102.659576)" fill-opacity="1" fill="rgb(76.078796%, 28.239441%, 11.369324%)" fill-rule="nonzero" stroke-linejoin="round" d="M 133.289124 142.283938 L 135.420034 141.057795 L 133.973361 140.222144 L 131.846361 141.452192 Z M 133.289124 142.283938 " stroke="rgb(13.729858%, 12.159729%, 12.548828%)" stroke-width="0.22" stroke-opacity="1" stroke-miterlimit="10"/><path stroke-linecap="round" transform="matrix(0.99906, 0, 0, 1.000342, 102.594043, 102.659576)" fill-opacity="1" fill="rgb(76.078796%, 28.239441%, 11.369324%)" fill-rule="nonzero" stroke-linejoin="round" d="M 102.8738 130.084987 L 102.8738 126.75019 L 98.08414 123.981606 L 98.08414 127.316402 Z M 102.8738 130.084987 " stroke="rgb(13.729858%, 12.159729%, 12.548828%)" stroke-width="0.22" stroke-opacity="1" stroke-miterlimit="10"/><path stroke-linecap="round" transform="matrix(0.99906, 0, 0, 1.000342, 102.594043, 102.659576)" fill-opacity="1" fill="rgb(95.289612%, 79.60968%, 52.159119%)" fill-rule="nonzero" stroke-linejoin="round" d="M 98.08414 123.981606 L 96.508439 123.075666 L 96.508439 128.226247 L 98.08414 127.316402 Z M 98.08414 123.981606 " stroke="rgb(13.729858%, 12.159729%, 12.548828%)" stroke-width="0.22" stroke-opacity="1" stroke-miterlimit="10"/><path stroke-linecap="round" transform="matrix(0.99906, 0, 0, 1.000342, 102.594043, 102.659576)" fill-opacity="1" fill="rgb(95.289612%, 79.60968%, 52.159119%)" fill-rule="nonzero" stroke-linejoin="round" d="M 102.8738 130.084987 L 98.08414 127.316402 L 96.508439 128.226247 L 102.8738 131.904677 Z M 102.8738 130.084987 " stroke="rgb(13.729858%, 12.159729%, 12.548828%)" stroke-width="0.22" stroke-opacity="1" stroke-miterlimit="10"/><path stroke-linecap="round" transform="matrix(0.99906, 0, 0, 1.000342, 102.594043, 102.659576)" fill-opacity="1" fill="rgb(95.289612%, 79.60968%, 52.159119%)" fill-rule="nonzero" stroke-linejoin="round" d="M 36.944608 67.60636 L 35.959307 67.040147 L 35.959307 72.647604 L 36.944608 72.077486 Z M 36.944608 67.60636 " stroke="rgb(13.729858%, 12.159729%, 12.548828%)" stroke-width="0.22" stroke-opacity="1" stroke-miterlimit="10"/><path stroke-linecap="round" transform="matrix(0.99906, 0, 0, 1.000342, 102.594043, 102.659576)" fill-opacity="1" fill="rgb(95.289612%, 79.60968%, 52.159119%)" fill-rule="nonzero" stroke-linejoin="round" d="M 35.959307 72.647604 L 41.081311 75.603624 L 41.081311 74.467294 L 36.944608 72.077486 Z M 35.959307 72.647604 " stroke="rgb(13.729858%, 12.159729%, 12.548828%)" stroke-width="0.22" stroke-opacity="1" stroke-miterlimit="10"/><path stroke-linecap="round" transform="matrix(0.99906, 0, 0, 1.000342, 102.594043, 102.659576)" fill-opacity="1" fill="rgb(95.289612%, 79.60968%, 52.159119%)" fill-rule="nonzero" stroke-linejoin="round" d="M 36.944608 72.077486 L 41.081311 74.467294 L 41.081311 69.996167 L 36.944608 67.60636 Z M 36.944608 72.077486 " stroke="rgb(13.729858%, 12.159729%, 12.548828%)" stroke-width="0.22" stroke-opacity="1" stroke-miterlimit="10"/><path stroke-linecap="round" transform="matrix(0.99906, 0, 0, 1.000342, 102.594043, 102.659576)" fill-opacity="1" fill="rgb(95.289612%, 79.60968%, 52.159119%)" fill-rule="nonzero" stroke-linejoin="round" d="M 104.433861 135.583106 L 103.909931 135.887689 L 106.306717 137.270029 L 106.830647 136.965445 Z M 104.433861 135.583106 " stroke="rgb(13.729858%, 12.159729%, 12.548828%)" stroke-width="0.22" stroke-opacity="1" stroke-miterlimit="10"/><path stroke-linecap="round" transform="matrix(0.99906, 0, 0, 1.000342, 102.594043, 102.659576)" fill-opacity="1" fill="rgb(95.289612%, 79.60968%, 52.159119%)" fill-rule="nonzero" stroke-linejoin="round" d="M 104.433861 134.060189 L 103.909931 133.759511 L 103.909931 135.887689 L 104.433861 135.583106 Z M 104.433861 134.060189 " stroke="rgb(13.729858%, 12.159729%, 12.548828%)" stroke-width="0.22" stroke-opacity="1" stroke-miterlimit="10"/><path stroke-linecap="round" transform="matrix(0.99906, 0, 0, 1.000342, 102.594043, 102.659576)" fill-opacity="1" fill="rgb(95.289612%, 79.60968%, 52.159119%)" fill-rule="nonzero" stroke-linejoin="round" d="M 108.484546 139.816033 L 109.598875 139.171722 L 107.952796 138.218923 L 106.838467 138.863234 Z M 108.484546 139.816033 " stroke="rgb(13.729858%, 12.159729%, 12.548828%)" stroke-width="0.22" stroke-opacity="1" stroke-miterlimit="10"/><path stroke-linecap="round" transform="matrix(0.99906, 0, 0, 1.000342, 102.594043, 102.659576)" fill-opacity="1" fill="rgb(95.289612%, 79.60968%, 52.159119%)" fill-rule="nonzero" stroke-linejoin="round" d="M 108.484546 142.162886 L 109.598875 141.518575 L 109.598875 139.171722 L 108.484546 139.816033 Z M 108.484546 142.162886 " stroke="rgb(13.729858%, 12.159729%, 12.548828%)" stroke-width="0.22" stroke-opacity="1" stroke-miterlimit="10"/><path stroke-linecap="round" transform="matrix(0.99906, 0, 0, 1.000342, 102.594043, 102.659576)" fill-opacity="1" fill="rgb(95.289612%, 79.60968%, 52.159119%)" fill-rule="nonzero" stroke-linejoin="round" d="M 106.838467 138.863234 L 105.192387 137.914339 L 105.192387 140.265098 L 108.484546 142.162886 L 108.484546 139.816033 Z M 106.838467 138.863234 " stroke="rgb(13.729858%, 12.159729%, 12.548828%)" stroke-width="0.22" stroke-opacity="1" stroke-miterlimit="10"/><path stroke-linecap="round" transform="matrix(0.99906, 0, 0, 1.000342, 102.594043, 102.659576)" fill-opacity="1" fill="rgb(95.289612%, 79.60968%, 52.159119%)" fill-rule="nonzero" stroke-linejoin="round" d="M 106.838467 138.863234 L 107.952796 138.218923 L 107.952796 137.613661 L 106.830647 136.965445 L 106.306717 137.270029 L 105.192387 137.914339 Z M 106.838467 138.863234 " stroke="rgb(13.729858%, 12.159729%, 12.548828%)" stroke-width="0.22" stroke-opacity="1" stroke-miterlimit="10"/><path stroke-linecap="round" transform="matrix(0.99906, 0, 0, 1.000342, 102.594043, 102.659576)" fill-opacity="1" fill="rgb(95.289612%, 79.60968%, 52.159119%)" fill-rule="nonzero" stroke-linejoin="round" d="M 106.830647 136.965445 L 107.952796 137.613661 L 107.952796 136.090745 L 104.433861 134.060189 L 104.433861 135.583106 Z M 106.830647 136.965445 " stroke="rgb(13.729858%, 12.159729%, 12.548828%)" stroke-width="0.22" stroke-opacity="1" stroke-miterlimit="10"/><path stroke-linecap="round" transform="matrix(0.99906, 0, 0, 1.000342, 102.594043, 102.659576)" fill-opacity="1" fill="rgb(95.289612%, 79.60968%, 52.159119%)" fill-rule="nonzero" stroke-linejoin="round" d="M 161.127806 117.854795 L 162.242135 118.499106 L 162.242135 105.843279 L 161.127806 106.48759 Z M 161.127806 117.854795 " stroke="rgb(13.729858%, 12.159729%, 12.548828%)" stroke-width="0.22" stroke-opacity="1" stroke-miterlimit="10"/><path stroke-linecap="round" transform="matrix(0.99906, 0, 0, 1.000342, 102.594043, 102.659576)" fill-opacity="1" fill="rgb(95.289612%, 79.60968%, 52.159119%)" fill-rule="nonzero" stroke-linejoin="round" d="M 154.168135 121.872952 L 154.168135 123.161574 L 162.242135 118.499106 L 161.127806 117.854795 Z M 154.168135 121.872952 " stroke="rgb(13.729858%, 12.159729%, 12.548828%)" stroke-width="0.22" stroke-opacity="1" stroke-miterlimit="10"/><path stroke-linecap="round" transform="matrix(0.99906, 0, 0, 1.000342, 102.594043, 102.659576)" fill-opacity="1" fill="rgb(76.469421%, 29.019165%, 12.159729%)" fill-rule="nonzero" stroke-linejoin="round" d="M 161.127806 106.48759 L 154.168135 110.501842 L 154.168135 121.872952 L 161.127806 117.854795 Z M 161.127806 106.48759 " stroke="rgb(13.729858%, 12.159729%, 12.548828%)" stroke-width="0.22" stroke-opacity="1" stroke-miterlimit="10"/><path stroke-linecap="round" transform="matrix(0.99906, 0, 0, 1.000342, 102.594043, 102.659576)" fill-opacity="1" fill="rgb(95.289612%, 79.60968%, 52.159119%)" fill-rule="nonzero" stroke-linejoin="round" d="M 143.329817 143.517891 L 143.329817 147.079173 L 144.839049 147.949969 L 144.839049 144.388687 Z M 143.329817 143.517891 " stroke="rgb(13.729858%, 12.159729%, 12.548828%)" stroke-width="0.22" stroke-opacity="1" stroke-miterlimit="10"/><path stroke-linecap="round" transform="matrix(0.99906, 0, 0, 1.000342, 102.594043, 102.659576)" fill-opacity="1" fill="rgb(95.289612%, 79.60968%, 52.159119%)" fill-rule="nonzero" stroke-linejoin="round" d="M 143.329817 143.517891 L 144.839049 144.388687 L 147.923981 142.608046 L 146.41475 141.73725 Z M 143.329817 143.517891 " stroke="rgb(13.729858%, 12.159729%, 12.548828%)" stroke-width="0.22" stroke-opacity="1" stroke-miterlimit="10"/><path stroke-linecap="round" transform="matrix(0.99906, 0, 0, 1.000342, 102.594043, 102.659576)" fill-opacity="1" fill="rgb(95.289612%, 79.60968%, 52.159119%)" fill-rule="nonzero" stroke-linejoin="round" d="M 144.839049 147.949969 L 147.923981 146.169328 L 147.923981 142.608046 L 144.839049 144.388687 Z M 144.839049 147.949969 " stroke="rgb(13.729858%, 12.159729%, 12.548828%)" stroke-width="0.22" stroke-opacity="1" stroke-miterlimit="10"/><path stroke-linecap="round" transform="matrix(0.99906, 0, 0, 1.000342, 102.594043, 102.659576)" fill-opacity="1" fill="rgb(95.289612%, 79.60968%, 52.159119%)" fill-rule="nonzero" stroke-linejoin="round" d="M 136.74159 134.841172 L 136.74159 120.061072 L 135.955694 120.517947 L 135.955694 134.388202 Z M 136.74159 134.841172 " stroke="rgb(13.729858%, 12.159729%, 12.548828%)" stroke-width="0.22" stroke-opacity="1" stroke-miterlimit="10"/><path stroke-linecap="round" transform="matrix(0.99906, 0, 0, 1.000342, 102.594043, 102.659576)" fill-opacity="1" fill="rgb(95.289612%, 79.60968%, 52.159119%)" fill-rule="nonzero" stroke-linejoin="round" d="M 135.955694 134.388202 L 126.50149 139.843367 L 126.50149 140.753212 L 136.74159 134.841172 Z M 135.955694 134.388202 " stroke="rgb(13.729858%, 12.159729%, 12.548828%)" stroke-width="0.22" stroke-opacity="1" stroke-miterlimit="10"/><path stroke-linecap="round" transform="matrix(0.99906, 0, 0, 1.000342, 102.594043, 102.659576)" fill-opacity="1" fill="rgb(76.078796%, 28.239441%, 11.369324%)" fill-rule="nonzero" stroke-linejoin="round" d="M 135.955694 120.517947 L 126.50149 125.973112 L 126.50149 139.843367 L 135.955694 134.388202 Z M 135.955694 120.517947 " stroke="rgb(13.729858%, 12.159729%, 12.548828%)" stroke-width="0.22" stroke-opacity="1" stroke-miterlimit="10"/><path stroke-linecap="round" transform="matrix(0.99906, 0, 0, 1.000342, 102.594043, 102.659576)" fill-opacity="1" fill="rgb(95.289612%, 79.60968%, 52.159119%)" fill-rule="nonzero" stroke-linejoin="round" d="M 139.064086 149.035535 L 139.920361 149.527554 L 139.920361 140.433009 L 139.064086 140.925028 Z M 139.064086 149.035535 " stroke="rgb(13.729858%, 12.159729%, 12.548828%)" stroke-width="0.22" stroke-opacity="1" stroke-miterlimit="10"/><path stroke-linecap="round" transform="matrix(0.99906, 0, 0, 1.000342, 102.594043, 102.659576)" fill-opacity="1" fill="rgb(95.289612%, 79.60968%, 52.159119%)" fill-rule="nonzero" stroke-linejoin="round" d="M 128.69496 155.021769 L 128.69496 156.009712 L 139.920361 149.527554 L 139.064086 149.035535 Z M 128.69496 155.021769 " stroke="rgb(13.729858%, 12.159729%, 12.548828%)" stroke-width="0.22" stroke-opacity="1" stroke-miterlimit="10"/><path stroke-linecap="round" transform="matrix(0.99906, 0, 0, 1.000342, 102.594043, 102.659576)" fill-opacity="1" fill="rgb(76.469421%, 29.019165%, 12.159729%)" fill-rule="nonzero" stroke-linejoin="round" d="M 139.064086 140.925028 L 128.69496 146.915167 L 128.69496 155.021769 L 139.064086 149.035535 Z M 139.064086 140.925028 " stroke="rgb(13.729858%, 12.159729%, 12.548828%)" stroke-width="0.22" stroke-opacity="1" stroke-miterlimit="10"/><path stroke-linecap="round" transform="matrix(0.99906, 0, 0, 1.000342, 102.594043, 102.659576)" fill-opacity="1" fill="rgb(95.289612%, 79.60968%, 52.159119%)" fill-rule="nonzero" stroke-linejoin="round" d="M 122.865258 158.110556 L 123.389188 158.411234 L 123.389188 154.623467 L 122.865258 154.924146 Z M 122.865258 158.110556 " stroke="rgb(13.729858%, 12.159729%, 12.548828%)" stroke-width="0.22" stroke-opacity="1" stroke-miterlimit="10"/><path stroke-linecap="round" transform="matrix(0.99906, 0, 0, 1.000342, 102.594043, 102.659576)" fill-opacity="1" fill="rgb(95.289612%, 79.60968%, 52.159119%)" fill-rule="nonzero" stroke-linejoin="round" d="M 120.10876 159.699856 L 120.10876 160.309022 L 123.389188 158.411234 L 122.865258 158.110556 Z M 120.10876 159.699856 " stroke="rgb(13.729858%, 12.159729%, 12.548828%)" stroke-width="0.22" stroke-opacity="1" stroke-miterlimit="10"/><path stroke-linecap="round" transform="matrix(0.99906, 0, 0, 1.000342, 102.594043, 102.659576)" fill-opacity="1" fill="rgb(95.289612%, 79.60968%, 52.159119%)" fill-rule="nonzero" stroke-linejoin="round" d="M 122.865258 154.924146 L 120.10876 156.517351 L 120.10876 159.699856 L 122.865258 158.110556 Z M 122.865258 154.924146 " stroke="rgb(13.729858%, 12.159729%, 12.548828%)" stroke-width="0.22" stroke-opacity="1" stroke-miterlimit="10"/><path stroke-linecap="round" transform="matrix(0.99906, 0, 0, 1.000342, 102.594043, 102.659576)" fill-opacity="1" fill="rgb(95.289612%, 79.60968%, 52.159119%)" fill-rule="nonzero" stroke-linejoin="round" d="M 152.991247 48.851057 L 154.699885 47.867018 L 125.164295 30.814258 L 125.164295 32.782335 Z M 152.991247 48.851057 " stroke="rgb(13.729858%, 12.159729%, 12.548828%)" stroke-width="0.22" stroke-opacity="1" stroke-miterlimit="10"/><path stroke-linecap="round" transform="matrix(0.99906, 0, 0, 1.000342, 102.594043, 102.659576)" fill-opacity="1" fill="rgb(95.289612%, 79.60968%, 52.159119%)" fill-rule="nonzero" stroke-linejoin="round" d="M 101.794661 46.273813 L 125.164295 32.782335 L 125.164295 30.814258 L 100.089932 45.289775 Z M 101.794661 46.273813 " stroke="rgb(13.729858%, 12.159729%, 12.548828%)" stroke-width="0.22" stroke-opacity="1" stroke-miterlimit="10"/><path stroke-linecap="round" transform="matrix(0.99906, 0, 0, 1.000342, 102.594043, 102.659576)" fill-opacity="1" fill="rgb(95.289612%, 79.60968%, 52.159119%)" fill-rule="nonzero" stroke-linejoin="round" d="M 101.794661 46.273813 L 129.625522 62.342535 L 152.991247 48.851057 L 125.164295 32.782335 Z M 101.794661 46.273813 " stroke="rgb(13.729858%, 12.159729%, 12.548828%)" stroke-width="0.22" stroke-opacity="1" stroke-miterlimit="10"/><path stroke-linecap="round" transform="matrix(0.99906, 0, 0, 1.000342, 102.594043, 102.659576)" fill-opacity="1" fill="rgb(95.289612%, 79.60968%, 52.159119%)" fill-rule="nonzero" stroke-linejoin="round" d="M 119.811605 134.384297 L 119.811605 135.294142 L 124.538707 132.564607 L 123.752812 132.111637 Z M 119.811605 134.384297 " stroke="rgb(13.729858%, 12.159729%, 12.548828%)" stroke-width="0.22" stroke-opacity="1" stroke-miterlimit="10"/><path stroke-linecap="round" transform="matrix(0.99906, 0, 0, 1.000342, 102.594043, 102.659576)" fill-opacity="1" fill="rgb(95.289612%, 79.60968%, 52.159119%)" fill-rule="nonzero" stroke-linejoin="round" d="M 124.538707 132.564607 L 124.538707 127.109442 L 123.752812 127.562412 L 123.752812 132.111637 Z M 124.538707 132.564607 " stroke="rgb(13.729858%, 12.159729%, 12.548828%)" stroke-width="0.22" stroke-opacity="1" stroke-miterlimit="10"/><path stroke-linecap="round" transform="matrix(0.99906, 0, 0, 1.000342, 102.594043, 102.659576)" fill-opacity="1" fill="rgb(95.289612%, 79.60968%, 52.159119%)" fill-rule="nonzero" stroke-linejoin="round" d="M 119.811605 134.384297 L 123.752812 132.111637 L 123.752812 127.562412 L 119.811605 129.835072 Z M 119.811605 134.384297 " stroke="rgb(13.729858%, 12.159729%, 12.548828%)" stroke-width="0.22" stroke-opacity="1" stroke-miterlimit="10"/><path stroke-linecap="round" transform="matrix(0.99906, 0, 0, 1.000342, 102.594043, 102.659576)" fill-opacity="1" fill="rgb(95.289612%, 79.60968%, 52.159119%)" fill-rule="nonzero" stroke-linejoin="round" d="M 148.862364 127.808422 L 148.862364 121.669896 L 148.142937 122.083817 L 148.142937 127.390596 Z M 148.862364 127.808422 " stroke="rgb(13.729858%, 12.159729%, 12.548828%)" stroke-width="0.22" stroke-opacity="1" stroke-miterlimit="10"/><path stroke-linecap="round" transform="matrix(0.99906, 0, 0, 1.000342, 102.594043, 102.659576)" fill-opacity="1" fill="rgb(95.289612%, 79.60968%, 52.159119%)" fill-rule="nonzero" stroke-linejoin="round" d="M 148.142937 127.390596 L 143.544863 130.042032 L 143.544863 130.877684 L 148.862364 127.808422 Z M 148.142937 127.390596 " stroke="rgb(13.729858%, 12.159729%, 12.548828%)" stroke-width="0.22" stroke-opacity="1" stroke-miterlimit="10"/><path stroke-linecap="round" transform="matrix(0.99906, 0, 0, 1.000342, 102.594043, 102.659576)" fill-opacity="1" fill="rgb(95.289612%, 79.60968%, 52.159119%)" fill-rule="nonzero" stroke-linejoin="round" d="M 148.142937 122.083817 L 143.544863 124.739159 L 143.544863 130.042032 L 148.142937 127.390596 Z M 148.142937 122.083817 " stroke="rgb(13.729858%, 12.159729%, 12.548828%)" stroke-width="0.22" stroke-opacity="1" stroke-miterlimit="10"/><path stroke-linecap="round" transform="matrix(0.99906, 0, 0, 1.000342, 102.594043, 102.659576)" fill-opacity="1" fill="rgb(76.078796%, 28.239441%, 11.369324%)" fill-rule="nonzero" stroke-linejoin="round" d="M 89.443201 118.10471 L 90.690467 117.386206 L 90.690467 115.628994 L 89.443201 116.347498 Z M 89.443201 118.10471 " stroke="rgb(13.729858%, 12.159729%, 12.548828%)" stroke-width="0.22" stroke-opacity="1" stroke-miterlimit="10"/><path stroke-linecap="round" transform="matrix(0.99906, 0, 0, 1.000342, 102.594043, 102.659576)" fill-opacity="1" fill="rgb(76.078796%, 28.239441%, 11.369324%)" fill-rule="nonzero" stroke-linejoin="round" d="M 89.443201 116.347498 L 87.464777 115.207264 L 87.464777 116.964475 L 89.443201 118.10471 Z M 89.443201 116.347498 " stroke="rgb(13.729858%, 12.159729%, 12.548828%)" stroke-width="0.22" stroke-opacity="1" stroke-miterlimit="10"/><path stroke-linecap="round" transform="matrix(0.99906, 0, 0, 1.000342, 102.594043, 102.659576)" fill-opacity="1" fill="rgb(76.078796%, 28.239441%, 11.369324%)" fill-rule="nonzero" stroke-linejoin="round" d="M 90.690467 115.628994 L 88.712044 114.488759 L 87.464777 115.207264 L 89.443201 116.347498 Z M 90.690467 115.628994 " stroke="rgb(13.729858%, 12.159729%, 12.548828%)" stroke-width="0.22" stroke-opacity="1" stroke-miterlimit="10"/></svg>