<?xml version="1.0" standalone="no"?><!DOCTYPE svg PUBLIC "-//W3C//DTD SVG 1.1//EN" "http://www.w3.org/Graphics/SVG/1.1/DTD/svg11.dtd"><svg t="1647218218874" class="icon" viewBox="0 0 1024 1024" version="1.1" xmlns="http://www.w3.org/2000/svg" p-id="30098" xmlns:xlink="http://www.w3.org/1999/xlink" width="200" height="200"><defs><style type="text/css"></style></defs><path d="M688 736h80v-80h-80v80z m-64-224h-80v80h80v-80z m-240-144v496H160V160h384v144h80V80H80v864h384V448h384v416H624v-64h-80v144h384V368H384z m160 368h80v-80h-80v80z m224-224h-80v80h80v-80zM240 736h80v-80h-80v80z m80-512h-80v80h80v-80z m144 80v-80h-80v80h80z m-144 64h-80v80h80v-80z m0 144h-80v80h80v-80z" fill="#C0A280" p-id="30099"></path></svg>