<svg xmlns="http://www.w3.org/2000/svg" xmlns:xlink="http://www.w3.org/1999/xlink" width="500" zoomAndPan="magnify" viewBox="0 0 375 374.999991" height="500" preserveAspectRatio="xMidYMid meet" version="1.0"><defs><clipPath id="id1"><path d="M 1.5 16.039062 L 373.5 16.039062 L 373.5 346.789062 L 1.5 346.789062 Z M 1.5 16.039062 " clip-rule="nonzero"/></clipPath></defs><g clip-path="url(#id1)"><path fill="rgb(0%, 0%, 0%)" d="M 367.40625 335.050781 L 306.46875 335.050781 L 306.46875 308.382812 C 318.078125 305.773438 326.78125 295.335938 326.78125 282.871094 C 326.78125 270.40625 308.792969 246.347656 305.308594 241.707031 C 302.988281 238.808594 298.34375 238.808594 296.023438 241.707031 C 292.542969 246.347656 274.550781 270.40625 274.550781 282.871094 C 274.550781 295.335938 283.257812 305.773438 294.863281 308.382812 L 294.863281 335.050781 L 254.238281 335.050781 L 254.238281 317.660156 L 283.257812 317.660156 L 283.257812 316.207031 C 278.613281 313.601562 274.261719 310.121094 271.070312 306.0625 L 254.238281 306.0625 L 254.238281 236.492188 L 271.648438 236.492188 C 273.972656 236.492188 276.003906 235.332031 276.871094 233.300781 C 277.742188 231.273438 277.742188 228.953125 276.292969 227.214844 L 261.203125 207.503906 L 347.09375 207.503906 L 347.09375 306.0625 L 330.265625 306.0625 C 327.074219 310.410156 322.71875 313.890625 318.078125 316.207031 L 318.078125 317.660156 L 352.898438 317.660156 C 356.089844 317.660156 358.699219 315.050781 358.699219 311.859375 L 358.699219 207.503906 L 367.40625 207.503906 C 369.4375 207.503906 371.179688 206.34375 372.339844 204.894531 C 373.5 203.152344 373.5 201.125 372.628906 199.386719 L 343.613281 141.410156 C 342.742188 139.378906 340.710938 138.21875 338.390625 138.21875 L 284.707031 138.21875 L 284.707031 97.347656 L 303.277344 97.347656 C 309.660156 97.347656 314.886719 92.128906 314.886719 85.75 L 314.886719 74.15625 C 314.886719 68.066406 309.953125 63.140625 303.859375 62.558594 L 276.292969 18.789062 C 275.132812 17.046875 273.390625 16.179688 271.359375 16.179688 L 104.21875 16.179688 C 102.1875 16.179688 100.449219 17.046875 99.289062 18.789062 L 71.140625 62.558594 C 64.757812 62.558594 59.535156 67.777344 59.535156 74.15625 L 59.535156 85.75 C 59.535156 92.128906 64.757812 97.347656 71.140625 97.347656 L 85.941406 97.347656 L 85.941406 137.929688 L 36.609375 137.929688 C 34.289062 137.929688 32.257812 139.089844 31.386719 141.117188 L 2.371094 199.097656 C 1.5 200.835938 1.5 203.152344 2.660156 204.605469 C 3.820312 206.34375 5.5625 207.503906 7.59375 207.503906 L 16.296875 207.503906 L 16.296875 311.859375 C 16.296875 315.050781 18.910156 317.660156 22.101562 317.660156 L 51.121094 317.660156 L 51.121094 316.207031 C 46.476562 313.601562 42.125 310.121094 38.933594 306.0625 L 27.90625 306.0625 L 27.90625 207.503906 L 113.796875 207.503906 L 98.707031 227.214844 C 97.257812 228.953125 97.257812 231.273438 98.125 233.300781 C 98.996094 235.332031 101.027344 236.492188 103.351562 236.492188 L 120.761719 236.492188 L 120.761719 306.0625 L 98.125 306.0625 C 94.933594 310.410156 90.582031 313.890625 85.941406 316.207031 L 85.941406 317.660156 L 120.761719 317.660156 L 120.761719 335.050781 L 74.332031 335.050781 L 74.332031 308.382812 C 85.941406 305.773438 94.644531 295.335938 94.644531 282.871094 C 94.644531 270.40625 76.652344 246.347656 73.171875 241.707031 C 70.851562 238.808594 66.207031 238.808594 63.886719 241.707031 C 60.40625 246.347656 42.414062 270.40625 42.414062 282.871094 C 42.414062 295.335938 51.121094 305.773438 62.726562 308.382812 L 62.726562 335.050781 L 7.59375 335.050781 C 4.402344 335.050781 1.789062 337.660156 1.789062 340.847656 C 1.789062 344.039062 4.402344 346.648438 7.59375 346.648438 L 367.40625 346.648438 C 370.597656 346.648438 373.210938 344.039062 373.210938 340.847656 C 373.210938 337.660156 370.597656 335.050781 367.40625 335.050781 Z M 68.53125 279.972656 C 65.335938 279.972656 62.726562 282.582031 62.726562 285.769531 L 62.726562 296.207031 C 57.503906 293.886719 54.019531 288.960938 54.019531 282.871094 C 54.019531 277.65625 61.566406 265.1875 68.53125 255.042969 C 75.492188 265.1875 83.039062 277.65625 83.039062 282.871094 C 83.039062 288.671875 79.554688 293.886719 74.332031 296.207031 L 74.332031 285.769531 C 74.332031 282.582031 71.722656 279.972656 68.53125 279.972656 Z M 334.90625 149.527344 L 358.121094 195.90625 L 252.5 195.90625 L 216.808594 149.527344 Z M 208.101562 137.929688 L 192.140625 117.058594 C 189.820312 114.160156 185.179688 114.160156 182.855469 117.058594 L 166.898438 137.929688 L 97.546875 137.929688 L 97.546875 97.347656 L 273.101562 97.347656 L 273.101562 137.929688 Z M 107.414062 27.773438 L 268.167969 27.773438 L 289.929688 62.558594 L 85.070312 62.558594 Z M 71.140625 85.75 L 71.140625 74.15625 L 303.277344 74.15625 L 303.277344 85.75 Z M 16.878906 195.90625 L 40.09375 149.527344 L 157.902344 149.527344 L 122.5 195.90625 Z M 207.8125 335.050781 L 167.1875 335.050781 L 167.1875 285.769531 L 207.8125 285.769531 Z M 242.632812 335.050781 L 219.417969 335.050781 L 219.417969 279.972656 C 219.417969 276.785156 216.808594 274.175781 213.617188 274.175781 L 161.382812 274.175781 C 158.191406 274.175781 155.582031 276.785156 155.582031 279.972656 L 155.582031 335.050781 L 132.367188 335.050781 L 132.367188 236.492188 L 242.632812 236.492188 Z M 114.957031 224.894531 L 187.5 130.101562 L 260.042969 224.894531 Z M 300.667969 279.972656 C 297.476562 279.972656 294.863281 282.582031 294.863281 285.769531 L 294.863281 296.207031 C 289.640625 293.886719 286.15625 288.960938 286.15625 282.871094 C 286.15625 277.65625 293.703125 265.1875 300.667969 255.042969 C 307.628906 265.1875 315.175781 277.65625 315.175781 282.871094 C 315.175781 288.671875 311.691406 293.886719 306.46875 296.207031 L 306.46875 285.769531 C 306.46875 282.582031 303.859375 279.972656 300.667969 279.972656 Z M 300.667969 279.972656 " fill-opacity="1" fill-rule="nonzero"/></g></svg>