<svg xmlns="http://www.w3.org/2000/svg" xmlns:xlink="http://www.w3.org/1999/xlink" width="500" zoomAndPan="magnify" viewBox="0 0 375 374.999991" height="500" preserveAspectRatio="xMidYMid meet" version="1.0"><defs><clipPath id="id1"><path d="M 53 67.65625 L 322 67.65625 L 322 307.65625 L 53 307.65625 Z M 53 67.65625 " clip-rule="nonzero"/></clipPath></defs><g clip-path="url(#id1)"><path fill="rgb(0%, 0%, 0%)" d="M 317.683594 299.140625 L 273.582031 299.140625 L 273.582031 279.789062 C 281.980469 277.894531 288.28125 270.324219 288.28125 261.277344 C 288.28125 252.234375 275.261719 234.773438 272.738281 231.410156 C 271.058594 229.304688 267.699219 229.304688 266.019531 231.410156 C 263.5 234.773438 250.476562 252.234375 250.476562 261.277344 C 250.476562 270.324219 256.777344 277.894531 265.179688 279.789062 L 265.179688 299.140625 L 235.777344 299.140625 L 235.777344 286.519531 L 256.777344 286.519531 L 256.777344 285.46875 C 253.417969 283.574219 250.269531 281.050781 247.957031 278.105469 L 235.777344 278.105469 L 235.777344 227.625 L 248.378906 227.625 C 250.058594 227.625 251.527344 226.78125 252.15625 225.308594 C 252.789062 223.835938 252.789062 222.15625 251.738281 220.890625 L 240.816406 206.589844 L 302.984375 206.589844 L 302.984375 278.105469 L 290.800781 278.105469 C 288.492188 281.261719 285.339844 283.785156 281.980469 285.46875 L 281.980469 286.519531 L 307.183594 286.519531 C 309.496094 286.519531 311.382812 284.628906 311.382812 282.3125 L 311.382812 206.589844 L 317.683594 206.589844 C 319.15625 206.589844 320.414062 205.746094 321.253906 204.695312 C 322.09375 203.433594 322.09375 201.960938 321.464844 200.699219 L 300.464844 158.628906 C 299.832031 157.15625 298.363281 156.316406 296.683594 156.316406 L 257.828125 156.316406 L 257.828125 126.65625 L 271.269531 126.65625 C 275.890625 126.65625 279.671875 122.871094 279.671875 118.242188 L 279.671875 109.828125 C 279.671875 105.414062 276.101562 101.835938 271.691406 101.414062 L 251.738281 69.652344 C 250.898438 68.390625 249.636719 67.761719 248.167969 67.761719 L 127.195312 67.761719 C 125.722656 67.761719 124.464844 68.390625 123.625 69.652344 L 103.25 101.414062 C 98.628906 101.414062 94.851562 105.203125 94.851562 109.828125 L 94.851562 118.242188 C 94.851562 122.871094 98.628906 126.65625 103.25 126.65625 L 113.960938 126.65625 L 113.960938 156.105469 L 78.257812 156.105469 C 76.578125 156.105469 75.109375 156.945312 74.476562 158.417969 L 53.476562 200.488281 C 52.84375 201.75 52.84375 203.433594 53.6875 204.484375 C 54.527344 205.746094 55.785156 206.589844 57.257812 206.589844 L 63.558594 206.589844 L 63.558594 282.3125 C 63.558594 284.628906 65.445312 286.519531 67.757812 286.519531 L 88.757812 286.519531 L 88.757812 285.46875 C 85.398438 283.574219 82.25 281.050781 79.9375 278.105469 L 71.957031 278.105469 L 71.957031 206.589844 L 134.125 206.589844 L 123.203125 220.890625 C 122.152344 222.15625 122.152344 223.835938 122.785156 225.308594 C 123.414062 226.78125 124.882812 227.625 126.5625 227.625 L 139.164062 227.625 L 139.164062 278.105469 L 122.785156 278.105469 C 120.472656 281.261719 117.324219 283.785156 113.960938 285.46875 L 113.960938 286.519531 L 139.164062 286.519531 L 139.164062 299.140625 L 105.5625 299.140625 L 105.5625 279.789062 C 113.960938 277.894531 120.261719 270.324219 120.261719 261.277344 C 120.261719 252.234375 107.242188 234.773438 104.722656 231.410156 C 103.042969 229.304688 99.679688 229.304688 98 231.410156 C 95.480469 234.773438 82.457031 252.234375 82.457031 261.277344 C 82.457031 270.324219 88.757812 277.894531 97.160156 279.789062 L 97.160156 299.140625 L 57.257812 299.140625 C 54.945312 299.140625 53.054688 301.035156 53.054688 303.347656 C 53.054688 305.660156 54.945312 307.554688 57.257812 307.554688 L 317.683594 307.554688 C 319.996094 307.554688 321.886719 305.660156 321.886719 303.347656 C 321.886719 301.035156 319.996094 299.140625 317.683594 299.140625 Z M 101.359375 259.175781 C 99.050781 259.175781 97.160156 261.070312 97.160156 263.382812 L 97.160156 270.953125 C 93.378906 269.273438 90.859375 265.695312 90.859375 261.277344 C 90.859375 257.492188 96.320312 248.449219 101.359375 241.085938 C 106.402344 248.449219 111.863281 257.492188 111.863281 261.277344 C 111.863281 265.484375 109.34375 269.273438 105.5625 270.953125 L 105.5625 263.382812 C 105.5625 261.070312 103.671875 259.175781 101.359375 259.175781 Z M 294.164062 164.519531 L 310.964844 198.175781 L 234.515625 198.175781 L 208.683594 164.519531 Z M 202.382812 156.105469 L 190.832031 140.960938 C 189.152344 138.855469 185.789062 138.855469 184.109375 140.960938 L 172.558594 156.105469 L 122.363281 156.105469 L 122.363281 126.65625 L 249.425781 126.65625 L 249.425781 156.105469 Z M 129.503906 76.175781 L 245.855469 76.175781 L 261.609375 101.414062 L 113.332031 101.414062 Z M 103.25 118.242188 L 103.25 109.828125 L 271.269531 109.828125 L 271.269531 118.242188 Z M 63.976562 198.175781 L 80.777344 164.519531 L 166.046875 164.519531 L 140.425781 198.175781 Z M 202.171875 299.140625 L 172.769531 299.140625 L 172.769531 263.382812 L 202.171875 263.382812 Z M 227.375 299.140625 L 210.574219 299.140625 L 210.574219 259.175781 C 210.574219 256.863281 208.683594 254.96875 206.371094 254.96875 L 168.570312 254.96875 C 166.257812 254.96875 164.367188 256.863281 164.367188 259.175781 L 164.367188 299.140625 L 147.566406 299.140625 L 147.566406 227.625 L 227.375 227.625 Z M 134.964844 219.210938 L 187.46875 150.425781 L 239.976562 219.210938 Z M 269.378906 259.175781 C 267.070312 259.175781 265.179688 261.070312 265.179688 263.382812 L 265.179688 270.953125 C 261.398438 269.273438 258.878906 265.695312 258.878906 261.277344 C 258.878906 257.492188 264.339844 248.449219 269.378906 241.085938 C 274.421875 248.449219 279.882812 257.492188 279.882812 261.277344 C 279.882812 265.484375 277.359375 269.273438 273.582031 270.953125 L 273.582031 263.382812 C 273.582031 261.070312 271.691406 259.175781 269.378906 259.175781 Z M 269.378906 259.175781 " fill-opacity="1" fill-rule="nonzero"/></g></svg>