<?xml version="1.0" standalone="no"?><!DOCTYPE svg PUBLIC "-//W3C//DTD SVG 1.1//EN" "http://www.w3.org/Graphics/SVG/1.1/DTD/svg11.dtd"><svg t="1647218781049" class="icon" viewBox="0 0 1024 1024" version="1.1" xmlns="http://www.w3.org/2000/svg" p-id="48925" xmlns:xlink="http://www.w3.org/1999/xlink" width="200" height="200"><defs><style type="text/css"></style></defs><path d="M810.666667 768v85.333333h-256v-85.333333h256zM341.333333 768v85.333333H85.333333v-85.333333h256z m597.333334-128v85.333333h-384v-85.333333h384z m-469.333334 0v85.333333H85.333333v-85.333333h384zM917.333333 170.666667a21.333333 21.333333 0 0 1 21.333334 21.333333v341.333333a21.333333 21.333333 0 0 1-21.333334 21.333334h-341.333333a21.333333 21.333333 0 0 1-21.333333-21.333334v-341.333333a21.333333 21.333333 0 0 1 21.333333-21.333333h341.333333z m-469.333333 0a21.333333 21.333333 0 0 1 21.333333 21.333333v341.333333a21.333333 21.333333 0 0 1-21.333333 21.333334h-341.333333a21.333333 21.333333 0 0 1-21.333334-21.333334v-341.333333a21.333333 21.333333 0 0 1 21.333334-21.333333h341.333333zM853.333333 256h-213.333333v213.333333h213.333333V256zM384 256H170.666667v213.333333h213.333333V256z" fill="#707070" p-id="48926"></path></svg>