<?xml version="1.0" standalone="no"?><!DOCTYPE svg PUBLIC "-//W3C//DTD SVG 1.1//EN" "http://www.w3.org/Graphics/SVG/1.1/DTD/svg11.dtd"><svg t="1647219030710" class="icon" viewBox="0 0 1024 1024" version="1.1" xmlns="http://www.w3.org/2000/svg" p-id="51296" data-spm-anchor-id="a313x.7781069.0.i36" xmlns:xlink="http://www.w3.org/1999/xlink" width="200" height="200"><defs><style type="text/css"></style></defs><path d="M983.559972 171.69486H420.283859a40.059463 40.059463 0 0 1 0-80.118927h563.276113a40.059463 40.059463 0 0 1 0 80.118927zM983.559972 373.21399H420.283859a40.059463 40.059463 0 0 1 0-80.118927h563.276113a40.059463 40.059463 0 0 1 0 80.118927zM227.65793 464.789923H60.46976a60.089195 60.089195 0 0 1-60.089195-60.089195V60.089195A60.089195 60.089195 0 0 1 60.46976 0h167.18817a60.089195 60.089195 0 0 1 60.089195 60.089195v344.611533a60.089195 60.089195 0 0 1-60.089195 60.089195z m-147.158439-80.118927h127.128707V80.118927H80.499491z" fill="#8a8a8a" p-id="51297" data-spm-anchor-id="a313x.7781069.0.i37" class=""></path><path d="M983.559972 730.904937H420.283859a40.059463 40.059463 0 1 1 0-80.118927h563.276113a40.059463 40.059463 0 0 1 0 80.118927zM983.559972 932.424067H420.283859a40.059463 40.059463 0 0 1 0-80.118927h563.276113a40.059463 40.059463 0 0 1 0 80.118927zM227.65793 1024H60.46976a60.089195 60.089195 0 0 1-60.089195-60.089195v-344.511384a60.089195 60.089195 0 0 1 60.089195-60.089195h167.18817a60.089195 60.089195 0 0 1 60.089195 60.089195v344.511384a60.089195 60.089195 0 0 1-60.089195 60.089195z m-147.158439-80.118927h127.128707v-304.45192H80.499491z" fill="#C0A280" p-id="51298" data-spm-anchor-id="a313x.7781069.0.i38" class=""></path></svg>