<?xml version="1.0" standalone="no"?><!DOCTYPE svg PUBLIC "-//W3C//DTD SVG 1.1//EN" "http://www.w3.org/Graphics/SVG/1.1/DTD/svg11.dtd"><svg t="1647218697062" class="icon" viewBox="0 0 1024 1024" version="1.1" xmlns="http://www.w3.org/2000/svg" p-id="44446" xmlns:xlink="http://www.w3.org/1999/xlink" width="200" height="200"><defs><style type="text/css"></style></defs><path d="M82.651429 518.491429h330.697142c55.332571 0 83.017143-26.587429 83.017143-81.938286v-148.809143c0-54.985143-27.684571-81.590857-83.017143-81.590857H82.651429C27.684571 206.153143 0 232.758857 0 287.744v148.809143c0 55.350857 27.684571 81.938286 82.651429 81.938286z m623.981714 301.915428h234.697143c55.369143 0 82.669714-26.587429 82.669714-81.938286V339.145143c0-55.003429-27.300571-81.590857-82.651429-81.590857H706.614857c-54.985143 0-82.669714 26.587429-82.669714 81.590857v399.323428c0 55.350857 27.684571 81.938286 82.651428 81.938286zM86.985143 464.219429c-21.211429 0-32.713143-10.788571-32.713143-33.060572V293.851429c0-22.637714 11.501714-33.426286 32.713143-33.426286h322.048c21.558857 0 33.060571 10.788571 33.060571 33.426286v137.307428c0 22.272-11.501714 33.060571-33.060571 33.060572zM710.948571 766.134857c-21.211429 0-32.713143-11.154286-32.713142-33.426286V345.234286c0-22.619429 11.501714-33.408 32.713142-33.408h226.066286c21.577143 0 32.713143 10.788571 32.713143 33.426285v387.474286c0 22.272-11.154286 33.408-32.713143 33.408zM174.683429 865.334857h283.227428c54.985143 0 82.651429-26.587429 82.651429-81.938286v-101.357714c0-55.003429-27.666286-81.590857-82.651429-81.590857H174.665143c-55.332571 0-82.651429 26.587429-82.651429 81.590857v101.357714c0 55.350857 27.318857 81.938286 82.651429 81.938286z m3.949714-54.272c-20.845714 0-32.347429-11.154286-32.347429-33.426286v-89.490285c0-22.656 11.501714-33.426286 32.365715-33.426286h274.944c21.211429 0 32.713143 10.788571 32.713142 33.426286v89.490285c0 22.290286-11.52 33.426286-32.713142 33.426286z" p-id="44447"></path></svg>