<?xml version="1.0" standalone="no"?><!DOCTYPE svg PUBLIC "-//W3C//DTD SVG 1.1//EN" "http://www.w3.org/Graphics/SVG/1.1/DTD/svg11.dtd"><svg t="1647216100449" class="icon" viewBox="0 0 1024 1024" version="1.1" xmlns="http://www.w3.org/2000/svg" p-id="1385" xmlns:xlink="http://www.w3.org/1999/xlink" width="200" height="200"><defs><style type="text/css"></style></defs><path d="M917.333333 186.666667a5.333333 5.333333 0 0 0-5.333333-5.333334H112a5.333333 5.333333 0 0 0-5.333333 5.333334v64a5.333333 5.333333 0 0 0 5.333333 5.333333h800a5.333333 5.333333 0 0 0 5.333333-5.333333zM106.666667 773.333333v64a5.333333 5.333333 0 0 0 5.333333 5.333334h394.666667a5.333333 5.333333 0 0 0 5.333333-5.333334v-64a5.333333 5.333333 0 0 0-5.333333-5.333333H112a5.333333 5.333333 0 0 0-5.333333 5.333333zM512 474.666667H112a5.333333 5.333333 0 0 0-5.333333 5.333333v64a5.333333 5.333333 0 0 0 5.333333 5.333333h800a5.333333 5.333333 0 0 0 5.333333-5.333333V480a5.333333 5.333333 0 0 0-5.333333-5.333333z" p-id="1386" fill="#C0A280"></path></svg>