<?xml version="1.0" standalone="no"?><!DOCTYPE svg PUBLIC "-//W3C//DTD SVG 1.1//EN" "http://www.w3.org/Graphics/SVG/1.1/DTD/svg11.dtd"><svg t="1647222212951" class="icon" viewBox="0 0 1024 1024" version="1.1" xmlns="http://www.w3.org/2000/svg" p-id="6413" xmlns:xlink="http://www.w3.org/1999/xlink" width="200" height="200"><defs><style type="text/css"></style></defs><path d="M898.56 284.672c15.36 0 27.648-12.288 27.648-27.136V126.976c0-15.36-12.288-27.648-27.648-27.648H768c-15.36 0-27.648 12.288-27.648 27.648v29.696H286.208v-29.696c0-15.36-12.288-27.648-27.648-27.648H128c-15.36 0-27.648 12.288-27.648 27.648v130.048c0 15.36 12.288 27.648 27.648 27.648h31.744v452.096H128c-15.36 0-27.648 12.288-27.648 27.648v130.56c0 15.36 12.288 27.648 27.648 27.648h130.56c14.848 0 27.136-12.288 27.648-27.648v-32.768h454.144v32.768c0 15.36 12.288 27.648 27.648 27.648h130.56c15.36 0 27.648-12.288 27.648-27.648v-130.56c0-15.36-12.288-27.648-27.648-27.648H865.28V284.672h33.28z m-102.912-130.56h75.264v75.264h-75.264V154.112z m-640 0h75.264v75.264H155.648V154.112z m75.264 713.216H155.648v-75.264h75.264v75.264z m380.928-223.232c0 13.312-10.752 24.576-24.576 24.576s-24.576-10.752-24.576-24.576V477.696c0-11.264 0-30.208-10.24-40.448-7.168-7.168-19.456-10.752-36.352-10.752h-16.896v218.112c0 13.312-10.752 24.576-24.576 24.576-13.312 0-24.576-10.752-24.576-24.576V426.496H379.904v218.112c0 13.312-10.752 24.576-24.576 24.576-13.824 0-24.576-10.752-24.576-24.576V401.92c0-13.312 10.752-24.576 24.576-24.576h160.768c30.72 0 54.272 8.704 71.168 25.088 24.576 25.088 24.576 59.392 24.576 75.776v165.888z m108.032-252.416c10.752 0.512 18.944 9.216 18.944 19.456s-8.704 18.944-18.944 18.944h-70.656c-5.12 0-10.24-2.048-13.824-6.144-3.584-3.584-5.632-8.704-5.12-13.824 0-4.608 3.072-47.616 35.328-61.952 15.36-6.656 32.256-15.36 35.84-26.624 1.024-3.584 0.512-9.216-2.56-13.824-1.536-2.56-5.12-7.168-10.752-8.704-10.24-2.048-19.968 3.584-25.6 15.36-4.608 9.728-15.872 13.312-25.6 8.704-9.728-4.608-13.312-15.872-8.704-25.6 13.312-27.136 40.448-41.984 68.096-35.84 14.848 3.072 27.648 12.8 35.84 26.624 8.192 13.824 10.24 30.208 5.632 44.544-9.216 28.672-38.912 41.984-56.832 50.176-3.072 1.536-5.632 5.12-7.68 8.704h46.592z m151.04 475.648h-75.264v-75.264h75.264v75.264z" fill="#8a8a8a" p-id="6414"></path></svg>